<svg xmlns="http://www.w3.org/2000/svg" xmlns:xlink="http://www.w3.org/1999/xlink" version="1.1" class="marks" width="530" height="299" viewBox="0 0 530 299"><rect width="530" height="299" fill="white"/><g fill="none" stroke-miterlimit="10" transform="translate(107,22)"><g class="mark-group role-frame root" role="graphics-object" aria-roledescription="group mark container"><g transform="translate(0,0)"><path class="background" aria-hidden="true" d="M0.5,0.5h300v240h-300Z" stroke="#ddd"/><g><g class="mark-group role-axis" aria-hidden="true"><g transform="translate(0.5,240.5)"><path class="background" aria-hidden="true" d="M0,0h0v0h0Z" pointer-events="none"/><g><g class="mark-rule role-axis-grid" pointer-events="none"><line transform="translate(0,0)" x2="0" y2="-240" stroke="#ddd" stroke-width="1" opacity="1"/><line transform="translate(25,0)" x2="0" y2="-240" stroke="#ddd" stroke-width="1" opacity="1"/><line transform="translate(50,0)" x2="0" y2="-240" stroke="#ddd" stroke-width="1" opacity="1"/><line transform="translate(75,0)" x2="0" y2="-240" stroke="#ddd" stroke-width="1" opacity="1"/><line transform="translate(100,0)" x2="0" y2="-240" stroke="#ddd" stroke-width="1" opacity="1"/><line transform="translate(125,0)" x2="0" y2="-240" stroke="#ddd" stroke-width="1" opacity="1"/><line transform="translate(150,0)" x2="0" y2="-240" stroke="#ddd" stroke-width="1" opacity="1"/><line transform="translate(175,0)" x2="0" y2="-240" stroke="#ddd" stroke-width="1" opacity="1"/><line transform="translate(200,0)" x2="0" y2="-240" stroke="#ddd" stroke-width="1" opacity="1"/><line transform="translate(225,0)" x2="0" y2="-240" stroke="#ddd" stroke-width="1" opacity="1"/><line transform="translate(250,0)" x2="0" y2="-240" stroke="#ddd" stroke-width="1" opacity="1"/><line transform="translate(275,0)" x2="0" y2="-240" stroke="#ddd" stroke-width="1" opacity="1"/><line transform="translate(300,0)" x2="0" y2="-240" stroke="#ddd" stroke-width="1" opacity="1"/></g></g><path class="foreground" aria-hidden="true" d="" pointer-events="none" display="none"/></g></g><g class="mark-group role-axis" role="graphics-symbol" aria-roledescription="axis" aria-label="X-axis titled 'Count' for a linear scale with values from 0 to 2,400"><g transform="translate(0.5,240.5)"><path class="background" aria-hidden="true" d="M0,0h0v0h0Z" pointer-events="none"/><g><g class="mark-rule role-axis-tick" pointer-events="none"><line transform="translate(0,0)" x2="0" y2="5" stroke="#888" stroke-width="1" opacity="1"/><line transform="translate(25,0)" x2="0" y2="5" stroke="#888" stroke-width="1" opacity="1"/><line transform="translate(50,0)" x2="0" y2="5" stroke="#888" stroke-width="1" opacity="1"/><line transform="translate(75,0)" x2="0" y2="5" stroke="#888" stroke-width="1" opacity="1"/><line transform="translate(100,0)" x2="0" y2="5" stroke="#888" stroke-width="1" opacity="1"/><line transform="translate(125,0)" x2="0" y2="5" stroke="#888" stroke-width="1" opacity="1"/><line transform="translate(150,0)" x2="0" y2="5" stroke="#888" stroke-width="1" opacity="1"/><line transform="translate(175,0)" x2="0" y2="5" stroke="#888" stroke-width="1" opacity="1"/><line transform="translate(200,0)" x2="0" y2="5" stroke="#888" stroke-width="1" opacity="1"/><line transform="translate(225,0)" x2="0" y2="5" stroke="#888" stroke-width="1" opacity="1"/><line transform="translate(250,0)" x2="0" y2="5" stroke="#888" stroke-width="1" opacity="1"/><line transform="translate(275,0)" x2="0" y2="5" stroke="#888" stroke-width="1" opacity="1"/><line transform="translate(300,0)" x2="0" y2="5" stroke="#888" stroke-width="1" opacity="1"/></g><g class="mark-text role-axis-label" pointer-events="none"><text text-anchor="start" transform="translate(0,15)" font-family="sans-serif" font-size="10px" fill="#000" opacity="1">0</text><text text-anchor="middle" transform="translate(25,15)" font-family="sans-serif" font-size="10px" fill="#000" opacity="0">200</text><text text-anchor="middle" transform="translate(50,15)" font-family="sans-serif" font-size="10px" fill="#000" opacity="1">400</text><text text-anchor="middle" transform="translate(75,15)" font-family="sans-serif" font-size="10px" fill="#000" opacity="0">600</text><text text-anchor="middle" transform="translate(100,15)" font-family="sans-serif" font-size="10px" fill="#000" opacity="1">800</text><text text-anchor="middle" transform="translate(125,15)" font-family="sans-serif" font-size="10px" fill="#000" opacity="0">1,000</text><text text-anchor="middle" transform="translate(150,15)" font-family="sans-serif" font-size="10px" fill="#000" opacity="1">1,200</text><text text-anchor="middle" transform="translate(175,15)" font-family="sans-serif" font-size="10px" fill="#000" opacity="0">1,400</text><text text-anchor="middle" transform="translate(200,15)" font-family="sans-serif" font-size="10px" fill="#000" opacity="1">1,600</text><text text-anchor="middle" transform="translate(225,15)" font-family="sans-serif" font-size="10px" fill="#000" opacity="0">1,800</text><text text-anchor="middle" transform="translate(250,15)" font-family="sans-serif" font-size="10px" fill="#000" opacity="1">2,000</text><text text-anchor="middle" transform="translate(275,15)" font-family="sans-serif" font-size="10px" fill="#000" opacity="0">2,200</text><text text-anchor="end" transform="translate(300,15)" font-family="sans-serif" font-size="10px" fill="#000" opacity="1">2,400</text></g><g class="mark-rule role-axis-domain" pointer-events="none"><line transform="translate(0,0)" x2="300" y2="0" stroke="#888" stroke-width="1" opacity="1"/></g><g class="mark-text role-axis-title" pointer-events="none"><text text-anchor="middle" transform="translate(150,30)" font-family="sans-serif" font-size="11px" font-weight="bold" fill="#000" opacity="1">Count</text></g></g><path class="foreground" aria-hidden="true" d="" pointer-events="none" display="none"/></g></g><g class="mark-group role-axis" role="graphics-symbol" aria-roledescription="axis" aria-label="Y-axis titled 'Group' for a discrete scale with 12 values: cid_[40.0]_positive, cid_[20.0]_positive, cid_[60.0]_positive, ead_[16.0]_positive, ead_[24.0]_positive, ending with ead_[16.0]_negative"><g transform="translate(0.5,0.5)"><path class="background" aria-hidden="true" d="M0,0h0v0h0Z" pointer-events="none"/><g><g class="mark-rule role-axis-tick" pointer-events="none"><line transform="translate(0,10)" x2="-5" y2="0" stroke="#888" stroke-width="1" opacity="1"/><line transform="translate(0,30)" x2="-5" y2="0" stroke="#888" stroke-width="1" opacity="1"/><line transform="translate(0,50)" x2="-5" y2="0" stroke="#888" stroke-width="1" opacity="1"/><line transform="translate(0,70)" x2="-5" y2="0" stroke="#888" stroke-width="1" opacity="1"/><line transform="translate(0,90)" x2="-5" y2="0" stroke="#888" stroke-width="1" opacity="1"/><line transform="translate(0,110)" x2="-5" y2="0" stroke="#888" stroke-width="1" opacity="1"/><line transform="translate(0,130)" x2="-5" y2="0" stroke="#888" stroke-width="1" opacity="1"/><line transform="translate(0,150)" x2="-5" y2="0" stroke="#888" stroke-width="1" opacity="1"/><line transform="translate(0,170)" x2="-5" y2="0" stroke="#888" stroke-width="1" opacity="1"/><line transform="translate(0,190)" x2="-5" y2="0" stroke="#888" stroke-width="1" opacity="1"/><line transform="translate(0,210)" x2="-5" y2="0" stroke="#888" stroke-width="1" opacity="1"/><line transform="translate(0,230)" x2="-5" y2="0" stroke="#888" stroke-width="1" opacity="1"/></g><g class="mark-text role-axis-label" pointer-events="none"><text text-anchor="end" transform="translate(-7,12.5)" font-family="sans-serif" font-size="10px" fill="#000" opacity="1">cid 40.0 positive</text><text text-anchor="end" transform="translate(-7,32.5)" font-family="sans-serif" font-size="10px" fill="#000" opacity="1">cid 20.0 positive</text><text text-anchor="end" transform="translate(-7,52.5)" font-family="sans-serif" font-size="10px" fill="#000" opacity="1">cid 60.0 positive</text><text text-anchor="end" transform="translate(-7,72.5)" font-family="sans-serif" font-size="10px" fill="#000" opacity="1">ead 16.0 positive</text><text text-anchor="end" transform="translate(-7,92.5)" font-family="sans-serif" font-size="10px" fill="#000" opacity="1">ead 24.0 positive</text><text text-anchor="end" transform="translate(-7,112.5)" font-family="sans-serif" font-size="10px" fill="#000" opacity="1">ead 12.0 positive</text><text text-anchor="end" transform="translate(-7,132.5)" font-family="sans-serif" font-size="10px" fill="#000" opacity="1">cid 20.0 negative</text><text text-anchor="end" transform="translate(-7,152.5)" font-family="sans-serif" font-size="10px" fill="#000" opacity="1">cid 40.0 negative</text><text text-anchor="end" transform="translate(-7,172.5)" font-family="sans-serif" font-size="10px" fill="#000" opacity="1">cid 60.0 negative</text><text text-anchor="end" transform="translate(-7,192.5)" font-family="sans-serif" font-size="10px" fill="#000" opacity="1">ead 24.0 negative</text><text text-anchor="end" transform="translate(-7,212.5)" font-family="sans-serif" font-size="10px" fill="#000" opacity="1">ead 12.0 negative</text><text text-anchor="end" transform="translate(-7,232.5)" font-family="sans-serif" font-size="10px" fill="#000" opacity="1">ead 16.0 negative</text></g><g class="mark-rule role-axis-domain" pointer-events="none"><line transform="translate(0,0)" x2="0" y2="240" stroke="#888" stroke-width="1" opacity="1"/></g><g class="mark-text role-axis-title" pointer-events="none"><text text-anchor="middle" transform="translate(-90.51171875,120) rotate(-90) translate(0,-2)" font-family="sans-serif" font-size="11px" font-weight="bold" fill="#000" opacity="1">Group</text></g></g><path class="foreground" aria-hidden="true" d="" pointer-events="none" display="none"/></g></g><g class="mark-rect role-mark layer_0_marks" role="graphics-symbol" aria-roledescription="rect mark container"><path d="M0,41h0v18h0Z" fill="#011959"/><path d="M0,41h0v18h0Z" fill="#103f60"/><path d="M0,41h0v18h0Z" fill="#1b5962"/><path d="M0,41h0.125v18h-0.125Z" fill="#3c6d56"/><path d="M0.125,41h1.25v18h-1.25Z" fill="#687b3e"/><path d="M1.375,41h0.875v18h-0.875Z" fill="#9d892b"/><path d="M2.25,41h2.625v18h-2.625Z" fill="#d29343"/><path d="M4.875,41h4.375v18h-4.375Z" fill="#f8a27e"/><path d="M9.25,41h13.25v18h-13.25Z" fill="#fdb7bc"/><path d="M22.5,41h238v18h-238Z" fill="#faccfa"/><path d="M0,1h0v18h0Z" fill="#011959"/><path d="M0,1h0.125v18h-0.125Z" fill="#103f60"/><path d="M0.125,1h0v18h0Z" fill="#1b5962"/><path d="M0.125,1h0.5v18h-0.5Z" fill="#3c6d56"/><path d="M0.625,1h1.75v18h-1.75Z" fill="#687b3e"/><path d="M2.375,1h1.5v18h-1.5Z" fill="#9d892b"/><path d="M3.875,1h1.625v18h-1.625Z" fill="#d29343"/><path d="M5.5,1h4.625v18h-4.625Z" fill="#f8a27e"/><path d="M10.125,1h14.875v18h-14.875Z" fill="#fdb7bc"/><path d="M25,1h256v18h-256Z" fill="#faccfa"/><path d="M0,61h0.375v18h-0.375Z" fill="#011959"/><path d="M0.375,61h0.125v18h-0.125Z" fill="#103f60"/><path d="M0.5,61h0.625v18h-0.625Z" fill="#1b5962"/><path d="M1.125,61h0.375v18h-0.375Z" fill="#3c6d56"/><path d="M1.5,61h0.375v18h-0.375Z" fill="#687b3e"/><path d="M1.875,61h2.125v18h-2.125Z" fill="#9d892b"/><path d="M4,61h5.125v18h-5.125Z" fill="#d29343"/><path d="M9.125,61h17.375v18h-17.375Z" fill="#f8a27e"/><path d="M26.5,61h42.625v18h-42.625Z" fill="#fdb7bc"/><path d="M69.125,61h142.625v18h-142.625Z" fill="#faccfa"/><path d="M0,81h0.5v18h-0.5Z" fill="#011959"/><path d="M0.5,81h0.125v18h-0.125Z" fill="#103f60"/><path d="M0.625,81h0.625v18h-0.625Z" fill="#1b5962"/><path d="M1.25,81h0.375v18h-0.375Z" fill="#3c6d56"/><path d="M1.625,81h1.25v18h-1.25Z" fill="#687b3e"/><path d="M2.875,81h1.25v18h-1.25Z" fill="#9d892b"/><path d="M4.125,81h5.749999999999998v18h-5.749999999999998Z" fill="#d29343"/><path d="M9.874999999999998,81h12.750000000000005v18h-12.750000000000005Z" fill="#f8a27e"/><path d="M22.625000000000004,81h33.5v18h-33.5Z" fill="#fdb7bc"/><path d="M56.125,81h146.625v18h-146.625Z" fill="#faccfa"/><path d="M0,101h0.375v18h-0.375Z" fill="#011959"/><path d="M0.375,101h0v18h0Z" fill="#103f60"/><path d="M0.375,101h0.25v18h-0.25Z" fill="#1b5962"/><path d="M0.625,101h0.625v18h-0.625Z" fill="#3c6d56"/><path d="M1.25,101h1.25v18h-1.25Z" fill="#687b3e"/><path d="M2.5,101h2.25v18h-2.25Z" fill="#9d892b"/><path d="M4.75,101h3.625v18h-3.625Z" fill="#d29343"/><path d="M8.375,101h7.75v18h-7.75Z" fill="#f8a27e"/><path d="M16.125,101h25.75v18h-25.75Z" fill="#fdb7bc"/><path d="M41.875,101h141.875v18h-141.875Z" fill="#faccfa"/><path d="M0,21h5.75v18h-5.75Z" fill="#011959"/><path d="M5.75,21h2.25v18h-2.25Z" fill="#103f60"/><path d="M8,21h3v18h-3Z" fill="#1b5962"/><path d="M11,21h4.25v18h-4.25Z" fill="#3c6d56"/><path d="M15.25,21h4.875v18h-4.875Z" fill="#687b3e"/><path d="M20.125,21h4.75v18h-4.75Z" fill="#9d892b"/><path d="M24.875,21h5.375v18h-5.375Z" fill="#d29343"/><path d="M30.25,21h8.874999999999993v18h-8.874999999999993Z" fill="#f8a27e"/><path d="M39.12499999999999,21h16.875000000000007v18h-16.875000000000007Z" fill="#fdb7bc"/><path d="M56,21h216.375v18h-216.375Z" fill="#faccfa"/><path d="M0,221h5.250000000000001v18h-5.250000000000001Z" fill="#011959"/><path d="M5.250000000000001,221h1.125v18h-1.125Z" fill="#103f60"/><path d="M6.375000000000001,221h1.3749999999999991v18h-1.3749999999999991Z" fill="#1b5962"/><path d="M7.75,221h0.875v18h-0.875Z" fill="#3c6d56"/><path d="M8.625,221h1.75v18h-1.75Z" fill="#687b3e"/><path d="M10.375,221h1.375v18h-1.375Z" fill="#9d892b"/><path d="M11.75,221h1.125v18h-1.125Z" fill="#d29343"/><path d="M12.875,221h0.375v18h-0.375Z" fill="#f8a27e"/><path d="M13.25,221h0.75v18h-0.75Z" fill="#fdb7bc"/><path d="M14,221h4.25v18h-4.25Z" fill="#faccfa"/><path d="M0,161h1.125v18h-1.125Z" fill="#011959"/><path d="M1.125,161h0.375v18h-0.375Z" fill="#103f60"/><path d="M1.5,161h0.75v18h-0.75Z" fill="#1b5962"/><path d="M2.25,161h1.125v18h-1.125Z" fill="#3c6d56"/><path d="M3.375,161h2.5v18h-2.5Z" fill="#687b3e"/><path d="M5.875,161h3.9999999999999982v18h-3.9999999999999982Z" fill="#9d892b"/><path d="M9.874999999999998,161h4.5000000000000036v18h-4.5000000000000036Z" fill="#d29343"/><path d="M14.375000000000002,161h7.374999999999998v18h-7.374999999999998Z" fill="#f8a27e"/><path d="M21.75,161h19v18h-19Z" fill="#fdb7bc"/><path d="M40.75,161h99.875v18h-99.875Z" fill="#faccfa"/><path d="M0,121h6.5v18h-6.5Z" fill="#011959"/><path d="M6.5,121h1.5v18h-1.5Z" fill="#103f60"/><path d="M8,121h4v18h-4Z" fill="#1b5962"/><path d="M12,121h4.75v18h-4.75Z" fill="#3c6d56"/><path d="M16.75,121h4.875v18h-4.875Z" fill="#687b3e"/><path d="M21.625,121h5v18h-5Z" fill="#9d892b"/><path d="M26.625,121h8.375v18h-8.375Z" fill="#d29343"/><path d="M35,121h7.125v18h-7.125Z" fill="#f8a27e"/><path d="M42.125,121h12.500000000000007v18h-12.500000000000007Z" fill="#fdb7bc"/><path d="M54.62500000000001,121h93.625v18h-93.625Z" fill="#faccfa"/><path d="M0,141h0.375v18h-0.375Z" fill="#011959"/><path d="M0.375,141h0.125v18h-0.125Z" fill="#103f60"/><path d="M0.5,141h0.75v18h-0.75Z" fill="#1b5962"/><path d="M1.25,141h0.375v18h-0.375Z" fill="#3c6d56"/><path d="M1.625,141h1.75v18h-1.75Z" fill="#687b3e"/><path d="M3.375,141h1.375v18h-1.375Z" fill="#9d892b"/><path d="M4.75,141h3.875v18h-3.875Z" fill="#d29343"/><path d="M8.625,141h5.375v18h-5.375Z" fill="#f8a27e"/><path d="M14,141h18.75v18h-18.75Z" fill="#fdb7bc"/><path d="M32.75,141h113.625v18h-113.625Z" fill="#faccfa"/><path d="M0,181h15.625v18h-15.625Z" fill="#011959"/><path d="M15.625,181h2.25v18h-2.25Z" fill="#103f60"/><path d="M17.875,181h4.5v18h-4.5Z" fill="#1b5962"/><path d="M22.375,181h2.375v18h-2.375Z" fill="#3c6d56"/><path d="M24.75,181h2.5v18h-2.5Z" fill="#687b3e"/><path d="M27.25,181h2v18h-2Z" fill="#9d892b"/><path d="M29.25,181h2.75v18h-2.75Z" fill="#d29343"/><path d="M32,181h2.375v18h-2.375Z" fill="#f8a27e"/><path d="M34.375,181h1v18h-1Z" fill="#fdb7bc"/><path d="M35.375,181h3.125v18h-3.125Z" fill="#faccfa"/><path d="M0,201h9.125v18h-9.125Z" fill="#011959"/><path d="M9.125,201h1.5v18h-1.5Z" fill="#103f60"/><path d="M10.625,201h2.1250000000000018v18h-2.1250000000000018Z" fill="#1b5962"/><path d="M12.750000000000002,201h2.1249999999999982v18h-2.1249999999999982Z" fill="#3c6d56"/><path d="M14.875,201h0.625v18h-0.625Z" fill="#687b3e"/><path d="M15.5,201h0.625v18h-0.625Z" fill="#9d892b"/><path d="M16.125,201h1v18h-1Z" fill="#d29343"/><path d="M17.125,201h0.5v18h-0.5Z" fill="#f8a27e"/><path d="M17.625,201h0.375v18h-0.375Z" fill="#fdb7bc"/><path d="M18,201h6.125v18h-6.125Z" fill="#faccfa"/></g><g class="mark-text role-mark layer_1_marks" role="graphics-object" aria-roledescription="text mark container"><text text-anchor="middle" transform="translate(141.5,52)" font-family="sans-serif" font-size="8px" fill="white">91%</text><text text-anchor="middle" transform="translate(153,12)" font-family="sans-serif" font-size="8px" fill="white">91%</text><text text-anchor="middle" transform="translate(47.8125,72)" font-family="sans-serif" font-size="8px" fill="white">20%</text><text text-anchor="middle" transform="translate(140.4375,72)" font-family="sans-serif" font-size="8px" fill="white">67%</text><text text-anchor="middle" transform="translate(39.375,92)" font-family="sans-serif" font-size="8px" fill="white">17%</text><text text-anchor="middle" transform="translate(129.4375,92)" font-family="sans-serif" font-size="8px" fill="white">72%</text><text text-anchor="middle" transform="translate(29,112)" font-family="sans-serif" font-size="8px" fill="white">14%</text><text text-anchor="middle" transform="translate(112.8125,112)" font-family="sans-serif" font-size="8px" fill="white">77%</text><text text-anchor="middle" transform="translate(164.1875,32)" font-family="sans-serif" font-size="8px" fill="white">79%</text><text text-anchor="middle" transform="translate(90.6875,172)" font-family="sans-serif" font-size="8px" fill="white">71%</text><text text-anchor="middle" transform="translate(101.4375,132)" font-family="sans-serif" font-size="8px" fill="white">63%</text><text text-anchor="middle" transform="translate(89.5625,152)" font-family="sans-serif" font-size="8px" fill="white">78%</text></g><g class="mark-group role-legend" role="graphics-symbol" aria-roledescription="legend" aria-label="Symbol legend titled 'explained intensity' for fill color with 10 values: 0.0–0.1, 0.1–0.2, 0.2–0.3, 0.3–0.4, 0.4–0.5, ending with 0.9–1.0"><g transform="translate(318,0)"><path class="background" aria-hidden="true" d="M0,0h100v144h-100Z" pointer-events="none"/><g><g class="mark-group role-legend-entry"><g transform="translate(0,16)"><path class="background" aria-hidden="true" d="M0,0h0v0h0Z" pointer-events="none"/><g><g class="mark-group role-scope" role="graphics-object" aria-roledescription="group mark container"><g transform="translate(0,0)"><path class="background" aria-hidden="true" d="M0,0h49.3642578125v11h-49.3642578125Z" pointer-events="none" opacity="1"/><g><g class="mark-symbol role-legend-symbol" pointer-events="none"><path transform="translate(6,6)" d="M-5,-5h10v10h-10Z" fill="#011959" stroke-width="1.5" opacity="1"/></g><g class="mark-text role-legend-label" pointer-events="none"><text text-anchor="start" transform="translate(16,9)" font-family="sans-serif" font-size="10px" fill="#000" opacity="1">0.0–0.1</text></g></g><path class="foreground" aria-hidden="true" d="" pointer-events="none" display="none"/></g><g transform="translate(0,13)"><path class="background" aria-hidden="true" d="M0,0h49.3642578125v11h-49.3642578125Z" pointer-events="none" opacity="1"/><g><g class="mark-symbol role-legend-symbol" pointer-events="none"><path transform="translate(6,6)" d="M-5,-5h10v10h-10Z" fill="#103f60" stroke-width="1.5" opacity="1"/></g><g class="mark-text role-legend-label" pointer-events="none"><text text-anchor="start" transform="translate(16,9)" font-family="sans-serif" font-size="10px" fill="#000" opacity="1">0.1–0.2</text></g></g><path class="foreground" aria-hidden="true" d="" pointer-events="none" display="none"/></g><g transform="translate(0,26)"><path class="background" aria-hidden="true" d="M0,0h49.3642578125v11h-49.3642578125Z" pointer-events="none" opacity="1"/><g><g class="mark-symbol role-legend-symbol" pointer-events="none"><path transform="translate(6,6)" d="M-5,-5h10v10h-10Z" fill="#1b5962" stroke-width="1.5" opacity="1"/></g><g class="mark-text role-legend-label" pointer-events="none"><text text-anchor="start" transform="translate(16,9)" font-family="sans-serif" font-size="10px" fill="#000" opacity="1">0.2–0.3</text></g></g><path class="foreground" aria-hidden="true" d="" pointer-events="none" display="none"/></g><g transform="translate(0,39)"><path class="background" aria-hidden="true" d="M0,0h49.3642578125v11h-49.3642578125Z" pointer-events="none" opacity="1"/><g><g class="mark-symbol role-legend-symbol" pointer-events="none"><path transform="translate(6,6)" d="M-5,-5h10v10h-10Z" fill="#3c6d56" stroke-width="1.5" opacity="1"/></g><g class="mark-text role-legend-label" pointer-events="none"><text text-anchor="start" transform="translate(16,9)" font-family="sans-serif" font-size="10px" fill="#000" opacity="1">0.3–0.4</text></g></g><path class="foreground" aria-hidden="true" d="" pointer-events="none" display="none"/></g><g transform="translate(0,52)"><path class="background" aria-hidden="true" d="M0,0h49.3642578125v11h-49.3642578125Z" pointer-events="none" opacity="1"/><g><g class="mark-symbol role-legend-symbol" pointer-events="none"><path transform="translate(6,6)" d="M-5,-5h10v10h-10Z" fill="#687b3e" stroke-width="1.5" opacity="1"/></g><g class="mark-text role-legend-label" pointer-events="none"><text text-anchor="start" transform="translate(16,9)" font-family="sans-serif" font-size="10px" fill="#000" opacity="1">0.4–0.5</text></g></g><path class="foreground" aria-hidden="true" d="" pointer-events="none" display="none"/></g><g transform="translate(0,65)"><path class="background" aria-hidden="true" d="M0,0h49.3642578125v11h-49.3642578125Z" pointer-events="none" opacity="1"/><g><g class="mark-symbol role-legend-symbol" pointer-events="none"><path transform="translate(6,6)" d="M-5,-5h10v10h-10Z" fill="#9d892b" stroke-width="1.5" opacity="1"/></g><g class="mark-text role-legend-label" pointer-events="none"><text text-anchor="start" transform="translate(16,9)" font-family="sans-serif" font-size="10px" fill="#000" opacity="1">0.5–0.6</text></g></g><path class="foreground" aria-hidden="true" d="" pointer-events="none" display="none"/></g><g transform="translate(0,78)"><path class="background" aria-hidden="true" d="M0,0h49.3642578125v11h-49.3642578125Z" pointer-events="none" opacity="1"/><g><g class="mark-symbol role-legend-symbol" pointer-events="none"><path transform="translate(6,6)" d="M-5,-5h10v10h-10Z" fill="#d29343" stroke-width="1.5" opacity="1"/></g><g class="mark-text role-legend-label" pointer-events="none"><text text-anchor="start" transform="translate(16,9)" font-family="sans-serif" font-size="10px" fill="#000" opacity="1">0.6–0.7</text></g></g><path class="foreground" aria-hidden="true" d="" pointer-events="none" display="none"/></g><g transform="translate(0,91)"><path class="background" aria-hidden="true" d="M0,0h49.3642578125v11h-49.3642578125Z" pointer-events="none" opacity="1"/><g><g class="mark-symbol role-legend-symbol" pointer-events="none"><path transform="translate(6,6)" d="M-5,-5h10v10h-10Z" fill="#f8a27e" stroke-width="1.5" opacity="1"/></g><g class="mark-text role-legend-label" pointer-events="none"><text text-anchor="start" transform="translate(16,9)" font-family="sans-serif" font-size="10px" fill="#000" opacity="1">0.7–0.8</text></g></g><path class="foreground" aria-hidden="true" d="" pointer-events="none" display="none"/></g><g transform="translate(0,104)"><path class="background" aria-hidden="true" d="M0,0h49.3642578125v11h-49.3642578125Z" pointer-events="none" opacity="1"/><g><g class="mark-symbol role-legend-symbol" pointer-events="none"><path transform="translate(6,6)" d="M-5,-5h10v10h-10Z" fill="#fdb7bc" stroke-width="1.5" opacity="1"/></g><g class="mark-text role-legend-label" pointer-events="none"><text text-anchor="start" transform="translate(16,9)" font-family="sans-serif" font-size="10px" fill="#000" opacity="1">0.8–0.9</text></g></g><path class="foreground" aria-hidden="true" d="" pointer-events="none" display="none"/></g><g transform="translate(0,117)"><path class="background" aria-hidden="true" d="M0,0h49.3642578125v11h-49.3642578125Z" pointer-events="none" opacity="1"/><g><g class="mark-symbol role-legend-symbol" pointer-events="none"><path transform="translate(6,6)" d="M-5,-5h10v10h-10Z" fill="#faccfa" stroke-width="1.5" opacity="1"/></g><g class="mark-text role-legend-label" pointer-events="none"><text text-anchor="start" transform="translate(16,9)" font-family="sans-serif" font-size="10px" fill="#000" opacity="1">0.9–1.0</text></g></g><path class="foreground" aria-hidden="true" d="" pointer-events="none" display="none"/></g></g></g><path class="foreground" aria-hidden="true" d="" pointer-events="none" display="none"/></g></g><g class="mark-text role-legend-title" pointer-events="none"><text text-anchor="start" transform="translate(0,9)" font-family="sans-serif" font-size="11px" font-weight="bold" fill="#000" opacity="1">explained intensity</text></g></g><path class="foreground" aria-hidden="true" d="" pointer-events="none" display="none"/></g></g><g class="mark-group role-title"><g transform="translate(150,-17)"><path class="background" aria-hidden="true" d="M0,0h0v0h0Z" pointer-events="none"/><g><g class="mark-text role-title-text" role="graphics-symbol" aria-roledescription="title" aria-label="Title text 'MSBuddy: explained intensity'" pointer-events="none"><text text-anchor="middle" transform="translate(0,10)" font-family="sans-serif" font-size="13px" font-weight="bold" fill="#000" opacity="1">MSBuddy: explained intensity</text></g></g><path class="foreground" aria-hidden="true" d="" pointer-events="none" display="none"/></g></g></g><path class="foreground" aria-hidden="true" d="" display="none"/></g></g></g></svg>