<svg xmlns="http://www.w3.org/2000/svg" xmlns:xlink="http://www.w3.org/1999/xlink" version="1.1" class="marks" width="534" height="299" viewBox="0 0 534 299"><rect width="534" height="299" fill="white"/><g fill="none" stroke-miterlimit="10" transform="translate(107,22)"><g class="mark-group role-frame root" role="graphics-object" aria-roledescription="group mark container"><g transform="translate(0,0)"><path class="background" aria-hidden="true" d="M0.5,0.5h300v240h-300Z" stroke="#ddd"/><g><g class="mark-group role-axis" aria-hidden="true"><g transform="translate(0.5,240.5)"><path class="background" aria-hidden="true" d="M0,0h0v0h0Z" pointer-events="none"/><g><g class="mark-rule role-axis-grid" pointer-events="none"><line transform="translate(0,0)" x2="0" y2="-240" stroke="#ddd" stroke-width="1" opacity="1"/><line transform="translate(25,0)" x2="0" y2="-240" stroke="#ddd" stroke-width="1" opacity="1"/><line transform="translate(50,0)" x2="0" y2="-240" stroke="#ddd" stroke-width="1" opacity="1"/><line transform="translate(75,0)" x2="0" y2="-240" stroke="#ddd" stroke-width="1" opacity="1"/><line transform="translate(100,0)" x2="0" y2="-240" stroke="#ddd" stroke-width="1" opacity="1"/><line transform="translate(125,0)" x2="0" y2="-240" stroke="#ddd" stroke-width="1" opacity="1"/><line transform="translate(150,0)" x2="0" y2="-240" stroke="#ddd" stroke-width="1" opacity="1"/><line transform="translate(175,0)" x2="0" y2="-240" stroke="#ddd" stroke-width="1" opacity="1"/><line transform="translate(200,0)" x2="0" y2="-240" stroke="#ddd" stroke-width="1" opacity="1"/><line transform="translate(225,0)" x2="0" y2="-240" stroke="#ddd" stroke-width="1" opacity="1"/><line transform="translate(250,0)" x2="0" y2="-240" stroke="#ddd" stroke-width="1" opacity="1"/><line transform="translate(275,0)" x2="0" y2="-240" stroke="#ddd" stroke-width="1" opacity="1"/><line transform="translate(300,0)" x2="0" y2="-240" stroke="#ddd" stroke-width="1" opacity="1"/></g></g><path class="foreground" aria-hidden="true" d="" pointer-events="none" display="none"/></g></g><g class="mark-group role-axis" role="graphics-symbol" aria-roledescription="axis" aria-label="X-axis titled 'Count' for a linear scale with values from 0 to 2,400"><g transform="translate(0.5,240.5)"><path class="background" aria-hidden="true" d="M0,0h0v0h0Z" pointer-events="none"/><g><g class="mark-rule role-axis-tick" pointer-events="none"><line transform="translate(0,0)" x2="0" y2="5" stroke="#888" stroke-width="1" opacity="1"/><line transform="translate(25,0)" x2="0" y2="5" stroke="#888" stroke-width="1" opacity="1"/><line transform="translate(50,0)" x2="0" y2="5" stroke="#888" stroke-width="1" opacity="1"/><line transform="translate(75,0)" x2="0" y2="5" stroke="#888" stroke-width="1" opacity="1"/><line transform="translate(100,0)" x2="0" y2="5" stroke="#888" stroke-width="1" opacity="1"/><line transform="translate(125,0)" x2="0" y2="5" stroke="#888" stroke-width="1" opacity="1"/><line transform="translate(150,0)" x2="0" y2="5" stroke="#888" stroke-width="1" opacity="1"/><line transform="translate(175,0)" x2="0" y2="5" stroke="#888" stroke-width="1" opacity="1"/><line transform="translate(200,0)" x2="0" y2="5" stroke="#888" stroke-width="1" opacity="1"/><line transform="translate(225,0)" x2="0" y2="5" stroke="#888" stroke-width="1" opacity="1"/><line transform="translate(250,0)" x2="0" y2="5" stroke="#888" stroke-width="1" opacity="1"/><line transform="translate(275,0)" x2="0" y2="5" stroke="#888" stroke-width="1" opacity="1"/><line transform="translate(300,0)" x2="0" y2="5" stroke="#888" stroke-width="1" opacity="1"/></g><g class="mark-text role-axis-label" pointer-events="none"><text text-anchor="start" transform="translate(0,15)" font-family="sans-serif" font-size="10px" fill="#000" opacity="1">0</text><text text-anchor="middle" transform="translate(25,15)" font-family="sans-serif" font-size="10px" fill="#000" opacity="0">200</text><text text-anchor="middle" transform="translate(50,15)" font-family="sans-serif" font-size="10px" fill="#000" opacity="1">400</text><text text-anchor="middle" transform="translate(75,15)" font-family="sans-serif" font-size="10px" fill="#000" opacity="0">600</text><text text-anchor="middle" transform="translate(100,15)" font-family="sans-serif" font-size="10px" fill="#000" opacity="1">800</text><text text-anchor="middle" transform="translate(125,15)" font-family="sans-serif" font-size="10px" fill="#000" opacity="0">1,000</text><text text-anchor="middle" transform="translate(150,15)" font-family="sans-serif" font-size="10px" fill="#000" opacity="1">1,200</text><text text-anchor="middle" transform="translate(175,15)" font-family="sans-serif" font-size="10px" fill="#000" opacity="0">1,400</text><text text-anchor="middle" transform="translate(200,15)" font-family="sans-serif" font-size="10px" fill="#000" opacity="1">1,600</text><text text-anchor="middle" transform="translate(225,15)" font-family="sans-serif" font-size="10px" fill="#000" opacity="0">1,800</text><text text-anchor="middle" transform="translate(250,15)" font-family="sans-serif" font-size="10px" fill="#000" opacity="1">2,000</text><text text-anchor="middle" transform="translate(275,15)" font-family="sans-serif" font-size="10px" fill="#000" opacity="0">2,200</text><text text-anchor="end" transform="translate(300,15)" font-family="sans-serif" font-size="10px" fill="#000" opacity="1">2,400</text></g><g class="mark-rule role-axis-domain" pointer-events="none"><line transform="translate(0,0)" x2="300" y2="0" stroke="#888" stroke-width="1" opacity="1"/></g><g class="mark-text role-axis-title" pointer-events="none"><text text-anchor="middle" transform="translate(150,30)" font-family="sans-serif" font-size="11px" font-weight="bold" fill="#000" opacity="1">Count</text></g></g><path class="foreground" aria-hidden="true" d="" pointer-events="none" display="none"/></g></g><g class="mark-group role-axis" role="graphics-symbol" aria-roledescription="axis" aria-label="Y-axis titled 'Group' for a discrete scale with 12 values: cid_[40.0]_positive, cid_[20.0]_positive, cid_[60.0]_positive, ead_[16.0]_positive, ead_[24.0]_positive, ending with ead_[16.0]_negative"><g transform="translate(0.5,0.5)"><path class="background" aria-hidden="true" d="M0,0h0v0h0Z" pointer-events="none"/><g><g class="mark-rule role-axis-tick" pointer-events="none"><line transform="translate(0,10)" x2="-5" y2="0" stroke="#888" stroke-width="1" opacity="1"/><line transform="translate(0,30)" x2="-5" y2="0" stroke="#888" stroke-width="1" opacity="1"/><line transform="translate(0,50)" x2="-5" y2="0" stroke="#888" stroke-width="1" opacity="1"/><line transform="translate(0,70)" x2="-5" y2="0" stroke="#888" stroke-width="1" opacity="1"/><line transform="translate(0,90)" x2="-5" y2="0" stroke="#888" stroke-width="1" opacity="1"/><line transform="translate(0,110)" x2="-5" y2="0" stroke="#888" stroke-width="1" opacity="1"/><line transform="translate(0,130)" x2="-5" y2="0" stroke="#888" stroke-width="1" opacity="1"/><line transform="translate(0,150)" x2="-5" y2="0" stroke="#888" stroke-width="1" opacity="1"/><line transform="translate(0,170)" x2="-5" y2="0" stroke="#888" stroke-width="1" opacity="1"/><line transform="translate(0,190)" x2="-5" y2="0" stroke="#888" stroke-width="1" opacity="1"/><line transform="translate(0,210)" x2="-5" y2="0" stroke="#888" stroke-width="1" opacity="1"/><line transform="translate(0,230)" x2="-5" y2="0" stroke="#888" stroke-width="1" opacity="1"/></g><g class="mark-text role-axis-label" pointer-events="none"><text text-anchor="end" transform="translate(-7,12.5)" font-family="sans-serif" font-size="10px" fill="#000" opacity="1">cid 40.0 positive</text><text text-anchor="end" transform="translate(-7,32.5)" font-family="sans-serif" font-size="10px" fill="#000" opacity="1">cid 20.0 positive</text><text text-anchor="end" transform="translate(-7,52.5)" font-family="sans-serif" font-size="10px" fill="#000" opacity="1">cid 60.0 positive</text><text text-anchor="end" transform="translate(-7,72.5)" font-family="sans-serif" font-size="10px" fill="#000" opacity="1">ead 16.0 positive</text><text text-anchor="end" transform="translate(-7,92.5)" font-family="sans-serif" font-size="10px" fill="#000" opacity="1">ead 24.0 positive</text><text text-anchor="end" transform="translate(-7,112.5)" font-family="sans-serif" font-size="10px" fill="#000" opacity="1">ead 12.0 positive</text><text text-anchor="end" transform="translate(-7,132.5)" font-family="sans-serif" font-size="10px" fill="#000" opacity="1">cid 20.0 negative</text><text text-anchor="end" transform="translate(-7,152.5)" font-family="sans-serif" font-size="10px" fill="#000" opacity="1">cid 40.0 negative</text><text text-anchor="end" transform="translate(-7,172.5)" font-family="sans-serif" font-size="10px" fill="#000" opacity="1">cid 60.0 negative</text><text text-anchor="end" transform="translate(-7,192.5)" font-family="sans-serif" font-size="10px" fill="#000" opacity="1">ead 24.0 negative</text><text text-anchor="end" transform="translate(-7,212.5)" font-family="sans-serif" font-size="10px" fill="#000" opacity="1">ead 12.0 negative</text><text text-anchor="end" transform="translate(-7,232.5)" font-family="sans-serif" font-size="10px" fill="#000" opacity="1">ead 16.0 negative</text></g><g class="mark-rule role-axis-domain" pointer-events="none"><line transform="translate(0,0)" x2="0" y2="240" stroke="#888" stroke-width="1" opacity="1"/></g><g class="mark-text role-axis-title" pointer-events="none"><text text-anchor="middle" transform="translate(-90.51171875,120) rotate(-90) translate(0,-2)" font-family="sans-serif" font-size="11px" font-weight="bold" fill="#000" opacity="1">Group</text></g></g><path class="foreground" aria-hidden="true" d="" pointer-events="none" display="none"/></g></g><g class="mark-rect role-mark layer_0_marks" role="graphics-symbol" aria-roledescription="rect mark container"><path d="M0,41h50.875v18h-50.875Z" fill="#011959"/><path d="M50.875,41h112.375v18h-112.375Z" fill="#103f60"/><path d="M163.25,41h66.5v18h-66.5Z" fill="#1b5962"/><path d="M229.75,41h23.25v18h-23.25Z" fill="#3c6d56"/><path d="M253,41h5.875v18h-5.875Z" fill="#687b3e"/><path d="M258.875,41h1.5v18h-1.5Z" fill="#9d892b"/><path d="M260.375,41h0v18h0Z" fill="#d29343"/><path d="M260.375,41h0v18h0Z" fill="#f8a27e"/><path d="M260.375,41h0v18h0Z" fill="#fdb7bc"/><path d="M260.375,41h0.125v18h-0.125Z" fill="#faccfa"/><path d="M0,1h62.875v18h-62.875Z" fill="#011959"/><path d="M62.875,1h126.125v18h-126.125Z" fill="#103f60"/><path d="M189,1h61.625v18h-61.625Z" fill="#1b5962"/><path d="M250.625,1h23.625v18h-23.625Z" fill="#3c6d56"/><path d="M274.25,1h5.25v18h-5.25Z" fill="#687b3e"/><path d="M279.5,1h1.5v18h-1.5Z" fill="#9d892b"/><path d="M281,1h0v18h0Z" fill="#d29343"/><path d="M281,1h0v18h0Z" fill="#f8a27e"/><path d="M281,1h0v18h0Z" fill="#fdb7bc"/><path d="M281,1h0v18h0Z" fill="#faccfa"/><path d="M0,61h26.75v18h-26.75Z" fill="#011959"/><path d="M26.75,61h74.25v18h-74.25Z" fill="#103f60"/><path d="M101,61h77.375v18h-77.375Z" fill="#1b5962"/><path d="M178.375,61h23.125v18h-23.125Z" fill="#3c6d56"/><path d="M201.5,61h8.5v18h-8.5Z" fill="#687b3e"/><path d="M210,61h1.625v18h-1.625Z" fill="#9d892b"/><path d="M211.625,61h0.125v18h-0.125Z" fill="#d29343"/><path d="M211.75,61h0v18h0Z" fill="#f8a27e"/><path d="M211.75,61h0v18h0Z" fill="#fdb7bc"/><path d="M211.75,61h0v18h0Z" fill="#faccfa"/><path d="M0,81h19.125v18h-19.125Z" fill="#011959"/><path d="M19.125,81h86.75v18h-86.75Z" fill="#103f60"/><path d="M105.875,81h81.5v18h-81.5Z" fill="#1b5962"/><path d="M187.375,81h13.375v18h-13.375Z" fill="#3c6d56"/><path d="M200.75,81h1.75v18h-1.75Z" fill="#687b3e"/><path d="M202.5,81h0.25v18h-0.25Z" fill="#9d892b"/><path d="M202.75,81h0v18h0Z" fill="#d29343"/><path d="M202.75,81h0v18h0Z" fill="#f8a27e"/><path d="M202.75,81h0v18h0Z" fill="#fdb7bc"/><path d="M202.75,81h0v18h0Z" fill="#faccfa"/><path d="M0,101h37.25v18h-37.25Z" fill="#011959"/><path d="M37.25,101h81v18h-81Z" fill="#103f60"/><path d="M118.25,101h45.49999999999997v18h-45.49999999999997Z" fill="#1b5962"/><path d="M163.74999999999997,101h15.375000000000028v18h-15.375000000000028Z" fill="#3c6d56"/><path d="M179.125,101h4.125v18h-4.125Z" fill="#687b3e"/><path d="M183.25,101h0.5v18h-0.5Z" fill="#9d892b"/><path d="M183.75,101h0v18h0Z" fill="#d29343"/><path d="M183.75,101h0v18h0Z" fill="#f8a27e"/><path d="M183.75,101h0v18h0Z" fill="#fdb7bc"/><path d="M183.75,101h0v18h0Z" fill="#faccfa"/><path d="M0,21h183.5v18h-183.5Z" fill="#011959"/><path d="M183.5,21h71.5v18h-71.5Z" fill="#103f60"/><path d="M255,21h13.875v18h-13.875Z" fill="#1b5962"/><path d="M268.875,21h3v18h-3Z" fill="#3c6d56"/><path d="M271.875,21h0.375v18h-0.375Z" fill="#687b3e"/><path d="M272.25,21h0.125v18h-0.125Z" fill="#9d892b"/><path d="M272.375,21h0v18h0Z" fill="#d29343"/><path d="M272.375,21h0v18h0Z" fill="#f8a27e"/><path d="M272.375,21h0v18h0Z" fill="#fdb7bc"/><path d="M272.375,21h0v18h0Z" fill="#faccfa"/><path d="M0,221h17.625v18h-17.625Z" fill="#011959"/><path d="M17.625,221h0.625v18h-0.625Z" fill="#103f60"/><path d="M18.25,221h0v18h0Z" fill="#1b5962"/><path d="M18.25,221h0v18h0Z" fill="#3c6d56"/><path d="M18.25,221h0v18h0Z" fill="#687b3e"/><path d="M18.25,221h0v18h0Z" fill="#9d892b"/><path d="M18.25,221h0v18h0Z" fill="#d29343"/><path d="M18.25,221h0v18h0Z" fill="#f8a27e"/><path d="M18.25,221h0v18h0Z" fill="#fdb7bc"/><path d="M18.25,221h0v18h0Z" fill="#faccfa"/><path d="M0,161h95.625v18h-95.625Z" fill="#011959"/><path d="M95.625,161h35.375v18h-35.375Z" fill="#103f60"/><path d="M131,161h7.875v18h-7.875Z" fill="#1b5962"/><path d="M138.875,161h1.75v18h-1.75Z" fill="#3c6d56"/><path d="M140.625,161h0v18h0Z" fill="#687b3e"/><path d="M140.625,161h0v18h0Z" fill="#9d892b"/><path d="M140.625,161h0v18h0Z" fill="#d29343"/><path d="M140.625,161h0v18h0Z" fill="#f8a27e"/><path d="M140.625,161h0v18h0Z" fill="#fdb7bc"/><path d="M140.625,161h0v18h0Z" fill="#faccfa"/><path d="M0,121h123.25v18h-123.25Z" fill="#011959"/><path d="M123.25,121h23.125v18h-23.125Z" fill="#103f60"/><path d="M146.375,121h1.875v18h-1.875Z" fill="#1b5962"/><path d="M148.25,121h0v18h0Z" fill="#3c6d56"/><path d="M148.25,121h0v18h0Z" fill="#687b3e"/><path d="M148.25,121h0v18h0Z" fill="#9d892b"/><path d="M148.25,121h0v18h0Z" fill="#d29343"/><path d="M148.25,121h0v18h0Z" fill="#f8a27e"/><path d="M148.25,121h0v18h0Z" fill="#fdb7bc"/><path d="M148.25,121h0v18h0Z" fill="#faccfa"/><path d="M0,141h84.74999999999999v18h-84.74999999999999Z" fill="#011959"/><path d="M84.74999999999999,141h50.625000000000014v18h-50.625000000000014Z" fill="#103f60"/><path d="M135.375,141h8.75v18h-8.75Z" fill="#1b5962"/><path d="M144.125,141h1.875v18h-1.875Z" fill="#3c6d56"/><path d="M146,141h0.25v18h-0.25Z" fill="#687b3e"/><path d="M146.25,141h0.125v18h-0.125Z" fill="#9d892b"/><path d="M146.375,141h0v18h0Z" fill="#d29343"/><path d="M146.375,141h0v18h0Z" fill="#f8a27e"/><path d="M146.375,141h0v18h0Z" fill="#fdb7bc"/><path d="M146.375,141h0v18h0Z" fill="#faccfa"/><path d="M0,181h36.75v18h-36.75Z" fill="#011959"/><path d="M36.75,181h1.25v18h-1.25Z" fill="#103f60"/><path d="M38,181h0.25v18h-0.25Z" fill="#1b5962"/><path d="M38.25,181h0.25v18h-0.25Z" fill="#3c6d56"/><path d="M38.5,181h0v18h0Z" fill="#687b3e"/><path d="M38.5,181h0v18h0Z" fill="#9d892b"/><path d="M38.5,181h0v18h0Z" fill="#d29343"/><path d="M38.5,181h0v18h0Z" fill="#f8a27e"/><path d="M38.5,181h0v18h0Z" fill="#fdb7bc"/><path d="M38.5,181h0v18h0Z" fill="#faccfa"/><path d="M0,201h23.75v18h-23.75Z" fill="#011959"/><path d="M23.75,201h0.375v18h-0.375Z" fill="#103f60"/><path d="M24.125,201h0v18h0Z" fill="#1b5962"/><path d="M24.125,201h0v18h0Z" fill="#3c6d56"/><path d="M24.125,201h0v18h0Z" fill="#687b3e"/><path d="M24.125,201h0v18h0Z" fill="#9d892b"/><path d="M24.125,201h0v18h0Z" fill="#d29343"/><path d="M24.125,201h0v18h0Z" fill="#f8a27e"/><path d="M24.125,201h0v18h0Z" fill="#fdb7bc"/><path d="M24.125,201h0v18h0Z" fill="#faccfa"/></g><g class="mark-text role-mark layer_1_marks" role="graphics-object" aria-roledescription="text mark container"><text text-anchor="middle" transform="translate(25.4375,52)" font-family="sans-serif" font-size="8px" fill="white">20%</text><text text-anchor="middle" transform="translate(107.0625,52)" font-family="sans-serif" font-size="8px" fill="white">43%</text><text text-anchor="middle" transform="translate(196.5,52)" font-family="sans-serif" font-size="8px" fill="white">26%</text><text text-anchor="middle" transform="translate(241.375,52)" font-family="sans-serif" font-size="8px" fill="white">9%</text><text text-anchor="middle" transform="translate(31.4375,12)" font-family="sans-serif" font-size="8px" fill="white">22%</text><text text-anchor="middle" transform="translate(125.9375,12)" font-family="sans-serif" font-size="8px" fill="white">45%</text><text text-anchor="middle" transform="translate(219.8125,12)" font-family="sans-serif" font-size="8px" fill="white">22%</text><text text-anchor="middle" transform="translate(262.4375,12)" font-family="sans-serif" font-size="8px" fill="white">8%</text><text text-anchor="middle" transform="translate(13.375,72)" font-family="sans-serif" font-size="8px" fill="white">13%</text><text text-anchor="middle" transform="translate(63.875,72)" font-family="sans-serif" font-size="8px" fill="white">35%</text><text text-anchor="middle" transform="translate(139.6875,72)" font-family="sans-serif" font-size="8px" fill="white">37%</text><text text-anchor="middle" transform="translate(189.93750000000003,72)" font-family="sans-serif" font-size="8px" fill="white">11%</text><text text-anchor="middle" transform="translate(9.5625,92)" font-family="sans-serif" font-size="8px" fill="white">9%</text><text text-anchor="middle" transform="translate(62.5,92)" font-family="sans-serif" font-size="8px" fill="white">43%</text><text text-anchor="middle" transform="translate(146.625,92)" font-family="sans-serif" font-size="8px" fill="white">40%</text><text text-anchor="middle" transform="translate(18.625,112)" font-family="sans-serif" font-size="8px" fill="white">20%</text><text text-anchor="middle" transform="translate(77.75,112)" font-family="sans-serif" font-size="8px" fill="white">44%</text><text text-anchor="middle" transform="translate(141,112)" font-family="sans-serif" font-size="8px" fill="white">25%</text><text text-anchor="middle" transform="translate(91.75,32)" font-family="sans-serif" font-size="8px" fill="white">67%</text><text text-anchor="middle" transform="translate(219.25,32)" font-family="sans-serif" font-size="8px" fill="white">26%</text><text text-anchor="middle" transform="translate(47.8125,172)" font-family="sans-serif" font-size="8px" fill="white">68%</text><text text-anchor="middle" transform="translate(113.3125,172)" font-family="sans-serif" font-size="8px" fill="white">25%</text><text text-anchor="middle" transform="translate(61.625,132)" font-family="sans-serif" font-size="8px" fill="white">83%</text><text text-anchor="middle" transform="translate(134.8125,132)" font-family="sans-serif" font-size="8px" fill="white">16%</text><text text-anchor="middle" transform="translate(42.37499999999999,152)" font-family="sans-serif" font-size="8px" fill="white">58%</text><text text-anchor="middle" transform="translate(110.0625,152)" font-family="sans-serif" font-size="8px" fill="white">35%</text><text text-anchor="middle" transform="translate(18.375,192)" font-family="sans-serif" font-size="8px" fill="white">95%</text><text text-anchor="middle" transform="translate(11.875,212)" font-family="sans-serif" font-size="8px" fill="white">98%</text></g><g class="mark-group role-legend" role="graphics-symbol" aria-roledescription="legend" aria-label="Symbol legend titled 'explained ms2 peak' for fill color with 10 values: 00–06, 07–14, 15–22, 23–30, 31–38, ending with 71–78"><g transform="translate(318,0)"><path class="background" aria-hidden="true" d="M0,0h104v144h-104Z" pointer-events="none"/><g><g class="mark-group role-legend-entry"><g transform="translate(0,16)"><path class="background" aria-hidden="true" d="M0,0h0v0h0Z" pointer-events="none"/><g><g class="mark-group role-scope" role="graphics-object" aria-roledescription="group mark container"><g transform="translate(0,0)"><path class="background" aria-hidden="true" d="M0,0h43.8076171875v11h-43.8076171875Z" pointer-events="none" opacity="1"/><g><g class="mark-symbol role-legend-symbol" pointer-events="none"><path transform="translate(6,6)" d="M-5,-5h10v10h-10Z" fill="#011959" stroke-width="1.5" opacity="1"/></g><g class="mark-text role-legend-label" pointer-events="none"><text text-anchor="start" transform="translate(16,9)" font-family="sans-serif" font-size="10px" fill="#000" opacity="1">00–06</text></g></g><path class="foreground" aria-hidden="true" d="" pointer-events="none" display="none"/></g><g transform="translate(0,13)"><path class="background" aria-hidden="true" d="M0,0h43.8076171875v11h-43.8076171875Z" pointer-events="none" opacity="1"/><g><g class="mark-symbol role-legend-symbol" pointer-events="none"><path transform="translate(6,6)" d="M-5,-5h10v10h-10Z" fill="#103f60" stroke-width="1.5" opacity="1"/></g><g class="mark-text role-legend-label" pointer-events="none"><text text-anchor="start" transform="translate(16,9)" font-family="sans-serif" font-size="10px" fill="#000" opacity="1">07–14</text></g></g><path class="foreground" aria-hidden="true" d="" pointer-events="none" display="none"/></g><g transform="translate(0,26)"><path class="background" aria-hidden="true" d="M0,0h43.8076171875v11h-43.8076171875Z" pointer-events="none" opacity="1"/><g><g class="mark-symbol role-legend-symbol" pointer-events="none"><path transform="translate(6,6)" d="M-5,-5h10v10h-10Z" fill="#1b5962" stroke-width="1.5" opacity="1"/></g><g class="mark-text role-legend-label" pointer-events="none"><text text-anchor="start" transform="translate(16,9)" font-family="sans-serif" font-size="10px" fill="#000" opacity="1">15–22</text></g></g><path class="foreground" aria-hidden="true" d="" pointer-events="none" display="none"/></g><g transform="translate(0,39)"><path class="background" aria-hidden="true" d="M0,0h43.8076171875v11h-43.8076171875Z" pointer-events="none" opacity="1"/><g><g class="mark-symbol role-legend-symbol" pointer-events="none"><path transform="translate(6,6)" d="M-5,-5h10v10h-10Z" fill="#3c6d56" stroke-width="1.5" opacity="1"/></g><g class="mark-text role-legend-label" pointer-events="none"><text text-anchor="start" transform="translate(16,9)" font-family="sans-serif" font-size="10px" fill="#000" opacity="1">23–30</text></g></g><path class="foreground" aria-hidden="true" d="" pointer-events="none" display="none"/></g><g transform="translate(0,52)"><path class="background" aria-hidden="true" d="M0,0h43.8076171875v11h-43.8076171875Z" pointer-events="none" opacity="1"/><g><g class="mark-symbol role-legend-symbol" pointer-events="none"><path transform="translate(6,6)" d="M-5,-5h10v10h-10Z" fill="#687b3e" stroke-width="1.5" opacity="1"/></g><g class="mark-text role-legend-label" pointer-events="none"><text text-anchor="start" transform="translate(16,9)" font-family="sans-serif" font-size="10px" fill="#000" opacity="1">31–38</text></g></g><path class="foreground" aria-hidden="true" d="" pointer-events="none" display="none"/></g><g transform="translate(0,65)"><path class="background" aria-hidden="true" d="M0,0h43.8076171875v11h-43.8076171875Z" pointer-events="none" opacity="1"/><g><g class="mark-symbol role-legend-symbol" pointer-events="none"><path transform="translate(6,6)" d="M-5,-5h10v10h-10Z" fill="#9d892b" stroke-width="1.5" opacity="1"/></g><g class="mark-text role-legend-label" pointer-events="none"><text text-anchor="start" transform="translate(16,9)" font-family="sans-serif" font-size="10px" fill="#000" opacity="1">39–46</text></g></g><path class="foreground" aria-hidden="true" d="" pointer-events="none" display="none"/></g><g transform="translate(0,78)"><path class="background" aria-hidden="true" d="M0,0h43.8076171875v11h-43.8076171875Z" pointer-events="none" opacity="1"/><g><g class="mark-symbol role-legend-symbol" pointer-events="none"><path transform="translate(6,6)" d="M-5,-5h10v10h-10Z" fill="#d29343" stroke-width="1.5" opacity="1"/></g><g class="mark-text role-legend-label" pointer-events="none"><text text-anchor="start" transform="translate(16,9)" font-family="sans-serif" font-size="10px" fill="#000" opacity="1">47–54</text></g></g><path class="foreground" aria-hidden="true" d="" pointer-events="none" display="none"/></g><g transform="translate(0,91)"><path class="background" aria-hidden="true" d="M0,0h43.8076171875v11h-43.8076171875Z" pointer-events="none" opacity="1"/><g><g class="mark-symbol role-legend-symbol" pointer-events="none"><path transform="translate(6,6)" d="M-5,-5h10v10h-10Z" fill="#f8a27e" stroke-width="1.5" opacity="1"/></g><g class="mark-text role-legend-label" pointer-events="none"><text text-anchor="start" transform="translate(16,9)" font-family="sans-serif" font-size="10px" fill="#000" opacity="1">55–62</text></g></g><path class="foreground" aria-hidden="true" d="" pointer-events="none" display="none"/></g><g transform="translate(0,104)"><path class="background" aria-hidden="true" d="M0,0h43.8076171875v11h-43.8076171875Z" pointer-events="none" opacity="1"/><g><g class="mark-symbol role-legend-symbol" pointer-events="none"><path transform="translate(6,6)" d="M-5,-5h10v10h-10Z" fill="#fdb7bc" stroke-width="1.5" opacity="1"/></g><g class="mark-text role-legend-label" pointer-events="none"><text text-anchor="start" transform="translate(16,9)" font-family="sans-serif" font-size="10px" fill="#000" opacity="1">63–70</text></g></g><path class="foreground" aria-hidden="true" d="" pointer-events="none" display="none"/></g><g transform="translate(0,117)"><path class="background" aria-hidden="true" d="M0,0h43.8076171875v11h-43.8076171875Z" pointer-events="none" opacity="1"/><g><g class="mark-symbol role-legend-symbol" pointer-events="none"><path transform="translate(6,6)" d="M-5,-5h10v10h-10Z" fill="#faccfa" stroke-width="1.5" opacity="1"/></g><g class="mark-text role-legend-label" pointer-events="none"><text text-anchor="start" transform="translate(16,9)" font-family="sans-serif" font-size="10px" fill="#000" opacity="1">71–78</text></g></g><path class="foreground" aria-hidden="true" d="" pointer-events="none" display="none"/></g></g></g><path class="foreground" aria-hidden="true" d="" pointer-events="none" display="none"/></g></g><g class="mark-text role-legend-title" pointer-events="none"><text text-anchor="start" transform="translate(0,9)" font-family="sans-serif" font-size="11px" font-weight="bold" fill="#000" opacity="1">explained ms2 peak</text></g></g><path class="foreground" aria-hidden="true" d="" pointer-events="none" display="none"/></g></g><g class="mark-group role-title"><g transform="translate(150,-17)"><path class="background" aria-hidden="true" d="M0,0h0v0h0Z" pointer-events="none"/><g><g class="mark-text role-title-text" role="graphics-symbol" aria-roledescription="title" aria-label="Title text 'MSBuddy: explained ms2 peak'" pointer-events="none"><text text-anchor="middle" transform="translate(0,10)" font-family="sans-serif" font-size="13px" font-weight="bold" fill="#000" opacity="1">MSBuddy: explained ms2 peak</text></g></g><path class="foreground" aria-hidden="true" d="" pointer-events="none" display="none"/></g></g></g><path class="foreground" aria-hidden="true" d="" display="none"/></g></g></g></svg>