<svg xmlns="http://www.w3.org/2000/svg" xmlns:xlink="http://www.w3.org/1999/xlink" version="1.1" class="marks" width="672" height="487" viewBox="0 0 672 487"><g fill="none" stroke-miterlimit="10" transform="translate(216,36)"><g class="mark-group role-frame root" role="graphics-object" aria-roledescription="group mark container"><g transform="translate(0,0)"><path class="background" aria-hidden="true" d="M0,0h450v300h-450Z" stroke="#ddd" stroke-width="0"/><g><g class="mark-group role-axis" aria-hidden="true"><g transform="translate(0.5,300.5)"><path class="background" aria-hidden="true" d="M0,0h0v0h0Z" pointer-events="none"/><g><g class="mark-rule role-axis-grid" pointer-events="none"><line transform="translate(0,0)" x2="0" y2="-300" stroke="#4d4d4d" stroke-opacity="0.5" stroke-width="1" opacity="1"/><line transform="translate(35,0)" x2="0" y2="-300" stroke="#4d4d4d" stroke-opacity="0.5" stroke-width="1" opacity="1"/><line transform="translate(69,0)" x2="0" y2="-300" stroke="#4d4d4d" stroke-opacity="0.5" stroke-width="1" opacity="1"/><line transform="translate(104,0)" x2="0" y2="-300" stroke="#4d4d4d" stroke-opacity="0.5" stroke-width="1" opacity="1"/><line transform="translate(138,0)" x2="0" y2="-300" stroke="#4d4d4d" stroke-opacity="0.5" stroke-width="1" opacity="1"/><line transform="translate(173,0)" x2="0" y2="-300" stroke="#4d4d4d" stroke-opacity="0.5" stroke-width="1" opacity="1"/><line transform="translate(208,0)" x2="0" y2="-300" stroke="#4d4d4d" stroke-opacity="0.5" stroke-width="1" opacity="1"/><line transform="translate(242,0)" x2="0" y2="-300" stroke="#4d4d4d" stroke-opacity="0.5" stroke-width="1" opacity="1"/><line transform="translate(277,0)" x2="0" y2="-300" stroke="#4d4d4d" stroke-opacity="0.5" stroke-width="1" opacity="1"/><line transform="translate(312,0)" x2="0" y2="-300" stroke="#4d4d4d" stroke-opacity="0.5" stroke-width="1" opacity="1"/><line transform="translate(346,0)" x2="0" y2="-300" stroke="#4d4d4d" stroke-opacity="0.5" stroke-width="1" opacity="1"/><line transform="translate(381,0)" x2="0" y2="-300" stroke="#4d4d4d" stroke-opacity="0.5" stroke-width="1" opacity="1"/><line transform="translate(415,0)" x2="0" y2="-300" stroke="#4d4d4d" stroke-opacity="0.5" stroke-width="1" opacity="1"/><line transform="translate(450,0)" x2="0" y2="-300" stroke="#4d4d4d" stroke-opacity="0.5" stroke-width="1" opacity="1"/></g></g><path class="foreground" aria-hidden="true" d="" pointer-events="none" display="none"/></g></g><g class="mark-group role-axis" role="graphics-symbol" aria-roledescription="axis" aria-label="X-axis titled 'Count' for a linear scale with values from 0 to 2,600"><g transform="translate(0.5,300.5)"><path class="background" aria-hidden="true" d="M0,0h0v0h0Z" pointer-events="none"/><g><g class="mark-rule role-axis-tick" pointer-events="none"><line transform="translate(0,0)" x2="0" y2="5" stroke="#888" stroke-width="1" opacity="1"/><line transform="translate(35,0)" x2="0" y2="5" stroke="#888" stroke-width="1" opacity="1"/><line transform="translate(69,0)" x2="0" y2="5" stroke="#888" stroke-width="1" opacity="1"/><line transform="translate(104,0)" x2="0" y2="5" stroke="#888" stroke-width="1" opacity="1"/><line transform="translate(138,0)" x2="0" y2="5" stroke="#888" stroke-width="1" opacity="1"/><line transform="translate(173,0)" x2="0" y2="5" stroke="#888" stroke-width="1" opacity="1"/><line transform="translate(208,0)" x2="0" y2="5" stroke="#888" stroke-width="1" opacity="1"/><line transform="translate(242,0)" x2="0" y2="5" stroke="#888" stroke-width="1" opacity="1"/><line transform="translate(277,0)" x2="0" y2="5" stroke="#888" stroke-width="1" opacity="1"/><line transform="translate(312,0)" x2="0" y2="5" stroke="#888" stroke-width="1" opacity="1"/><line transform="translate(346,0)" x2="0" y2="5" stroke="#888" stroke-width="1" opacity="1"/><line transform="translate(381,0)" x2="0" y2="5" stroke="#888" stroke-width="1" opacity="1"/><line transform="translate(415,0)" x2="0" y2="5" stroke="#888" stroke-width="1" opacity="1"/><line transform="translate(450,0)" x2="0" y2="5" stroke="#888" stroke-width="1" opacity="1"/></g><g class="mark-text role-axis-label" pointer-events="none"><text text-anchor="start" transform="translate(0,24)" font-family="Arial" font-size="22px" fill="#4d4d4d" opacity="1">0</text><text text-anchor="middle" transform="translate(34.61538461538462,24)" font-family="Arial" font-size="22px" fill="#4d4d4d" opacity="0">200</text><text text-anchor="middle" transform="translate(69.23076923076924,24)" font-family="Arial" font-size="22px" fill="#4d4d4d" opacity="1">400</text><text text-anchor="middle" transform="translate(103.84615384615385,24)" font-family="Arial" font-size="22px" fill="#4d4d4d" opacity="0">600</text><text text-anchor="middle" transform="translate(138.46153846153848,24)" font-family="Arial" font-size="22px" fill="#4d4d4d" opacity="1">800</text><text text-anchor="middle" transform="translate(173.0769230769231,24)" font-family="Arial" font-size="22px" fill="#4d4d4d" opacity="0">1,000</text><text text-anchor="middle" transform="translate(207.6923076923077,24)" font-family="Arial" font-size="22px" fill="#4d4d4d" opacity="1">1,200</text><text text-anchor="middle" transform="translate(242.3076923076923,24)" font-family="Arial" font-size="22px" fill="#4d4d4d" opacity="0">1,400</text><text text-anchor="middle" transform="translate(276.92307692307696,24)" font-family="Arial" font-size="22px" fill="#4d4d4d" opacity="1">1,600</text><text text-anchor="middle" transform="translate(311.53846153846155,24)" font-family="Arial" font-size="22px" fill="#4d4d4d" opacity="0">1,800</text><text text-anchor="middle" transform="translate(346.1538461538462,24)" font-family="Arial" font-size="22px" fill="#4d4d4d" opacity="1">2,000</text><text text-anchor="middle" transform="translate(380.7692307692308,24)" font-family="Arial" font-size="22px" fill="#4d4d4d" opacity="0">2,200</text><text text-anchor="middle" transform="translate(415.3846153846154,24)" font-family="Arial" font-size="22px" fill="#4d4d4d" opacity="1">2,400</text><text text-anchor="end" transform="translate(450,24)" font-family="Arial" font-size="22px" fill="#4d4d4d" opacity="0">2,600</text></g><g class="mark-rule role-axis-domain" pointer-events="none"><line transform="translate(0,0)" x2="450" y2="0" stroke="#888" stroke-width="1" opacity="1"/></g><g class="mark-text role-axis-title" pointer-events="none"><text text-anchor="middle" transform="translate(225,53)" font-family="Arial" font-size="26px" font-weight="bold" fill="#4d4d4d" opacity="1">Count</text></g></g><path class="foreground" aria-hidden="true" d="" pointer-events="none" display="none"/></g></g><g class="mark-group role-axis" role="graphics-symbol" aria-roledescription="axis" aria-label="Y-axis titled 'Group' for a discrete scale with 12 values: cid_[20.0]_positive, cid_[40.0]_positive, cid_[60.0]_positive, ead_[12.0]_positive, ead_[16.0]_positive, ending with ead_[24.0]_negative"><g transform="translate(0.5,0.5)"><path class="background" aria-hidden="true" d="M0,0h0v0h0Z" pointer-events="none"/><g><g class="mark-text role-axis-label" pointer-events="none"><text text-anchor="end" transform="translate(-6,19)" font-family="Arial" font-size="22px" fill="#4d4d4d" opacity="1">cid 20.0 positive</text><text text-anchor="end" transform="translate(-6,44)" font-family="Arial" font-size="22px" fill="#4d4d4d" opacity="1">cid 40.0 positive</text><text text-anchor="end" transform="translate(-6,69)" font-family="Arial" font-size="22px" fill="#4d4d4d" opacity="1">cid 60.0 positive</text><text text-anchor="end" transform="translate(-6,94)" font-family="Arial" font-size="22px" fill="#4d4d4d" opacity="1">ead 12.0 positive</text><text text-anchor="end" transform="translate(-6,119)" font-family="Arial" font-size="22px" fill="#4d4d4d" opacity="1">ead 16.0 positive</text><text text-anchor="end" transform="translate(-6,144)" font-family="Arial" font-size="22px" fill="#4d4d4d" opacity="1">ead 24.0 positive</text><text text-anchor="end" transform="translate(-6,169)" font-family="Arial" font-size="22px" fill="#4d4d4d" opacity="1">cid 20.0 negative</text><text text-anchor="end" transform="translate(-6,194)" font-family="Arial" font-size="22px" fill="#4d4d4d" opacity="1">cid 40.0 negative</text><text text-anchor="end" transform="translate(-6,219)" font-family="Arial" font-size="22px" fill="#4d4d4d" opacity="1">cid 60.0 negative</text><text text-anchor="end" transform="translate(-6,244)" font-family="Arial" font-size="22px" fill="#4d4d4d" opacity="1">ead 12.0 negative</text><text text-anchor="end" transform="translate(-6,269)" font-family="Arial" font-size="22px" fill="#4d4d4d" opacity="1">ead 16.0 negative</text><text text-anchor="end" transform="translate(-6,294)" font-family="Arial" font-size="22px" fill="#4d4d4d" opacity="1">ead 24.0 negative</text></g><g class="mark-text role-axis-title" pointer-events="none"><text text-anchor="middle" transform="translate(-184.92578125,150) rotate(-90) translate(0,-5)" font-family="Arial" font-size="26px" font-weight="bold" fill="#4d4d4d" opacity="1">Group</text></g></g><path class="foreground" aria-hidden="true" d="" pointer-events="none" display="none"/></g></g><g class="mark-text role-mark layer_0_marks" role="graphics-object" aria-roledescription="text mark container"><text text-anchor="start" transform="translate(-200,-2)" font-family="Arial" font-size="36px" font-weight="bold" fill="#4d4d4d"/></g><g class="mark-text role-mark layer_1_marks" role="graphics-object" aria-roledescription="text mark container"><text text-anchor="middle" transform="translate(225,-7)" font-family="Arial" font-size="28px" font-weight="bold" fill="#4d4d4d">Formula identification</text></g><g class="mark-rect role-mark layer_2_marks" role="graphics-symbol" aria-roledescription="rect mark container"><path d="M0,151.25h205.6153846153846v22.5h-205.6153846153846Z" fill="#4477AA" stroke="#4d4d4d" stroke-width="1"/><path d="M205.6153846153846,151.25h19.730769230769226v22.5h-19.730769230769226Z" fill="#DDAA33" stroke="#4d4d4d" stroke-width="1"/><path d="M225.34615384615384,151.25h0v22.5h0Z" fill="#BB5566" stroke="#4d4d4d" stroke-width="1"/><path d="M0,1.25h379.2115384615385v22.5h-379.2115384615385Z" fill="#4477AA" stroke="#4d4d4d" stroke-width="1"/><path d="M379.2115384615385,1.25h37.557692307692264v22.5h-37.557692307692264Z" fill="#DDAA33" stroke="#4d4d4d" stroke-width="1"/><path d="M416.7692307692308,1.25h0v22.5h0Z" fill="#BB5566" stroke="#4d4d4d" stroke-width="1"/><path d="M0,176.25h202.67307692307693v22.5h-202.67307692307693Z" fill="#4477AA" stroke="#4d4d4d" stroke-width="1"/><path d="M202.67307692307693,176.25h25.09615384615384v22.5h-25.09615384615384Z" fill="#DDAA33" stroke="#4d4d4d" stroke-width="1"/><path d="M227.76923076923077,176.25h0v22.5h0Z" fill="#BB5566" stroke="#4d4d4d" stroke-width="1"/><path d="M0,26.25h389.07692307692304v22.5h-389.07692307692304Z" fill="#4477AA" stroke="#4d4d4d" stroke-width="1"/><path d="M389.07692307692304,26.25h52.78846153846155v22.5h-52.78846153846155Z" fill="#DDAA33" stroke="#4d4d4d" stroke-width="1"/><path d="M441.8653846153846,26.25h0v22.5h0Z" fill="#BB5566" stroke="#4d4d4d" stroke-width="1"/><path d="M0,201.25h194.71153846153848v22.5h-194.71153846153848Z" fill="#4477AA" stroke="#4d4d4d" stroke-width="1"/><path d="M194.71153846153848,201.25h24.576923076923066v22.5h-24.576923076923066Z" fill="#DDAA33" stroke="#4d4d4d" stroke-width="1"/><path d="M219.28846153846155,201.25h0v22.5h0Z" fill="#BB5566" stroke="#4d4d4d" stroke-width="1"/><path d="M0,51.25h360.6923076923077v22.5h-360.6923076923077Z" fill="#4477AA" stroke="#4d4d4d" stroke-width="1"/><path d="M360.6923076923077,51.25h55.55769230769232v22.5h-55.55769230769232Z" fill="#DDAA33" stroke="#4d4d4d" stroke-width="1"/><path d="M416.25,51.25h0v22.5h0Z" fill="#BB5566" stroke="#4d4d4d" stroke-width="1"/><path d="M0,226.25h33.92307692307692v22.5h-33.92307692307692Z" fill="#4477AA" stroke="#4d4d4d" stroke-width="1"/><path d="M33.92307692307692,226.25h2.423076923076927v22.5h-2.423076923076927Z" fill="#DDAA33" stroke="#4d4d4d" stroke-width="1"/><path d="M36.34615384615385,226.25h0v22.5h0Z" fill="#BB5566" stroke="#4d4d4d" stroke-width="1"/><path d="M0,76.25h254.9423076923077v22.5h-254.9423076923077Z" fill="#4477AA" stroke="#4d4d4d" stroke-width="1"/><path d="M254.9423076923077,76.25h32.88461538461533v22.5h-32.88461538461533Z" fill="#DDAA33" stroke="#4d4d4d" stroke-width="1"/><path d="M287.82692307692304,76.25h0v22.5h0Z" fill="#BB5566" stroke="#4d4d4d" stroke-width="1"/><path d="M0,251.25h25.615384615384617v22.5h-25.615384615384617Z" fill="#4477AA" stroke="#4d4d4d" stroke-width="1"/><path d="M25.615384615384617,251.25h2.42307692307692v22.5h-2.42307692307692Z" fill="#DDAA33" stroke="#4d4d4d" stroke-width="1"/><path d="M28.038461538461537,251.25h0v22.5h0Z" fill="#BB5566" stroke="#4d4d4d" stroke-width="1"/><path d="M0,101.25h293.71153846153845v22.5h-293.71153846153845Z" fill="#4477AA" stroke="#4d4d4d" stroke-width="1"/><path d="M293.71153846153845,101.25h30.63461538461536v22.5h-30.63461538461536Z" fill="#DDAA33" stroke="#4d4d4d" stroke-width="1"/><path d="M324.3461538461538,101.25h0v22.5h0Z" fill="#BB5566" stroke="#4d4d4d" stroke-width="1"/><path d="M0,276.25h53.30769230769231v22.5h-53.30769230769231Z" fill="#4477AA" stroke="#4d4d4d" stroke-width="1"/><path d="M53.30769230769231,276.25h4.153846153846153v22.5h-4.153846153846153Z" fill="#DDAA33" stroke="#4d4d4d" stroke-width="1"/><path d="M57.46153846153846,276.25h0v22.5h0Z" fill="#BB5566" stroke="#4d4d4d" stroke-width="1"/><path d="M0,126.25h281.07692307692304v22.5h-281.07692307692304Z" fill="#4477AA" stroke="#4d4d4d" stroke-width="1"/><path d="M281.07692307692304,126.25h22.673076923076962v22.5h-22.673076923076962Z" fill="#DDAA33" stroke="#4d4d4d" stroke-width="1"/><path d="M303.75,126.25h0v22.5h0Z" fill="#BB5566" stroke="#4d4d4d" stroke-width="1"/></g><g class="mark-text role-mark layer_3_marks" role="graphics-object" aria-roledescription="text mark container"><text text-anchor="middle" transform="translate(102.8076923076923,168.5)" font-family="Arial" font-size="20px" fill="#4d4d4d">91%</text><text text-anchor="middle" transform="translate(189.60576923076925,18.5)" font-family="Arial" font-size="20px" fill="#4d4d4d">91%</text><text text-anchor="middle" transform="translate(101.33653846153847,193.5)" font-family="Arial" font-size="20px" fill="#4d4d4d">89%</text><text text-anchor="middle" transform="translate(194.53846153846152,43.5)" font-family="Arial" font-size="20px" fill="#4d4d4d">88%</text><text text-anchor="middle" transform="translate(415.4711538461538,43.5)" font-family="Arial" font-size="20px" fill="#4d4d4d">12%</text><text text-anchor="middle" transform="translate(97.35576923076924,218.5)" font-family="Arial" font-size="20px" fill="#4d4d4d">89%</text><text text-anchor="middle" transform="translate(180.34615384615384,68.5)" font-family="Arial" font-size="20px" fill="#4d4d4d">87%</text><text text-anchor="middle" transform="translate(388.47115384615387,68.5)" font-family="Arial" font-size="20px" fill="#4d4d4d">13%</text><text text-anchor="middle" transform="translate(127.47115384615385,93.5)" font-family="Arial" font-size="20px" fill="#4d4d4d">89%</text><text text-anchor="middle" transform="translate(146.85576923076923,118.5)" font-family="Arial" font-size="20px" fill="#4d4d4d">91%</text><text text-anchor="middle" transform="translate(26.653846153846153,293.5)" font-family="Arial" font-size="20px" fill="#4d4d4d">93%</text><text text-anchor="middle" transform="translate(140.53846153846152,143.5)" font-family="Arial" font-size="20px" fill="#4d4d4d">93%</text></g><g class="mark-group role-legend" role="graphics-symbol" aria-roledescription="legend" aria-label="Symbol legend for fill color with 3 values: Formula found, correct, Formula found, incorrect, Formula not found"><g transform="translate(0,376)"><path class="background" aria-hidden="true" d="M0,0h265v70h-265Z" pointer-events="none"/><g><g class="mark-group role-legend-entry"><g transform="translate(0,0)"><path class="background" aria-hidden="true" d="M0,0h0v0h0Z" pointer-events="none"/><g><g class="mark-group role-scope" role="graphics-object" aria-roledescription="group mark container"><g transform="translate(0,0)"><path class="background" aria-hidden="true" d="M0,0h264.43359375v22h-264.43359375Z" pointer-events="none" opacity="1"/><g><g class="mark-symbol role-legend-symbol" pointer-events="none"><path transform="translate(11,11)" d="M-5,-5h10v10h-10Z" fill="#4477AA" stroke="#4d4d4d" stroke-width="1.5" opacity="1"/></g><g class="mark-text role-legend-label" pointer-events="none"><text text-anchor="start" transform="translate(26,18)" font-family="Arial" font-size="22px" fill="#4d4d4d" opacity="1">Formula found, correct</text></g></g><path class="foreground" aria-hidden="true" d="" pointer-events="none" display="none"/></g><g transform="translate(0,24)"><path class="background" aria-hidden="true" d="M0,0h264.43359375v22h-264.43359375Z" pointer-events="none" opacity="1"/><g><g class="mark-symbol role-legend-symbol" pointer-events="none"><path transform="translate(11,11)" d="M-5,-5h10v10h-10Z" fill="#DDAA33" stroke="#4d4d4d" stroke-width="1.5" opacity="1"/></g><g class="mark-text role-legend-label" pointer-events="none"><text text-anchor="start" transform="translate(26,18)" font-family="Arial" font-size="22px" fill="#4d4d4d" opacity="1">Formula found, incorrect</text></g></g><path class="foreground" aria-hidden="true" d="" pointer-events="none" display="none"/></g><g transform="translate(0,48)"><path class="background" aria-hidden="true" d="M0,0h264.43359375v22h-264.43359375Z" pointer-events="none" opacity="1"/><g><g class="mark-symbol role-legend-symbol" pointer-events="none"><path transform="translate(11,11)" d="M-5,-5h10v10h-10Z" fill="#BB5566" stroke="#4d4d4d" stroke-width="1.5" opacity="1"/></g><g class="mark-text role-legend-label" pointer-events="none"><text text-anchor="start" transform="translate(26,18)" font-family="Arial" font-size="22px" fill="#4d4d4d" opacity="1">Formula not found</text></g></g><path class="foreground" aria-hidden="true" d="" pointer-events="none" display="none"/></g></g></g><path class="foreground" aria-hidden="true" d="" pointer-events="none" display="none"/></g></g></g><path class="foreground" aria-hidden="true" d="" pointer-events="none" display="none"/></g></g></g><path class="foreground" aria-hidden="true" d="" display="none" stroke="#ddd" stroke-width="0"/></g></g></g></svg>
