<svg xmlns="http://www.w3.org/2000/svg" xmlns:xlink="http://www.w3.org/1999/xlink" version="1.1" class="marks" width="955" height="808" viewBox="0 0 955 808"><g fill="none" stroke-miterlimit="10" transform="translate(216,36)"><g class="mark-group role-frame root" role="graphics-object" aria-roledescription="group mark container"><g transform="translate(0,0)"><path class="background" aria-hidden="true" d="M0,0h450v0h-450Z"/><g><g class="mark-group role-scope concat_0_group" role="graphics-object" aria-roledescription="group mark container"><g transform="translate(0,0)"><path class="background" aria-hidden="true" d="M0,0h450v300h-450Z" stroke="#ddd" stroke-width="0"/><g><g class="mark-group role-axis" aria-hidden="true"><g transform="translate(0.5,300.5)"><path class="background" aria-hidden="true" d="M0,0h0v0h0Z" pointer-events="none"/><g><g class="mark-rule role-axis-grid" pointer-events="none"><line transform="translate(0,0)" x2="0" y2="-300" stroke="#4d4d4d" stroke-opacity="0.5" stroke-width="1" opacity="1"/><line transform="translate(35,0)" x2="0" y2="-300" stroke="#4d4d4d" stroke-opacity="0.5" stroke-width="1" opacity="1"/><line transform="translate(69,0)" x2="0" y2="-300" stroke="#4d4d4d" stroke-opacity="0.5" stroke-width="1" opacity="1"/><line transform="translate(104,0)" x2="0" y2="-300" stroke="#4d4d4d" stroke-opacity="0.5" stroke-width="1" opacity="1"/><line transform="translate(138,0)" x2="0" y2="-300" stroke="#4d4d4d" stroke-opacity="0.5" stroke-width="1" opacity="1"/><line transform="translate(173,0)" x2="0" y2="-300" stroke="#4d4d4d" stroke-opacity="0.5" stroke-width="1" opacity="1"/><line transform="translate(208,0)" x2="0" y2="-300" stroke="#4d4d4d" stroke-opacity="0.5" stroke-width="1" opacity="1"/><line transform="translate(242,0)" x2="0" y2="-300" stroke="#4d4d4d" stroke-opacity="0.5" stroke-width="1" opacity="1"/><line transform="translate(277,0)" x2="0" y2="-300" stroke="#4d4d4d" stroke-opacity="0.5" stroke-width="1" opacity="1"/><line transform="translate(312,0)" x2="0" y2="-300" stroke="#4d4d4d" stroke-opacity="0.5" stroke-width="1" opacity="1"/><line transform="translate(346,0)" x2="0" y2="-300" stroke="#4d4d4d" stroke-opacity="0.5" stroke-width="1" opacity="1"/><line transform="translate(381,0)" x2="0" y2="-300" stroke="#4d4d4d" stroke-opacity="0.5" stroke-width="1" opacity="1"/><line transform="translate(415,0)" x2="0" y2="-300" stroke="#4d4d4d" stroke-opacity="0.5" stroke-width="1" opacity="1"/><line transform="translate(450,0)" x2="0" y2="-300" stroke="#4d4d4d" stroke-opacity="0.5" stroke-width="1" opacity="1"/></g></g><path class="foreground" aria-hidden="true" d="" pointer-events="none" display="none"/></g></g><g class="mark-group role-axis" role="graphics-symbol" aria-roledescription="axis" aria-label="X-axis titled 'Count' for a linear scale with values from 0 to 2,600"><g transform="translate(0.5,300.5)"><path class="background" aria-hidden="true" d="M0,0h0v0h0Z" pointer-events="none"/><g><g class="mark-rule role-axis-tick" pointer-events="none"><line transform="translate(0,0)" x2="0" y2="5" stroke="#888" stroke-width="1" opacity="1"/><line transform="translate(35,0)" x2="0" y2="5" stroke="#888" stroke-width="1" opacity="1"/><line transform="translate(69,0)" x2="0" y2="5" stroke="#888" stroke-width="1" opacity="1"/><line transform="translate(104,0)" x2="0" y2="5" stroke="#888" stroke-width="1" opacity="1"/><line transform="translate(138,0)" x2="0" y2="5" stroke="#888" stroke-width="1" opacity="1"/><line transform="translate(173,0)" x2="0" y2="5" stroke="#888" stroke-width="1" opacity="1"/><line transform="translate(208,0)" x2="0" y2="5" stroke="#888" stroke-width="1" opacity="1"/><line transform="translate(242,0)" x2="0" y2="5" stroke="#888" stroke-width="1" opacity="1"/><line transform="translate(277,0)" x2="0" y2="5" stroke="#888" stroke-width="1" opacity="1"/><line transform="translate(312,0)" x2="0" y2="5" stroke="#888" stroke-width="1" opacity="1"/><line transform="translate(346,0)" x2="0" y2="5" stroke="#888" stroke-width="1" opacity="1"/><line transform="translate(381,0)" x2="0" y2="5" stroke="#888" stroke-width="1" opacity="1"/><line transform="translate(415,0)" x2="0" y2="5" stroke="#888" stroke-width="1" opacity="1"/><line transform="translate(450,0)" x2="0" y2="5" stroke="#888" stroke-width="1" opacity="1"/></g><g class="mark-text role-axis-label" pointer-events="none"><text text-anchor="start" transform="translate(0,24)" font-family="Arial" font-size="22px" fill="#4d4d4d" opacity="1">0</text><text text-anchor="middle" transform="translate(34.61538461538462,24)" font-family="Arial" font-size="22px" fill="#4d4d4d" opacity="0">200</text><text text-anchor="middle" transform="translate(69.23076923076924,24)" font-family="Arial" font-size="22px" fill="#4d4d4d" opacity="1">400</text><text text-anchor="middle" transform="translate(103.84615384615385,24)" font-family="Arial" font-size="22px" fill="#4d4d4d" opacity="0">600</text><text text-anchor="middle" transform="translate(138.46153846153848,24)" font-family="Arial" font-size="22px" fill="#4d4d4d" opacity="1">800</text><text text-anchor="middle" transform="translate(173.0769230769231,24)" font-family="Arial" font-size="22px" fill="#4d4d4d" opacity="0">1,000</text><text text-anchor="middle" transform="translate(207.6923076923077,24)" font-family="Arial" font-size="22px" fill="#4d4d4d" opacity="1">1,200</text><text text-anchor="middle" transform="translate(242.3076923076923,24)" font-family="Arial" font-size="22px" fill="#4d4d4d" opacity="0">1,400</text><text text-anchor="middle" transform="translate(276.92307692307696,24)" font-family="Arial" font-size="22px" fill="#4d4d4d" opacity="1">1,600</text><text text-anchor="middle" transform="translate(311.53846153846155,24)" font-family="Arial" font-size="22px" fill="#4d4d4d" opacity="0">1,800</text><text text-anchor="middle" transform="translate(346.1538461538462,24)" font-family="Arial" font-size="22px" fill="#4d4d4d" opacity="1">2,000</text><text text-anchor="middle" transform="translate(380.7692307692308,24)" font-family="Arial" font-size="22px" fill="#4d4d4d" opacity="0">2,200</text><text text-anchor="middle" transform="translate(415.3846153846154,24)" font-family="Arial" font-size="22px" fill="#4d4d4d" opacity="1">2,400</text><text text-anchor="end" transform="translate(450,24)" font-family="Arial" font-size="22px" fill="#4d4d4d" opacity="0">2,600</text></g><g class="mark-rule role-axis-domain" pointer-events="none"><line transform="translate(0,0)" x2="450" y2="0" stroke="#888" stroke-width="1" opacity="1"/></g><g class="mark-text role-axis-title" pointer-events="none"><text text-anchor="middle" transform="translate(225,53)" font-family="Arial" font-size="26px" font-weight="bold" fill="#4d4d4d" opacity="1">Count</text></g></g><path class="foreground" aria-hidden="true" d="" pointer-events="none" display="none"/></g></g><g class="mark-group role-axis" role="graphics-symbol" aria-roledescription="axis" aria-label="Y-axis titled 'Group' for a discrete scale with 12 values: cid_[20.0]_positive, cid_[40.0]_positive, cid_[60.0]_positive, ead_[12.0]_positive, ead_[16.0]_positive, ending with ead_[24.0]_negative"><g transform="translate(0.5,0.5)"><path class="background" aria-hidden="true" d="M0,0h0v0h0Z" pointer-events="none"/><g><g class="mark-text role-axis-label" pointer-events="none"><text text-anchor="end" transform="translate(-6,19)" font-family="Arial" font-size="22px" fill="#4d4d4d" opacity="1">cid 20.0 positive</text><text text-anchor="end" transform="translate(-6,44)" font-family="Arial" font-size="22px" fill="#4d4d4d" opacity="1">cid 40.0 positive</text><text text-anchor="end" transform="translate(-6,69)" font-family="Arial" font-size="22px" fill="#4d4d4d" opacity="1">cid 60.0 positive</text><text text-anchor="end" transform="translate(-6,94)" font-family="Arial" font-size="22px" fill="#4d4d4d" opacity="1">ead 12.0 positive</text><text text-anchor="end" transform="translate(-6,119)" font-family="Arial" font-size="22px" fill="#4d4d4d" opacity="1">ead 16.0 positive</text><text text-anchor="end" transform="translate(-6,144)" font-family="Arial" font-size="22px" fill="#4d4d4d" opacity="1">ead 24.0 positive</text><text text-anchor="end" transform="translate(-6,169)" font-family="Arial" font-size="22px" fill="#4d4d4d" opacity="1">cid 20.0 negative</text><text text-anchor="end" transform="translate(-6,194)" font-family="Arial" font-size="22px" fill="#4d4d4d" opacity="1">cid 40.0 negative</text><text text-anchor="end" transform="translate(-6,219)" font-family="Arial" font-size="22px" fill="#4d4d4d" opacity="1">cid 60.0 negative</text><text text-anchor="end" transform="translate(-6,244)" font-family="Arial" font-size="22px" fill="#4d4d4d" opacity="1">ead 12.0 negative</text><text text-anchor="end" transform="translate(-6,269)" font-family="Arial" font-size="22px" fill="#4d4d4d" opacity="1">ead 16.0 negative</text><text text-anchor="end" transform="translate(-6,294)" font-family="Arial" font-size="22px" fill="#4d4d4d" opacity="1">ead 24.0 negative</text></g><g class="mark-text role-axis-title" pointer-events="none"><text text-anchor="middle" transform="translate(-184.92578125,150) rotate(-90) translate(0,-5)" font-family="Arial" font-size="26px" font-weight="bold" fill="#4d4d4d" opacity="1">Group</text></g></g><path class="foreground" aria-hidden="true" d="" pointer-events="none" display="none"/></g></g><g class="mark-text role-mark concat_0_layer_0_marks" role="graphics-object" aria-roledescription="text mark container"><text text-anchor="start" transform="translate(-200,-2)" font-family="Arial" font-size="36px" font-weight="bold" fill="#4d4d4d">A</text></g><g class="mark-text role-mark concat_0_layer_1_marks" role="graphics-object" aria-roledescription="text mark container"><text text-anchor="middle" transform="translate(225,-7)" font-family="Arial" font-size="28px" font-weight="bold" fill="#4d4d4d">Formula identification</text></g><g class="mark-rect role-mark concat_0_layer_2_marks" role="graphics-symbol" aria-roledescription="rect mark container"><path d="M0,151.25h205.6153846153846v22.5h-205.6153846153846Z" fill="#4477AA" stroke="white" stroke-width="1"/><path d="M205.6153846153846,151.25h19.730769230769226v22.5h-19.730769230769226Z" fill="#DDAA33" stroke="white" stroke-width="1"/><path d="M225.34615384615384,151.25h0v22.5h0Z" fill="#BB5566" stroke="white" stroke-width="1"/><path d="M0,1.25h379.2115384615385v22.5h-379.2115384615385Z" fill="#4477AA" stroke="white" stroke-width="1"/><path d="M379.2115384615385,1.25h37.557692307692264v22.5h-37.557692307692264Z" fill="#DDAA33" stroke="white" stroke-width="1"/><path d="M416.7692307692308,1.25h0v22.5h0Z" fill="#BB5566" stroke="white" stroke-width="1"/><path d="M0,176.25h202.67307692307693v22.5h-202.67307692307693Z" fill="#4477AA" stroke="white" stroke-width="1"/><path d="M202.67307692307693,176.25h25.09615384615384v22.5h-25.09615384615384Z" fill="#DDAA33" stroke="white" stroke-width="1"/><path d="M227.76923076923077,176.25h0v22.5h0Z" fill="#BB5566" stroke="white" stroke-width="1"/><path d="M0,26.25h389.07692307692304v22.5h-389.07692307692304Z" fill="#4477AA" stroke="white" stroke-width="1"/><path d="M389.07692307692304,26.25h52.78846153846155v22.5h-52.78846153846155Z" fill="#DDAA33" stroke="white" stroke-width="1"/><path d="M441.8653846153846,26.25h0v22.5h0Z" fill="#BB5566" stroke="white" stroke-width="1"/><path d="M0,201.25h194.71153846153848v22.5h-194.71153846153848Z" fill="#4477AA" stroke="white" stroke-width="1"/><path d="M194.71153846153848,201.25h24.576923076923066v22.5h-24.576923076923066Z" fill="#DDAA33" stroke="white" stroke-width="1"/><path d="M219.28846153846155,201.25h0v22.5h0Z" fill="#BB5566" stroke="white" stroke-width="1"/><path d="M0,51.25h360.6923076923077v22.5h-360.6923076923077Z" fill="#4477AA" stroke="white" stroke-width="1"/><path d="M360.6923076923077,51.25h55.55769230769232v22.5h-55.55769230769232Z" fill="#DDAA33" stroke="white" stroke-width="1"/><path d="M416.25,51.25h0v22.5h0Z" fill="#BB5566" stroke="white" stroke-width="1"/><path d="M0,226.25h33.92307692307692v22.5h-33.92307692307692Z" fill="#4477AA" stroke="white" stroke-width="1"/><path d="M33.92307692307692,226.25h2.423076923076927v22.5h-2.423076923076927Z" fill="#DDAA33" stroke="white" stroke-width="1"/><path d="M36.34615384615385,226.25h0v22.5h0Z" fill="#BB5566" stroke="white" stroke-width="1"/><path d="M0,76.25h254.9423076923077v22.5h-254.9423076923077Z" fill="#4477AA" stroke="white" stroke-width="1"/><path d="M254.9423076923077,76.25h32.88461538461533v22.5h-32.88461538461533Z" fill="#DDAA33" stroke="white" stroke-width="1"/><path d="M287.82692307692304,76.25h0v22.5h0Z" fill="#BB5566" stroke="white" stroke-width="1"/><path d="M0,251.25h25.615384615384617v22.5h-25.615384615384617Z" fill="#4477AA" stroke="white" stroke-width="1"/><path d="M25.615384615384617,251.25h2.42307692307692v22.5h-2.42307692307692Z" fill="#DDAA33" stroke="white" stroke-width="1"/><path d="M28.038461538461537,251.25h0v22.5h0Z" fill="#BB5566" stroke="white" stroke-width="1"/><path d="M0,101.25h293.71153846153845v22.5h-293.71153846153845Z" fill="#4477AA" stroke="white" stroke-width="1"/><path d="M293.71153846153845,101.25h30.63461538461536v22.5h-30.63461538461536Z" fill="#DDAA33" stroke="white" stroke-width="1"/><path d="M324.3461538461538,101.25h0v22.5h0Z" fill="#BB5566" stroke="white" stroke-width="1"/><path d="M0,276.25h53.30769230769231v22.5h-53.30769230769231Z" fill="#4477AA" stroke="white" stroke-width="1"/><path d="M53.30769230769231,276.25h4.153846153846153v22.5h-4.153846153846153Z" fill="#DDAA33" stroke="white" stroke-width="1"/><path d="M57.46153846153846,276.25h0v22.5h0Z" fill="#BB5566" stroke="white" stroke-width="1"/><path d="M0,126.25h281.07692307692304v22.5h-281.07692307692304Z" fill="#4477AA" stroke="white" stroke-width="1"/><path d="M281.07692307692304,126.25h22.673076923076962v22.5h-22.673076923076962Z" fill="#DDAA33" stroke="white" stroke-width="1"/><path d="M303.75,126.25h0v22.5h0Z" fill="#BB5566" stroke="white" stroke-width="1"/></g><g class="mark-text role-mark concat_0_layer_3_marks" role="graphics-object" aria-roledescription="text mark container"><text text-anchor="middle" transform="translate(102.8076923076923,168.5)" font-family="Arial" font-size="20px" fill="white">91%</text><text text-anchor="middle" transform="translate(189.60576923076925,18.5)" font-family="Arial" font-size="20px" fill="white">91%</text><text text-anchor="middle" transform="translate(101.33653846153847,193.5)" font-family="Arial" font-size="20px" fill="white">89%</text><text text-anchor="middle" transform="translate(194.53846153846152,43.5)" font-family="Arial" font-size="20px" fill="white">88%</text><text text-anchor="middle" transform="translate(415.4711538461538,43.5)" font-family="Arial" font-size="20px" fill="white">12%</text><text text-anchor="middle" transform="translate(97.35576923076924,218.5)" font-family="Arial" font-size="20px" fill="white">89%</text><text text-anchor="middle" transform="translate(180.34615384615384,68.5)" font-family="Arial" font-size="20px" fill="white">87%</text><text text-anchor="middle" transform="translate(388.47115384615387,68.5)" font-family="Arial" font-size="20px" fill="white">13%</text><text text-anchor="middle" transform="translate(127.47115384615385,93.5)" font-family="Arial" font-size="20px" fill="white">89%</text><text text-anchor="middle" transform="translate(146.85576923076923,118.5)" font-family="Arial" font-size="20px" fill="white">91%</text><text text-anchor="middle" transform="translate(26.653846153846153,293.5)" font-family="Arial" font-size="20px" fill="white">93%</text><text text-anchor="middle" transform="translate(140.53846153846152,143.5)" font-family="Arial" font-size="20px" fill="white">93%</text></g></g><path class="foreground" aria-hidden="true" d="" display="none" stroke="#ddd" stroke-width="0"/></g></g><g class="mark-group role-scope concat_1_group" role="graphics-object" aria-roledescription="group mark container"><g transform="translate(0,409)"><path class="background" aria-hidden="true" d="M0,0h450v300h-450Z" stroke="#ddd" stroke-width="0"/><g><g class="mark-group role-axis" aria-hidden="true"><g transform="translate(0.5,300.5)"><path class="background" aria-hidden="true" d="M0,0h0v0h0Z" pointer-events="none"/><g><g class="mark-rule role-axis-grid" pointer-events="none"><line transform="translate(0,0)" x2="0" y2="-300" stroke="#4d4d4d" stroke-opacity="0.5" stroke-width="1" opacity="1"/><line transform="translate(38,0)" x2="0" y2="-300" stroke="#4d4d4d" stroke-opacity="0.5" stroke-width="1" opacity="1"/><line transform="translate(75,0)" x2="0" y2="-300" stroke="#4d4d4d" stroke-opacity="0.5" stroke-width="1" opacity="1"/><line transform="translate(113,0)" x2="0" y2="-300" stroke="#4d4d4d" stroke-opacity="0.5" stroke-width="1" opacity="1"/><line transform="translate(150,0)" x2="0" y2="-300" stroke="#4d4d4d" stroke-opacity="0.5" stroke-width="1" opacity="1"/><line transform="translate(188,0)" x2="0" y2="-300" stroke="#4d4d4d" stroke-opacity="0.5" stroke-width="1" opacity="1"/><line transform="translate(225,0)" x2="0" y2="-300" stroke="#4d4d4d" stroke-opacity="0.5" stroke-width="1" opacity="1"/><line transform="translate(263,0)" x2="0" y2="-300" stroke="#4d4d4d" stroke-opacity="0.5" stroke-width="1" opacity="1"/><line transform="translate(300,0)" x2="0" y2="-300" stroke="#4d4d4d" stroke-opacity="0.5" stroke-width="1" opacity="1"/><line transform="translate(338,0)" x2="0" y2="-300" stroke="#4d4d4d" stroke-opacity="0.5" stroke-width="1" opacity="1"/><line transform="translate(375,0)" x2="0" y2="-300" stroke="#4d4d4d" stroke-opacity="0.5" stroke-width="1" opacity="1"/><line transform="translate(413,0)" x2="0" y2="-300" stroke="#4d4d4d" stroke-opacity="0.5" stroke-width="1" opacity="1"/><line transform="translate(450,0)" x2="0" y2="-300" stroke="#4d4d4d" stroke-opacity="0.5" stroke-width="1" opacity="1"/></g></g><path class="foreground" aria-hidden="true" d="" pointer-events="none" display="none"/></g></g><g class="mark-group role-axis" role="graphics-symbol" aria-roledescription="axis" aria-label="X-axis titled 'Count' for a linear scale with values from 0 to 2,400"><g transform="translate(0.5,300.5)"><path class="background" aria-hidden="true" d="M0,0h0v0h0Z" pointer-events="none"/><g><g class="mark-rule role-axis-tick" pointer-events="none"><line transform="translate(0,0)" x2="0" y2="5" stroke="#888" stroke-width="1" opacity="1"/><line transform="translate(38,0)" x2="0" y2="5" stroke="#888" stroke-width="1" opacity="1"/><line transform="translate(75,0)" x2="0" y2="5" stroke="#888" stroke-width="1" opacity="1"/><line transform="translate(113,0)" x2="0" y2="5" stroke="#888" stroke-width="1" opacity="1"/><line transform="translate(150,0)" x2="0" y2="5" stroke="#888" stroke-width="1" opacity="1"/><line transform="translate(188,0)" x2="0" y2="5" stroke="#888" stroke-width="1" opacity="1"/><line transform="translate(225,0)" x2="0" y2="5" stroke="#888" stroke-width="1" opacity="1"/><line transform="translate(263,0)" x2="0" y2="5" stroke="#888" stroke-width="1" opacity="1"/><line transform="translate(300,0)" x2="0" y2="5" stroke="#888" stroke-width="1" opacity="1"/><line transform="translate(338,0)" x2="0" y2="5" stroke="#888" stroke-width="1" opacity="1"/><line transform="translate(375,0)" x2="0" y2="5" stroke="#888" stroke-width="1" opacity="1"/><line transform="translate(413,0)" x2="0" y2="5" stroke="#888" stroke-width="1" opacity="1"/><line transform="translate(450,0)" x2="0" y2="5" stroke="#888" stroke-width="1" opacity="1"/></g><g class="mark-text role-axis-label" pointer-events="none"><text text-anchor="start" transform="translate(0,24)" font-family="Arial" font-size="22px" fill="#4d4d4d" opacity="1">0</text><text text-anchor="middle" transform="translate(37.5,24)" font-family="Arial" font-size="22px" fill="#4d4d4d" opacity="0">200</text><text text-anchor="middle" transform="translate(75,24)" font-family="Arial" font-size="22px" fill="#4d4d4d" opacity="0">400</text><text text-anchor="middle" transform="translate(112.5,24)" font-family="Arial" font-size="22px" fill="#4d4d4d" opacity="0">600</text><text text-anchor="middle" transform="translate(150,24)" font-family="Arial" font-size="22px" fill="#4d4d4d" opacity="1">800</text><text text-anchor="middle" transform="translate(187.5,24)" font-family="Arial" font-size="22px" fill="#4d4d4d" opacity="0">1,000</text><text text-anchor="middle" transform="translate(225,24)" font-family="Arial" font-size="22px" fill="#4d4d4d" opacity="0">1,200</text><text text-anchor="middle" transform="translate(262.5,24)" font-family="Arial" font-size="22px" fill="#4d4d4d" opacity="0">1,400</text><text text-anchor="middle" transform="translate(300,24)" font-family="Arial" font-size="22px" fill="#4d4d4d" opacity="1">1,600</text><text text-anchor="middle" transform="translate(337.5,24)" font-family="Arial" font-size="22px" fill="#4d4d4d" opacity="0">1,800</text><text text-anchor="middle" transform="translate(375,24)" font-family="Arial" font-size="22px" fill="#4d4d4d" opacity="0">2,000</text><text text-anchor="middle" transform="translate(412.5,24)" font-family="Arial" font-size="22px" fill="#4d4d4d" opacity="0">2,200</text><text text-anchor="end" transform="translate(450,24)" font-family="Arial" font-size="22px" fill="#4d4d4d" opacity="1">2,400</text></g><g class="mark-rule role-axis-domain" pointer-events="none"><line transform="translate(0,0)" x2="450" y2="0" stroke="#888" stroke-width="1" opacity="1"/></g><g class="mark-text role-axis-title" pointer-events="none"><text text-anchor="middle" transform="translate(225,53)" font-family="Arial" font-size="26px" font-weight="bold" fill="#4d4d4d" opacity="1">Count</text></g></g><path class="foreground" aria-hidden="true" d="" pointer-events="none" display="none"/></g></g><g class="mark-group role-axis" role="graphics-symbol" aria-roledescription="axis" aria-label="Y-axis titled 'Group' for a discrete scale with 12 values: cid_[20.0]_positive, cid_[40.0]_positive, cid_[60.0]_positive, ead_[12.0]_positive, ead_[16.0]_positive, ending with ead_[24.0]_negative"><g transform="translate(0.5,0.5)"><path class="background" aria-hidden="true" d="M0,0h0v0h0Z" pointer-events="none"/><g><g class="mark-text role-axis-label" pointer-events="none"><text text-anchor="end" transform="translate(-6,19)" font-family="Arial" font-size="22px" fill="#4d4d4d" opacity="1">cid 20.0 positive</text><text text-anchor="end" transform="translate(-6,44)" font-family="Arial" font-size="22px" fill="#4d4d4d" opacity="1">cid 40.0 positive</text><text text-anchor="end" transform="translate(-6,69)" font-family="Arial" font-size="22px" fill="#4d4d4d" opacity="1">cid 60.0 positive</text><text text-anchor="end" transform="translate(-6,94)" font-family="Arial" font-size="22px" fill="#4d4d4d" opacity="1">ead 12.0 positive</text><text text-anchor="end" transform="translate(-6,119)" font-family="Arial" font-size="22px" fill="#4d4d4d" opacity="1">ead 16.0 positive</text><text text-anchor="end" transform="translate(-6,144)" font-family="Arial" font-size="22px" fill="#4d4d4d" opacity="1">ead 24.0 positive</text><text text-anchor="end" transform="translate(-6,169)" font-family="Arial" font-size="22px" fill="#4d4d4d" opacity="1">cid 20.0 negative</text><text text-anchor="end" transform="translate(-6,194)" font-family="Arial" font-size="22px" fill="#4d4d4d" opacity="1">cid 40.0 negative</text><text text-anchor="end" transform="translate(-6,219)" font-family="Arial" font-size="22px" fill="#4d4d4d" opacity="1">cid 60.0 negative</text><text text-anchor="end" transform="translate(-6,244)" font-family="Arial" font-size="22px" fill="#4d4d4d" opacity="1">ead 12.0 negative</text><text text-anchor="end" transform="translate(-6,269)" font-family="Arial" font-size="22px" fill="#4d4d4d" opacity="1">ead 16.0 negative</text><text text-anchor="end" transform="translate(-6,294)" font-family="Arial" font-size="22px" fill="#4d4d4d" opacity="1">ead 24.0 negative</text></g><g class="mark-text role-axis-title" pointer-events="none"><text text-anchor="middle" transform="translate(-184.92578125,150) rotate(-90) translate(0,-5)" font-family="Arial" font-size="26px" font-weight="bold" fill="#4d4d4d" opacity="1">Group</text></g></g><path class="foreground" aria-hidden="true" d="" pointer-events="none" display="none"/></g></g><g class="mark-text role-mark concat_1_layer_0_marks" role="graphics-object" aria-roledescription="text mark container"><text text-anchor="start" transform="translate(-200,-2)" font-family="Arial" font-size="36px" font-weight="bold" fill="#4d4d4d">B</text></g><g class="mark-text role-mark concat_1_layer_1_marks" role="graphics-object" aria-roledescription="text mark container"><text text-anchor="middle" transform="translate(225,-7)" font-family="Arial" font-size="28px" font-weight="bold" fill="#4d4d4d">Number of Explained MS2 Peaks</text></g><g class="mark-rect role-mark concat_1_layer_2_marks" role="graphics-symbol" aria-roledescription="rect mark container"><path d="M0,51.25h76.3125v22.5h-76.3125Z" stroke="white" stroke-width="1"/><path d="M76.3125,51.25h168.5625v22.5h-168.5625Z" stroke="white" stroke-width="1"/><path d="M244.875,51.25h99.75v22.5h-99.75Z" stroke="white" stroke-width="1"/><path d="M344.625,51.25h34.875v22.5h-34.875Z" stroke="white" stroke-width="1"/><path d="M379.5,51.25h8.8125v22.5h-8.8125Z" stroke="white" stroke-width="1"/><path d="M388.3125,51.25h2.25v22.5h-2.25Z" stroke="white" stroke-width="1"/><path d="M390.5625,51.25h0v22.5h0Z" stroke="white" stroke-width="1"/><path d="M390.5625,51.25h0v22.5h0Z" stroke="white" stroke-width="1"/><path d="M390.5625,51.25h0v22.5h0Z" stroke="white" stroke-width="1"/><path d="M390.5625,51.25h0.1875v22.5h-0.1875Z" stroke="white" stroke-width="1"/><path d="M0,26.25h94.3125v22.5h-94.3125Z" stroke="white" stroke-width="1"/><path d="M94.3125,26.25h189.1875v22.5h-189.1875Z" stroke="white" stroke-width="1"/><path d="M283.5,26.25h92.4375v22.5h-92.4375Z" stroke="white" stroke-width="1"/><path d="M375.9375,26.25h35.4375v22.5h-35.4375Z" stroke="white" stroke-width="1"/><path d="M411.375,26.25h7.875v22.5h-7.875Z" stroke="white" stroke-width="1"/><path d="M419.25,26.25h2.25v22.5h-2.25Z" stroke="white" stroke-width="1"/><path d="M421.5,26.25h0v22.5h0Z" stroke="white" stroke-width="1"/><path d="M421.5,26.25h0v22.5h0Z" stroke="white" stroke-width="1"/><path d="M421.5,26.25h0v22.5h0Z" stroke="white" stroke-width="1"/><path d="M421.5,26.25h0v22.5h0Z" stroke="white" stroke-width="1"/><path d="M0,101.25h40.125v22.5h-40.125Z" stroke="white" stroke-width="1"/><path d="M40.125,101.25h111.375v22.5h-111.375Z" stroke="white" stroke-width="1"/><path d="M151.5,101.25h116.0625v22.5h-116.0625Z" stroke="white" stroke-width="1"/><path d="M267.5625,101.25h34.6875v22.5h-34.6875Z" stroke="white" stroke-width="1"/><path d="M302.25,101.25h12.75v22.5h-12.75Z" stroke="white" stroke-width="1"/><path d="M315,101.25h2.4375v22.5h-2.4375Z" stroke="white" stroke-width="1"/><path d="M317.4375,101.25h0.1875v22.5h-0.1875Z" stroke="white" stroke-width="1"/><path d="M317.625,101.25h0v22.5h0Z" stroke="white" stroke-width="1"/><path d="M317.625,101.25h0v22.5h0Z" stroke="white" stroke-width="1"/><path d="M317.625,101.25h0v22.5h0Z" stroke="white" stroke-width="1"/><path d="M0,126.25h28.6875v22.5h-28.6875Z" stroke="white" stroke-width="1"/><path d="M28.6875,126.25h130.125v22.5h-130.125Z" stroke="white" stroke-width="1"/><path d="M158.8125,126.25h122.25v22.5h-122.25Z" stroke="white" stroke-width="1"/><path d="M281.0625,126.25h20.0625v22.5h-20.0625Z" stroke="white" stroke-width="1"/><path d="M301.125,126.25h2.625v22.5h-2.625Z" stroke="white" stroke-width="1"/><path d="M303.75,126.25h0.375v22.5h-0.375Z" stroke="white" stroke-width="1"/><path d="M304.125,126.25h0v22.5h0Z" stroke="white" stroke-width="1"/><path d="M304.125,126.25h0v22.5h0Z" stroke="white" stroke-width="1"/><path d="M304.125,126.25h0v22.5h0Z" stroke="white" stroke-width="1"/><path d="M304.125,126.25h0v22.5h0Z" stroke="white" stroke-width="1"/><path d="M0,76.25h55.875v22.5h-55.875Z" stroke="white" stroke-width="1"/><path d="M55.875,76.25h121.5v22.5h-121.5Z" stroke="white" stroke-width="1"/><path d="M177.375,76.25h68.24999999999997v22.5h-68.24999999999997Z" stroke="white" stroke-width="1"/><path d="M245.62499999999997,76.25h23.06250000000003v22.5h-23.06250000000003Z" stroke="white" stroke-width="1"/><path d="M268.6875,76.25h6.1875v22.5h-6.1875Z" stroke="white" stroke-width="1"/><path d="M274.875,76.25h0.75v22.5h-0.75Z" stroke="white" stroke-width="1"/><path d="M275.625,76.25h0v22.5h0Z" stroke="white" stroke-width="1"/><path d="M275.625,76.25h0v22.5h0Z" stroke="white" stroke-width="1"/><path d="M275.625,76.25h0v22.5h0Z" stroke="white" stroke-width="1"/><path d="M275.625,76.25h0v22.5h0Z" stroke="white" stroke-width="1"/><path d="M0,1.25h275.25v22.5h-275.25Z" stroke="white" stroke-width="1"/><path d="M275.25,1.25h107.25v22.5h-107.25Z" stroke="white" stroke-width="1"/><path d="M382.5,1.25h20.8125v22.5h-20.8125Z" stroke="white" stroke-width="1"/><path d="M403.3125,1.25h4.5v22.5h-4.5Z" stroke="white" stroke-width="1"/><path d="M407.8125,1.25h0.5625v22.5h-0.5625Z" stroke="white" stroke-width="1"/><path d="M408.375,1.25h0.1875v22.5h-0.1875Z" stroke="white" stroke-width="1"/><path d="M408.5625,1.25h0v22.5h0Z" stroke="white" stroke-width="1"/><path d="M408.5625,1.25h0v22.5h0Z" stroke="white" stroke-width="1"/><path d="M408.5625,1.25h0v22.5h0Z" stroke="white" stroke-width="1"/><path d="M408.5625,1.25h0v22.5h0Z" stroke="white" stroke-width="1"/><path d="M0,251.25h26.4375v22.5h-26.4375Z" stroke="white" stroke-width="1"/><path d="M26.4375,251.25h0.9375v22.5h-0.9375Z" stroke="white" stroke-width="1"/><path d="M27.375,251.25h0v22.5h0Z" stroke="white" stroke-width="1"/><path d="M27.375,251.25h0v22.5h0Z" stroke="white" stroke-width="1"/><path d="M27.375,251.25h0v22.5h0Z" stroke="white" stroke-width="1"/><path d="M27.375,251.25h0v22.5h0Z" stroke="white" stroke-width="1"/><path d="M27.375,251.25h0v22.5h0Z" stroke="white" stroke-width="1"/><path d="M27.375,251.25h0v22.5h0Z" stroke="white" stroke-width="1"/><path d="M27.375,251.25h0v22.5h0Z" stroke="white" stroke-width="1"/><path d="M27.375,251.25h0v22.5h0Z" stroke="white" stroke-width="1"/><path d="M0,201.25h143.4375v22.5h-143.4375Z" stroke="white" stroke-width="1"/><path d="M143.4375,201.25h53.0625v22.5h-53.0625Z" stroke="white" stroke-width="1"/><path d="M196.5,201.25h11.8125v22.5h-11.8125Z" stroke="white" stroke-width="1"/><path d="M208.3125,201.25h2.625v22.5h-2.625Z" stroke="white" stroke-width="1"/><path d="M210.9375,201.25h0v22.5h0Z" stroke="white" stroke-width="1"/><path d="M210.9375,201.25h0v22.5h0Z" stroke="white" stroke-width="1"/><path d="M210.9375,201.25h0v22.5h0Z" stroke="white" stroke-width="1"/><path d="M210.9375,201.25h0v22.5h0Z" stroke="white" stroke-width="1"/><path d="M210.9375,201.25h0v22.5h0Z" stroke="white" stroke-width="1"/><path d="M210.9375,201.25h0v22.5h0Z" stroke="white" stroke-width="1"/><path d="M0,151.25h184.875v22.5h-184.875Z" stroke="white" stroke-width="1"/><path d="M184.875,151.25h34.6875v22.5h-34.6875Z" stroke="white" stroke-width="1"/><path d="M219.5625,151.25h2.8125v22.5h-2.8125Z" stroke="white" stroke-width="1"/><path d="M222.375,151.25h0v22.5h0Z" stroke="white" stroke-width="1"/><path d="M222.375,151.25h0v22.5h0Z" stroke="white" stroke-width="1"/><path d="M222.375,151.25h0v22.5h0Z" stroke="white" stroke-width="1"/><path d="M222.375,151.25h0v22.5h0Z" stroke="white" stroke-width="1"/><path d="M222.375,151.25h0v22.5h0Z" stroke="white" stroke-width="1"/><path d="M222.375,151.25h0v22.5h0Z" stroke="white" stroke-width="1"/><path d="M222.375,151.25h0v22.5h0Z" stroke="white" stroke-width="1"/><path d="M0,176.25h127.12499999999999v22.5h-127.12499999999999Z" stroke="white" stroke-width="1"/><path d="M127.12499999999999,176.25h75.93750000000001v22.5h-75.93750000000001Z" stroke="white" stroke-width="1"/><path d="M203.0625,176.25h13.125v22.5h-13.125Z" stroke="white" stroke-width="1"/><path d="M216.1875,176.25h2.8125v22.5h-2.8125Z" stroke="white" stroke-width="1"/><path d="M219,176.25h0.375v22.5h-0.375Z" stroke="white" stroke-width="1"/><path d="M219.375,176.25h0.1875v22.5h-0.1875Z" stroke="white" stroke-width="1"/><path d="M219.5625,176.25h0v22.5h0Z" stroke="white" stroke-width="1"/><path d="M219.5625,176.25h0v22.5h0Z" stroke="white" stroke-width="1"/><path d="M219.5625,176.25h0v22.5h0Z" stroke="white" stroke-width="1"/><path d="M219.5625,176.25h0v22.5h0Z" stroke="white" stroke-width="1"/><path d="M0,276.25h55.125v22.5h-55.125Z" stroke="white" stroke-width="1"/><path d="M55.125,276.25h1.875000000000007v22.5h-1.875000000000007Z" stroke="white" stroke-width="1"/><path d="M57.00000000000001,276.25h0.3749999999999929v22.5h-0.3749999999999929Z" stroke="white" stroke-width="1"/><path d="M57.375,276.25h0.375v22.5h-0.375Z" stroke="white" stroke-width="1"/><path d="M57.75,276.25h0v22.5h0Z" stroke="white" stroke-width="1"/><path d="M57.75,276.25h0v22.5h0Z" stroke="white" stroke-width="1"/><path d="M57.75,276.25h0v22.5h0Z" stroke="white" stroke-width="1"/><path d="M57.75,276.25h0v22.5h0Z" stroke="white" stroke-width="1"/><path d="M57.75,276.25h0v22.5h0Z" stroke="white" stroke-width="1"/><path d="M57.75,276.25h0v22.5h0Z" stroke="white" stroke-width="1"/><path d="M0,226.25h35.625v22.5h-35.625Z" stroke="white" stroke-width="1"/><path d="M35.625,226.25h0.5625v22.5h-0.5625Z" stroke="white" stroke-width="1"/><path d="M36.1875,226.25h0v22.5h0Z" stroke="white" stroke-width="1"/><path d="M36.1875,226.25h0v22.5h0Z" stroke="white" stroke-width="1"/><path d="M36.1875,226.25h0v22.5h0Z" stroke="white" stroke-width="1"/><path d="M36.1875,226.25h0v22.5h0Z" stroke="white" stroke-width="1"/><path d="M36.1875,226.25h0v22.5h0Z" stroke="white" stroke-width="1"/><path d="M36.1875,226.25h0v22.5h0Z" stroke="white" stroke-width="1"/><path d="M36.1875,226.25h0v22.5h0Z" stroke="white" stroke-width="1"/><path d="M36.1875,226.25h0v22.5h0Z" stroke="white" stroke-width="1"/></g><g class="mark-text role-mark concat_1_layer_3_marks" role="graphics-object" aria-roledescription="text mark container"><text text-anchor="middle" transform="translate(38.15625,68.5)" font-family="Arial" font-size="20px" fill="white">20%</text><text text-anchor="middle" transform="translate(160.59375,68.5)" font-family="Arial" font-size="20px" fill="white">43%</text><text text-anchor="middle" transform="translate(294.75,68.5)" font-family="Arial" font-size="20px" fill="white">26%</text><text text-anchor="middle" transform="translate(362.0625,68.5)" font-family="Arial" font-size="20px" fill="white">9%</text><text text-anchor="middle" transform="translate(47.15625,43.5)" font-family="Arial" font-size="20px" fill="white">22%</text><text text-anchor="middle" transform="translate(188.90625,43.5)" font-family="Arial" font-size="20px" fill="white">45%</text><text text-anchor="middle" transform="translate(329.71875,43.5)" font-family="Arial" font-size="20px" fill="white">22%</text><text text-anchor="middle" transform="translate(393.65625,43.5)" font-family="Arial" font-size="20px" fill="white">8%</text><text text-anchor="middle" transform="translate(20.0625,118.5)" font-family="Arial" font-size="20px" fill="white">13%</text><text text-anchor="middle" transform="translate(95.8125,118.5)" font-family="Arial" font-size="20px" fill="white">35%</text><text text-anchor="middle" transform="translate(209.53125,118.5)" font-family="Arial" font-size="20px" fill="white">37%</text><text text-anchor="middle" transform="translate(284.90625,118.5)" font-family="Arial" font-size="20px" fill="white">11%</text><text text-anchor="middle" transform="translate(14.34375,143.5)" font-family="Arial" font-size="20px" fill="white">9%</text><text text-anchor="middle" transform="translate(93.75,143.5)" font-family="Arial" font-size="20px" fill="white">43%</text><text text-anchor="middle" transform="translate(219.9375,143.5)" font-family="Arial" font-size="20px" fill="white">40%</text><text text-anchor="middle" transform="translate(27.9375,93.5)" font-family="Arial" font-size="20px" fill="white">20%</text><text text-anchor="middle" transform="translate(116.625,93.5)" font-family="Arial" font-size="20px" fill="white">44%</text><text text-anchor="middle" transform="translate(211.5,93.5)" font-family="Arial" font-size="20px" fill="white">25%</text><text text-anchor="middle" transform="translate(137.625,18.5)" font-family="Arial" font-size="20px" fill="white">67%</text><text text-anchor="middle" transform="translate(328.875,18.5)" font-family="Arial" font-size="20px" fill="white">26%</text><text text-anchor="middle" transform="translate(71.71875,218.5)" font-family="Arial" font-size="20px" fill="white">68%</text><text text-anchor="middle" transform="translate(169.96875,218.5)" font-family="Arial" font-size="20px" fill="white">25%</text><text text-anchor="middle" transform="translate(92.4375,168.5)" font-family="Arial" font-size="20px" fill="white">83%</text><text text-anchor="middle" transform="translate(202.21875,168.5)" font-family="Arial" font-size="20px" fill="white">16%</text><text text-anchor="middle" transform="translate(63.56249999999999,193.5)" font-family="Arial" font-size="20px" fill="white">58%</text><text text-anchor="middle" transform="translate(165.09375,193.5)" font-family="Arial" font-size="20px" fill="white">35%</text><text text-anchor="middle" transform="translate(27.5625,293.5)" font-family="Arial" font-size="20px" fill="white">95%</text><text text-anchor="middle" transform="translate(17.8125,243.5)" font-family="Arial" font-size="20px" fill="white">98%</text></g></g><path class="foreground" aria-hidden="true" d="" display="none" stroke="#ddd" stroke-width="0"/></g></g><g class="mark-group role-legend" role="graphics-symbol" aria-roledescription="legend" aria-label="Symbol legend for fill color with 3 values: Formula found, correct, Formula found, incorrect, Formula not found"><g transform="translate(469,0)"><path class="background" aria-hidden="true" d="M0,0h265v70h-265Z" pointer-events="none"/><g><g class="mark-group role-legend-entry"><g transform="translate(0,0)"><path class="background" aria-hidden="true" d="M0,0h0v0h0Z" pointer-events="none"/><g><g class="mark-group role-scope" role="graphics-object" aria-roledescription="group mark container"><g transform="translate(0,0)"><path class="background" aria-hidden="true" d="M0,0h264.43359375v22h-264.43359375Z" pointer-events="none" opacity="1"/><g><g class="mark-symbol role-legend-symbol" pointer-events="none"><path transform="translate(11,11)" d="M-5,-5h10v10h-10Z" fill="#4477AA" stroke="white" stroke-width="1.5" opacity="1"/></g><g class="mark-text role-legend-label" pointer-events="none"><text text-anchor="start" transform="translate(26,18)" font-family="Arial" font-size="22px" fill="#4d4d4d" opacity="1">Formula found, correct</text></g></g><path class="foreground" aria-hidden="true" d="" pointer-events="none" display="none"/></g><g transform="translate(0,24)"><path class="background" aria-hidden="true" d="M0,0h264.43359375v22h-264.43359375Z" pointer-events="none" opacity="1"/><g><g class="mark-symbol role-legend-symbol" pointer-events="none"><path transform="translate(11,11)" d="M-5,-5h10v10h-10Z" fill="#DDAA33" stroke="white" stroke-width="1.5" opacity="1"/></g><g class="mark-text role-legend-label" pointer-events="none"><text text-anchor="start" transform="translate(26,18)" font-family="Arial" font-size="22px" fill="#4d4d4d" opacity="1">Formula found, incorrect</text></g></g><path class="foreground" aria-hidden="true" d="" pointer-events="none" display="none"/></g><g transform="translate(0,48)"><path class="background" aria-hidden="true" d="M0,0h264.43359375v22h-264.43359375Z" pointer-events="none" opacity="1"/><g><g class="mark-symbol role-legend-symbol" pointer-events="none"><path transform="translate(11,11)" d="M-5,-5h10v10h-10Z" fill="#BB5566" stroke="white" stroke-width="1.5" opacity="1"/></g><g class="mark-text role-legend-label" pointer-events="none"><text text-anchor="start" transform="translate(26,18)" font-family="Arial" font-size="22px" fill="#4d4d4d" opacity="1">Formula not found</text></g></g><path class="foreground" aria-hidden="true" d="" pointer-events="none" display="none"/></g></g></g><path class="foreground" aria-hidden="true" d="" pointer-events="none" display="none"/></g></g></g><path class="foreground" aria-hidden="true" d="" pointer-events="none" display="none"/></g></g></g><path class="foreground" aria-hidden="true" d="" display="none"/></g></g></g></svg>