<svg xmlns="http://www.w3.org/2000/svg" xmlns:xlink="http://www.w3.org/1999/xlink" version="1.1" class="marks" width="553" height="299" viewBox="0 0 553 299"><rect width="553" height="299" fill="white"/><g fill="none" stroke-miterlimit="10" transform="translate(107,22)"><g class="mark-group role-frame root" role="graphics-object" aria-roledescription="group mark container"><g transform="translate(0,0)"><path class="background" aria-hidden="true" d="M0.5,0.5h300v240h-300Z" stroke="#ddd"/><g><g class="mark-group role-axis" aria-hidden="true"><g transform="translate(0.5,240.5)"><path class="background" aria-hidden="true" d="M0,0h0v0h0Z" pointer-events="none"/><g><g class="mark-rule role-axis-grid" pointer-events="none"><line transform="translate(0,0)" x2="0" y2="-240" stroke="#ddd" stroke-width="1" opacity="1"/><line transform="translate(25,0)" x2="0" y2="-240" stroke="#ddd" stroke-width="1" opacity="1"/><line transform="translate(50,0)" x2="0" y2="-240" stroke="#ddd" stroke-width="1" opacity="1"/><line transform="translate(75,0)" x2="0" y2="-240" stroke="#ddd" stroke-width="1" opacity="1"/><line transform="translate(100,0)" x2="0" y2="-240" stroke="#ddd" stroke-width="1" opacity="1"/><line transform="translate(125,0)" x2="0" y2="-240" stroke="#ddd" stroke-width="1" opacity="1"/><line transform="translate(150,0)" x2="0" y2="-240" stroke="#ddd" stroke-width="1" opacity="1"/><line transform="translate(175,0)" x2="0" y2="-240" stroke="#ddd" stroke-width="1" opacity="1"/><line transform="translate(200,0)" x2="0" y2="-240" stroke="#ddd" stroke-width="1" opacity="1"/><line transform="translate(225,0)" x2="0" y2="-240" stroke="#ddd" stroke-width="1" opacity="1"/><line transform="translate(250,0)" x2="0" y2="-240" stroke="#ddd" stroke-width="1" opacity="1"/><line transform="translate(275,0)" x2="0" y2="-240" stroke="#ddd" stroke-width="1" opacity="1"/><line transform="translate(300,0)" x2="0" y2="-240" stroke="#ddd" stroke-width="1" opacity="1"/></g></g><path class="foreground" aria-hidden="true" d="" pointer-events="none" display="none"/></g></g><g class="mark-group role-axis" role="graphics-symbol" aria-roledescription="axis" aria-label="X-axis titled 'Count' for a linear scale with values from 0 to 2,400"><g transform="translate(0.5,240.5)"><path class="background" aria-hidden="true" d="M0,0h0v0h0Z" pointer-events="none"/><g><g class="mark-rule role-axis-tick" pointer-events="none"><line transform="translate(0,0)" x2="0" y2="5" stroke="#888" stroke-width="1" opacity="1"/><line transform="translate(25,0)" x2="0" y2="5" stroke="#888" stroke-width="1" opacity="1"/><line transform="translate(50,0)" x2="0" y2="5" stroke="#888" stroke-width="1" opacity="1"/><line transform="translate(75,0)" x2="0" y2="5" stroke="#888" stroke-width="1" opacity="1"/><line transform="translate(100,0)" x2="0" y2="5" stroke="#888" stroke-width="1" opacity="1"/><line transform="translate(125,0)" x2="0" y2="5" stroke="#888" stroke-width="1" opacity="1"/><line transform="translate(150,0)" x2="0" y2="5" stroke="#888" stroke-width="1" opacity="1"/><line transform="translate(175,0)" x2="0" y2="5" stroke="#888" stroke-width="1" opacity="1"/><line transform="translate(200,0)" x2="0" y2="5" stroke="#888" stroke-width="1" opacity="1"/><line transform="translate(225,0)" x2="0" y2="5" stroke="#888" stroke-width="1" opacity="1"/><line transform="translate(250,0)" x2="0" y2="5" stroke="#888" stroke-width="1" opacity="1"/><line transform="translate(275,0)" x2="0" y2="5" stroke="#888" stroke-width="1" opacity="1"/><line transform="translate(300,0)" x2="0" y2="5" stroke="#888" stroke-width="1" opacity="1"/></g><g class="mark-text role-axis-label" pointer-events="none"><text text-anchor="start" transform="translate(0,15)" font-family="sans-serif" font-size="10px" fill="#000" opacity="1">0</text><text text-anchor="middle" transform="translate(25,15)" font-family="sans-serif" font-size="10px" fill="#000" opacity="0">200</text><text text-anchor="middle" transform="translate(50,15)" font-family="sans-serif" font-size="10px" fill="#000" opacity="1">400</text><text text-anchor="middle" transform="translate(75,15)" font-family="sans-serif" font-size="10px" fill="#000" opacity="0">600</text><text text-anchor="middle" transform="translate(100,15)" font-family="sans-serif" font-size="10px" fill="#000" opacity="1">800</text><text text-anchor="middle" transform="translate(125,15)" font-family="sans-serif" font-size="10px" fill="#000" opacity="0">1,000</text><text text-anchor="middle" transform="translate(150,15)" font-family="sans-serif" font-size="10px" fill="#000" opacity="1">1,200</text><text text-anchor="middle" transform="translate(175,15)" font-family="sans-serif" font-size="10px" fill="#000" opacity="0">1,400</text><text text-anchor="middle" transform="translate(200,15)" font-family="sans-serif" font-size="10px" fill="#000" opacity="1">1,600</text><text text-anchor="middle" transform="translate(225,15)" font-family="sans-serif" font-size="10px" fill="#000" opacity="0">1,800</text><text text-anchor="middle" transform="translate(250,15)" font-family="sans-serif" font-size="10px" fill="#000" opacity="1">2,000</text><text text-anchor="middle" transform="translate(275,15)" font-family="sans-serif" font-size="10px" fill="#000" opacity="0">2,200</text><text text-anchor="end" transform="translate(300,15)" font-family="sans-serif" font-size="10px" fill="#000" opacity="1">2,400</text></g><g class="mark-rule role-axis-domain" pointer-events="none"><line transform="translate(0,0)" x2="300" y2="0" stroke="#888" stroke-width="1" opacity="1"/></g><g class="mark-text role-axis-title" pointer-events="none"><text text-anchor="middle" transform="translate(150,30)" font-family="sans-serif" font-size="11px" font-weight="bold" fill="#000" opacity="1">Count</text></g></g><path class="foreground" aria-hidden="true" d="" pointer-events="none" display="none"/></g></g><g class="mark-group role-axis" role="graphics-symbol" aria-roledescription="axis" aria-label="Y-axis titled 'Group' for a discrete scale with 12 values: cid_[40.0]_positive, cid_[20.0]_positive, cid_[60.0]_positive, ead_[16.0]_positive, ead_[24.0]_positive, ending with ead_[16.0]_negative"><g transform="translate(0.5,0.5)"><path class="background" aria-hidden="true" d="M0,0h0v0h0Z" pointer-events="none"/><g><g class="mark-rule role-axis-tick" pointer-events="none"><line transform="translate(0,10)" x2="-5" y2="0" stroke="#888" stroke-width="1" opacity="1"/><line transform="translate(0,30)" x2="-5" y2="0" stroke="#888" stroke-width="1" opacity="1"/><line transform="translate(0,50)" x2="-5" y2="0" stroke="#888" stroke-width="1" opacity="1"/><line transform="translate(0,70)" x2="-5" y2="0" stroke="#888" stroke-width="1" opacity="1"/><line transform="translate(0,90)" x2="-5" y2="0" stroke="#888" stroke-width="1" opacity="1"/><line transform="translate(0,110)" x2="-5" y2="0" stroke="#888" stroke-width="1" opacity="1"/><line transform="translate(0,130)" x2="-5" y2="0" stroke="#888" stroke-width="1" opacity="1"/><line transform="translate(0,150)" x2="-5" y2="0" stroke="#888" stroke-width="1" opacity="1"/><line transform="translate(0,170)" x2="-5" y2="0" stroke="#888" stroke-width="1" opacity="1"/><line transform="translate(0,190)" x2="-5" y2="0" stroke="#888" stroke-width="1" opacity="1"/><line transform="translate(0,210)" x2="-5" y2="0" stroke="#888" stroke-width="1" opacity="1"/><line transform="translate(0,230)" x2="-5" y2="0" stroke="#888" stroke-width="1" opacity="1"/></g><g class="mark-text role-axis-label" pointer-events="none"><text text-anchor="end" transform="translate(-7,12.5)" font-family="sans-serif" font-size="10px" fill="#000" opacity="1">cid 40.0 positive</text><text text-anchor="end" transform="translate(-7,32.5)" font-family="sans-serif" font-size="10px" fill="#000" opacity="1">cid 20.0 positive</text><text text-anchor="end" transform="translate(-7,52.5)" font-family="sans-serif" font-size="10px" fill="#000" opacity="1">cid 60.0 positive</text><text text-anchor="end" transform="translate(-7,72.5)" font-family="sans-serif" font-size="10px" fill="#000" opacity="1">ead 16.0 positive</text><text text-anchor="end" transform="translate(-7,92.5)" font-family="sans-serif" font-size="10px" fill="#000" opacity="1">ead 24.0 positive</text><text text-anchor="end" transform="translate(-7,112.5)" font-family="sans-serif" font-size="10px" fill="#000" opacity="1">ead 12.0 positive</text><text text-anchor="end" transform="translate(-7,132.5)" font-family="sans-serif" font-size="10px" fill="#000" opacity="1">cid 20.0 negative</text><text text-anchor="end" transform="translate(-7,152.5)" font-family="sans-serif" font-size="10px" fill="#000" opacity="1">cid 40.0 negative</text><text text-anchor="end" transform="translate(-7,172.5)" font-family="sans-serif" font-size="10px" fill="#000" opacity="1">cid 60.0 negative</text><text text-anchor="end" transform="translate(-7,192.5)" font-family="sans-serif" font-size="10px" fill="#000" opacity="1">ead 24.0 negative</text><text text-anchor="end" transform="translate(-7,212.5)" font-family="sans-serif" font-size="10px" fill="#000" opacity="1">ead 12.0 negative</text><text text-anchor="end" transform="translate(-7,232.5)" font-family="sans-serif" font-size="10px" fill="#000" opacity="1">ead 16.0 negative</text></g><g class="mark-rule role-axis-domain" pointer-events="none"><line transform="translate(0,0)" x2="0" y2="240" stroke="#888" stroke-width="1" opacity="1"/></g><g class="mark-text role-axis-title" pointer-events="none"><text text-anchor="middle" transform="translate(-90.51171875,120) rotate(-90) translate(0,-2)" font-family="sans-serif" font-size="11px" font-weight="bold" fill="#000" opacity="1">Group</text></g></g><path class="foreground" aria-hidden="true" d="" pointer-events="none" display="none"/></g></g><g class="mark-rect role-mark layer_0_marks" role="graphics-symbol" aria-roledescription="rect mark container"><path d="M0,41h0v18h0Z" fill="#011959"/><path d="M0,41h0v18h0Z" fill="#103f60"/><path d="M0,41h0.25v18h-0.25Z" fill="#1b5962"/><path d="M0.25,41h0.875v18h-0.875Z" fill="#3c6d56"/><path d="M1.125,41h2.25v18h-2.25Z" fill="#687b3e"/><path d="M3.375,41h3.125v18h-3.125Z" fill="#9d892b"/><path d="M6.5,41h7.625v18h-7.625Z" fill="#d29343"/><path d="M14.125,41h18v18h-18Z" fill="#f8a27e"/><path d="M32.125,41h36v18h-36Z" fill="#fdb7bc"/><path d="M68.125,41h192.375v18h-192.375Z" fill="#faccfa"/><path d="M0,1h0.125v18h-0.125Z" fill="#011959"/><path d="M0.125,1h0.125v18h-0.125Z" fill="#103f60"/><path d="M0.25,1h0.625v18h-0.625Z" fill="#1b5962"/><path d="M0.875,1h1.25v18h-1.25Z" fill="#3c6d56"/><path d="M2.125,1h3.75v18h-3.75Z" fill="#687b3e"/><path d="M5.875,1h5.125v18h-5.125Z" fill="#9d892b"/><path d="M11,1h13.375v18h-13.375Z" fill="#d29343"/><path d="M24.375,1h28.375v18h-28.375Z" fill="#f8a27e"/><path d="M52.75,1h47.375v18h-47.375Z" fill="#fdb7bc"/><path d="M100.125,1h180.875v18h-180.875Z" fill="#faccfa"/><path d="M0,61h0.625v18h-0.625Z" fill="#011959"/><path d="M0.625,61h0v18h0Z" fill="#103f60"/><path d="M0.625,61h0v18h0Z" fill="#1b5962"/><path d="M0.625,61h0.625v18h-0.625Z" fill="#3c6d56"/><path d="M1.25,61h2.25v18h-2.25Z" fill="#687b3e"/><path d="M3.5,61h3.125v18h-3.125Z" fill="#9d892b"/><path d="M6.625,61h12v18h-12Z" fill="#d29343"/><path d="M18.625,61h35.75v18h-35.75Z" fill="#f8a27e"/><path d="M54.375,61h64.875v18h-64.875Z" fill="#fdb7bc"/><path d="M119.25,61h92.5v18h-92.5Z" fill="#faccfa"/><path d="M0,81h0.5v18h-0.5Z" fill="#011959"/><path d="M0.5,81h0.125v18h-0.125Z" fill="#103f60"/><path d="M0.625,81h0.375v18h-0.375Z" fill="#1b5962"/><path d="M1,81h0.875v18h-0.875Z" fill="#3c6d56"/><path d="M1.875,81h2.625v18h-2.625Z" fill="#687b3e"/><path d="M4.5,81h3.875v18h-3.875Z" fill="#9d892b"/><path d="M8.375,81h10.625v18h-10.625Z" fill="#d29343"/><path d="M19,81h34.25v18h-34.25Z" fill="#f8a27e"/><path d="M53.25,81h70.5v18h-70.5Z" fill="#fdb7bc"/><path d="M123.75,81h79v18h-79Z" fill="#faccfa"/><path d="M0,101h0.375v18h-0.375Z" fill="#011959"/><path d="M0.375,101h0v18h0Z" fill="#103f60"/><path d="M0.375,101h0.25v18h-0.25Z" fill="#1b5962"/><path d="M0.625,101h0.375v18h-0.375Z" fill="#3c6d56"/><path d="M1,101h1.25v18h-1.25Z" fill="#687b3e"/><path d="M2.25,101h3.125v18h-3.125Z" fill="#9d892b"/><path d="M5.375,101h6.625v18h-6.625Z" fill="#d29343"/><path d="M12,101h24.5v18h-24.5Z" fill="#f8a27e"/><path d="M36.5,101h52.5v18h-52.5Z" fill="#fdb7bc"/><path d="M89,101h94.75v18h-94.75Z" fill="#faccfa"/><path d="M0,21h4.75v18h-4.75Z" fill="#011959"/><path d="M4.75,21h1.75v18h-1.75Z" fill="#103f60"/><path d="M6.5,21h2.875v18h-2.875Z" fill="#1b5962"/><path d="M9.375,21h9.375v18h-9.375Z" fill="#3c6d56"/><path d="M18.75,21h19.5v18h-19.5Z" fill="#687b3e"/><path d="M38.25,21h11.625v18h-11.625Z" fill="#9d892b"/><path d="M49.875,21h24.625v18h-24.625Z" fill="#d29343"/><path d="M74.5,21h37.5v18h-37.5Z" fill="#f8a27e"/><path d="M112,21h31v18h-31Z" fill="#fdb7bc"/><path d="M143,21h129.375v18h-129.375Z" fill="#faccfa"/><path d="M0,221h5.125v18h-5.125Z" fill="#011959"/><path d="M5.125,221h1.125v18h-1.125Z" fill="#103f60"/><path d="M6.25,221h1.5v18h-1.5Z" fill="#1b5962"/><path d="M7.75,221h2v18h-2Z" fill="#3c6d56"/><path d="M9.75,221h3.125v18h-3.125Z" fill="#687b3e"/><path d="M12.875,221h0v18h0Z" fill="#9d892b"/><path d="M12.875,221h1.125v18h-1.125Z" fill="#d29343"/><path d="M14,221h0.5v18h-0.5Z" fill="#f8a27e"/><path d="M14.5,221h0v18h0Z" fill="#fdb7bc"/><path d="M14.5,221h3.75v18h-3.75Z" fill="#faccfa"/><path d="M0,161h0.375v18h-0.375Z" fill="#011959"/><path d="M0.375,161h0.5v18h-0.5Z" fill="#103f60"/><path d="M0.875,161h1.125v18h-1.125Z" fill="#1b5962"/><path d="M2,161h4.75v18h-4.75Z" fill="#3c6d56"/><path d="M6.75,161h5.5v18h-5.5Z" fill="#687b3e"/><path d="M12.25,161h6.25v18h-6.25Z" fill="#9d892b"/><path d="M18.5,161h13.25v18h-13.25Z" fill="#d29343"/><path d="M31.75,161h20.5v18h-20.5Z" fill="#f8a27e"/><path d="M52.25,161h10v18h-10Z" fill="#fdb7bc"/><path d="M62.25,161h78.375v18h-78.375Z" fill="#faccfa"/><path d="M0,121h6.25v18h-6.25Z" fill="#011959"/><path d="M6.25,121h4.5v18h-4.5Z" fill="#103f60"/><path d="M10.75,121h6.625v18h-6.625Z" fill="#1b5962"/><path d="M17.375,121h12v18h-12Z" fill="#3c6d56"/><path d="M29.375,121h15.875000000000007v18h-15.875000000000007Z" fill="#687b3e"/><path d="M45.25000000000001,121h7.499999999999993v18h-7.499999999999993Z" fill="#9d892b"/><path d="M52.75,121h10.375v18h-10.375Z" fill="#d29343"/><path d="M63.125,121h8v18h-8Z" fill="#f8a27e"/><path d="M71.125,121h4.375v18h-4.375Z" fill="#fdb7bc"/><path d="M75.5,121h72.75v18h-72.75Z" fill="#faccfa"/><path d="M0,141h0.25v18h-0.25Z" fill="#011959"/><path d="M0.25,141h0.75v18h-0.75Z" fill="#103f60"/><path d="M1,141h1.75v18h-1.75Z" fill="#1b5962"/><path d="M2.75,141h3.375v18h-3.375Z" fill="#3c6d56"/><path d="M6.125,141h6.375v18h-6.375Z" fill="#687b3e"/><path d="M12.5,141h7.625v18h-7.625Z" fill="#9d892b"/><path d="M20.125,141h10.125v18h-10.125Z" fill="#d29343"/><path d="M30.25,141h16.375v18h-16.375Z" fill="#f8a27e"/><path d="M46.625,141h14.375v18h-14.375Z" fill="#fdb7bc"/><path d="M61,141h85.375v18h-85.375Z" fill="#faccfa"/><path d="M0,181h15v18h-15Z" fill="#011959"/><path d="M15,181h1v18h-1Z" fill="#103f60"/><path d="M16,181h1.875v18h-1.875Z" fill="#1b5962"/><path d="M17.875,181h3.625v18h-3.625Z" fill="#3c6d56"/><path d="M21.5,181h10.25v18h-10.25Z" fill="#687b3e"/><path d="M31.75,181h0.375v18h-0.375Z" fill="#9d892b"/><path d="M32.125,181h2.625v18h-2.625Z" fill="#d29343"/><path d="M34.75,181h1.625v18h-1.625Z" fill="#f8a27e"/><path d="M36.375,181h0v18h0Z" fill="#fdb7bc"/><path d="M36.375,181h2.125v18h-2.125Z" fill="#faccfa"/><path d="M0,201h9v18h-9Z" fill="#011959"/><path d="M9,201h2.375v18h-2.375Z" fill="#103f60"/><path d="M11.375,201h1v18h-1Z" fill="#1b5962"/><path d="M12.375,201h2.875v18h-2.875Z" fill="#3c6d56"/><path d="M15.25,201h1.875v18h-1.875Z" fill="#687b3e"/><path d="M17.125,201h0.125v18h-0.125Z" fill="#9d892b"/><path d="M17.25,201h1v18h-1Z" fill="#d29343"/><path d="M18.25,201h0.25v18h-0.25Z" fill="#f8a27e"/><path d="M18.5,201h0v18h0Z" fill="#fdb7bc"/><path d="M18.5,201h5.625v18h-5.625Z" fill="#faccfa"/></g><g class="mark-text role-mark layer_1_marks" role="graphics-object" aria-roledescription="text mark container"><text text-anchor="middle" transform="translate(50.125,52)" font-family="sans-serif" font-size="8px" fill="white">14%</text><text text-anchor="middle" transform="translate(164.3125,52)" font-family="sans-serif" font-size="8px" fill="white">74%</text><text text-anchor="middle" transform="translate(38.5625,12)" font-family="sans-serif" font-size="8px" fill="white">10%</text><text text-anchor="middle" transform="translate(76.43750000000001,12)" font-family="sans-serif" font-size="8px" fill="white">17%</text><text text-anchor="middle" transform="translate(190.5625,12)" font-family="sans-serif" font-size="8px" fill="white">64%</text><text text-anchor="middle" transform="translate(36.5,72)" font-family="sans-serif" font-size="8px" fill="white">17%</text><text text-anchor="middle" transform="translate(86.8125,72)" font-family="sans-serif" font-size="8px" fill="white">31%</text><text text-anchor="middle" transform="translate(165.5,72)" font-family="sans-serif" font-size="8px" fill="white">44%</text><text text-anchor="middle" transform="translate(36.125,92)" font-family="sans-serif" font-size="8px" fill="white">17%</text><text text-anchor="middle" transform="translate(88.5,92)" font-family="sans-serif" font-size="8px" fill="white">35%</text><text text-anchor="middle" transform="translate(163.25,92)" font-family="sans-serif" font-size="8px" fill="white">39%</text><text text-anchor="middle" transform="translate(24.249999999999996,112)" font-family="sans-serif" font-size="8px" fill="white">13%</text><text text-anchor="middle" transform="translate(62.75,112)" font-family="sans-serif" font-size="8px" fill="white">29%</text><text text-anchor="middle" transform="translate(136.375,112)" font-family="sans-serif" font-size="8px" fill="white">52%</text><text text-anchor="middle" transform="translate(28.5,32)" font-family="sans-serif" font-size="8px" fill="white">7%</text><text text-anchor="middle" transform="translate(62.18750000000001,32)" font-family="sans-serif" font-size="8px" fill="white">9%</text><text text-anchor="middle" transform="translate(93.25,32)" font-family="sans-serif" font-size="8px" fill="white">14%</text><text text-anchor="middle" transform="translate(127.5,32)" font-family="sans-serif" font-size="8px" fill="white">11%</text><text text-anchor="middle" transform="translate(207.6875,32)" font-family="sans-serif" font-size="8px" fill="white">47%</text><text text-anchor="middle" transform="translate(42.00000000000001,172)" font-family="sans-serif" font-size="8px" fill="white">15%</text><text text-anchor="middle" transform="translate(101.4375,172)" font-family="sans-serif" font-size="8px" fill="white">56%</text><text text-anchor="middle" transform="translate(111.875,132)" font-family="sans-serif" font-size="8px" fill="white">49%</text><text text-anchor="middle" transform="translate(103.6875,152)" font-family="sans-serif" font-size="8px" fill="white">58%</text></g><g class="mark-group role-legend" role="graphics-symbol" aria-roledescription="legend" aria-label="Symbol legend titled 'explained peak fraction' for fill color with 10 values: 0.0–0.1, 0.1–0.2, 0.2–0.3, 0.3–0.4, 0.4–0.5, ending with 0.9–1.0"><g transform="translate(318,0)"><path class="background" aria-hidden="true" d="M0,0h123v144h-123Z" pointer-events="none"/><g><g class="mark-group role-legend-entry"><g transform="translate(0,16)"><path class="background" aria-hidden="true" d="M0,0h0v0h0Z" pointer-events="none"/><g><g class="mark-group role-scope" role="graphics-object" aria-roledescription="group mark container"><g transform="translate(0,0)"><path class="background" aria-hidden="true" d="M0,0h49.3642578125v11h-49.3642578125Z" pointer-events="none" opacity="1"/><g><g class="mark-symbol role-legend-symbol" pointer-events="none"><path transform="translate(6,6)" d="M-5,-5h10v10h-10Z" fill="#011959" stroke-width="1.5" opacity="1"/></g><g class="mark-text role-legend-label" pointer-events="none"><text text-anchor="start" transform="translate(16,9)" font-family="sans-serif" font-size="10px" fill="#000" opacity="1">0.0–0.1</text></g></g><path class="foreground" aria-hidden="true" d="" pointer-events="none" display="none"/></g><g transform="translate(0,13)"><path class="background" aria-hidden="true" d="M0,0h49.3642578125v11h-49.3642578125Z" pointer-events="none" opacity="1"/><g><g class="mark-symbol role-legend-symbol" pointer-events="none"><path transform="translate(6,6)" d="M-5,-5h10v10h-10Z" fill="#103f60" stroke-width="1.5" opacity="1"/></g><g class="mark-text role-legend-label" pointer-events="none"><text text-anchor="start" transform="translate(16,9)" font-family="sans-serif" font-size="10px" fill="#000" opacity="1">0.1–0.2</text></g></g><path class="foreground" aria-hidden="true" d="" pointer-events="none" display="none"/></g><g transform="translate(0,26)"><path class="background" aria-hidden="true" d="M0,0h49.3642578125v11h-49.3642578125Z" pointer-events="none" opacity="1"/><g><g class="mark-symbol role-legend-symbol" pointer-events="none"><path transform="translate(6,6)" d="M-5,-5h10v10h-10Z" fill="#1b5962" stroke-width="1.5" opacity="1"/></g><g class="mark-text role-legend-label" pointer-events="none"><text text-anchor="start" transform="translate(16,9)" font-family="sans-serif" font-size="10px" fill="#000" opacity="1">0.2–0.3</text></g></g><path class="foreground" aria-hidden="true" d="" pointer-events="none" display="none"/></g><g transform="translate(0,39)"><path class="background" aria-hidden="true" d="M0,0h49.3642578125v11h-49.3642578125Z" pointer-events="none" opacity="1"/><g><g class="mark-symbol role-legend-symbol" pointer-events="none"><path transform="translate(6,6)" d="M-5,-5h10v10h-10Z" fill="#3c6d56" stroke-width="1.5" opacity="1"/></g><g class="mark-text role-legend-label" pointer-events="none"><text text-anchor="start" transform="translate(16,9)" font-family="sans-serif" font-size="10px" fill="#000" opacity="1">0.3–0.4</text></g></g><path class="foreground" aria-hidden="true" d="" pointer-events="none" display="none"/></g><g transform="translate(0,52)"><path class="background" aria-hidden="true" d="M0,0h49.3642578125v11h-49.3642578125Z" pointer-events="none" opacity="1"/><g><g class="mark-symbol role-legend-symbol" pointer-events="none"><path transform="translate(6,6)" d="M-5,-5h10v10h-10Z" fill="#687b3e" stroke-width="1.5" opacity="1"/></g><g class="mark-text role-legend-label" pointer-events="none"><text text-anchor="start" transform="translate(16,9)" font-family="sans-serif" font-size="10px" fill="#000" opacity="1">0.4–0.5</text></g></g><path class="foreground" aria-hidden="true" d="" pointer-events="none" display="none"/></g><g transform="translate(0,65)"><path class="background" aria-hidden="true" d="M0,0h49.3642578125v11h-49.3642578125Z" pointer-events="none" opacity="1"/><g><g class="mark-symbol role-legend-symbol" pointer-events="none"><path transform="translate(6,6)" d="M-5,-5h10v10h-10Z" fill="#9d892b" stroke-width="1.5" opacity="1"/></g><g class="mark-text role-legend-label" pointer-events="none"><text text-anchor="start" transform="translate(16,9)" font-family="sans-serif" font-size="10px" fill="#000" opacity="1">0.5–0.6</text></g></g><path class="foreground" aria-hidden="true" d="" pointer-events="none" display="none"/></g><g transform="translate(0,78)"><path class="background" aria-hidden="true" d="M0,0h49.3642578125v11h-49.3642578125Z" pointer-events="none" opacity="1"/><g><g class="mark-symbol role-legend-symbol" pointer-events="none"><path transform="translate(6,6)" d="M-5,-5h10v10h-10Z" fill="#d29343" stroke-width="1.5" opacity="1"/></g><g class="mark-text role-legend-label" pointer-events="none"><text text-anchor="start" transform="translate(16,9)" font-family="sans-serif" font-size="10px" fill="#000" opacity="1">0.6–0.7</text></g></g><path class="foreground" aria-hidden="true" d="" pointer-events="none" display="none"/></g><g transform="translate(0,91)"><path class="background" aria-hidden="true" d="M0,0h49.3642578125v11h-49.3642578125Z" pointer-events="none" opacity="1"/><g><g class="mark-symbol role-legend-symbol" pointer-events="none"><path transform="translate(6,6)" d="M-5,-5h10v10h-10Z" fill="#f8a27e" stroke-width="1.5" opacity="1"/></g><g class="mark-text role-legend-label" pointer-events="none"><text text-anchor="start" transform="translate(16,9)" font-family="sans-serif" font-size="10px" fill="#000" opacity="1">0.7–0.8</text></g></g><path class="foreground" aria-hidden="true" d="" pointer-events="none" display="none"/></g><g transform="translate(0,104)"><path class="background" aria-hidden="true" d="M0,0h49.3642578125v11h-49.3642578125Z" pointer-events="none" opacity="1"/><g><g class="mark-symbol role-legend-symbol" pointer-events="none"><path transform="translate(6,6)" d="M-5,-5h10v10h-10Z" fill="#fdb7bc" stroke-width="1.5" opacity="1"/></g><g class="mark-text role-legend-label" pointer-events="none"><text text-anchor="start" transform="translate(16,9)" font-family="sans-serif" font-size="10px" fill="#000" opacity="1">0.8–0.9</text></g></g><path class="foreground" aria-hidden="true" d="" pointer-events="none" display="none"/></g><g transform="translate(0,117)"><path class="background" aria-hidden="true" d="M0,0h49.3642578125v11h-49.3642578125Z" pointer-events="none" opacity="1"/><g><g class="mark-symbol role-legend-symbol" pointer-events="none"><path transform="translate(6,6)" d="M-5,-5h10v10h-10Z" fill="#faccfa" stroke-width="1.5" opacity="1"/></g><g class="mark-text role-legend-label" pointer-events="none"><text text-anchor="start" transform="translate(16,9)" font-family="sans-serif" font-size="10px" fill="#000" opacity="1">0.9–1.0</text></g></g><path class="foreground" aria-hidden="true" d="" pointer-events="none" display="none"/></g></g></g><path class="foreground" aria-hidden="true" d="" pointer-events="none" display="none"/></g></g><g class="mark-text role-legend-title" pointer-events="none"><text text-anchor="start" transform="translate(0,9)" font-family="sans-serif" font-size="11px" font-weight="bold" fill="#000" opacity="1">explained peak fraction</text></g></g><path class="foreground" aria-hidden="true" d="" pointer-events="none" display="none"/></g></g><g class="mark-group role-title"><g transform="translate(150,-17)"><path class="background" aria-hidden="true" d="M0,0h0v0h0Z" pointer-events="none"/><g><g class="mark-text role-title-text" role="graphics-symbol" aria-roledescription="title" aria-label="Title text 'MSBuddy: explained peak fraction'" pointer-events="none"><text text-anchor="middle" transform="translate(0,10)" font-family="sans-serif" font-size="13px" font-weight="bold" fill="#000" opacity="1">MSBuddy: explained peak fraction</text></g></g><path class="foreground" aria-hidden="true" d="" pointer-events="none" display="none"/></g></g></g><path class="foreground" aria-hidden="true" d="" display="none"/></g></g></g></svg>