<svg xmlns="http://www.w3.org/2000/svg" xmlns:xlink="http://www.w3.org/1999/xlink" version="1.1" class="marks" width="509" height="299" viewBox="0 0 509 299"><rect width="509" height="299" fill="white"/><g fill="none" stroke-miterlimit="10" transform="translate(107,22)"><g class="mark-group role-frame root" role="graphics-object" aria-roledescription="group mark container"><g transform="translate(0,0)"><path class="background" aria-hidden="true" d="M0.5,0.5h300v240h-300Z" stroke="#ddd"/><g><g class="mark-group role-axis" aria-hidden="true"><g transform="translate(0.5,240.5)"><path class="background" aria-hidden="true" d="M0,0h0v0h0Z" pointer-events="none"/><g><g class="mark-rule role-axis-grid" pointer-events="none"><line transform="translate(0,0)" x2="0" y2="-240" stroke="#ddd" stroke-width="1" opacity="1"/><line transform="translate(25,0)" x2="0" y2="-240" stroke="#ddd" stroke-width="1" opacity="1"/><line transform="translate(50,0)" x2="0" y2="-240" stroke="#ddd" stroke-width="1" opacity="1"/><line transform="translate(75,0)" x2="0" y2="-240" stroke="#ddd" stroke-width="1" opacity="1"/><line transform="translate(100,0)" x2="0" y2="-240" stroke="#ddd" stroke-width="1" opacity="1"/><line transform="translate(125,0)" x2="0" y2="-240" stroke="#ddd" stroke-width="1" opacity="1"/><line transform="translate(150,0)" x2="0" y2="-240" stroke="#ddd" stroke-width="1" opacity="1"/><line transform="translate(175,0)" x2="0" y2="-240" stroke="#ddd" stroke-width="1" opacity="1"/><line transform="translate(200,0)" x2="0" y2="-240" stroke="#ddd" stroke-width="1" opacity="1"/><line transform="translate(225,0)" x2="0" y2="-240" stroke="#ddd" stroke-width="1" opacity="1"/><line transform="translate(250,0)" x2="0" y2="-240" stroke="#ddd" stroke-width="1" opacity="1"/><line transform="translate(275,0)" x2="0" y2="-240" stroke="#ddd" stroke-width="1" opacity="1"/><line transform="translate(300,0)" x2="0" y2="-240" stroke="#ddd" stroke-width="1" opacity="1"/></g></g><path class="foreground" aria-hidden="true" d="" pointer-events="none" display="none"/></g></g><g class="mark-group role-axis" role="graphics-symbol" aria-roledescription="axis" aria-label="X-axis titled 'Count' for a linear scale with values from 0 to 2,400"><g transform="translate(0.5,240.5)"><path class="background" aria-hidden="true" d="M0,0h0v0h0Z" pointer-events="none"/><g><g class="mark-rule role-axis-tick" pointer-events="none"><line transform="translate(0,0)" x2="0" y2="5" stroke="#888" stroke-width="1" opacity="1"/><line transform="translate(25,0)" x2="0" y2="5" stroke="#888" stroke-width="1" opacity="1"/><line transform="translate(50,0)" x2="0" y2="5" stroke="#888" stroke-width="1" opacity="1"/><line transform="translate(75,0)" x2="0" y2="5" stroke="#888" stroke-width="1" opacity="1"/><line transform="translate(100,0)" x2="0" y2="5" stroke="#888" stroke-width="1" opacity="1"/><line transform="translate(125,0)" x2="0" y2="5" stroke="#888" stroke-width="1" opacity="1"/><line transform="translate(150,0)" x2="0" y2="5" stroke="#888" stroke-width="1" opacity="1"/><line transform="translate(175,0)" x2="0" y2="5" stroke="#888" stroke-width="1" opacity="1"/><line transform="translate(200,0)" x2="0" y2="5" stroke="#888" stroke-width="1" opacity="1"/><line transform="translate(225,0)" x2="0" y2="5" stroke="#888" stroke-width="1" opacity="1"/><line transform="translate(250,0)" x2="0" y2="5" stroke="#888" stroke-width="1" opacity="1"/><line transform="translate(275,0)" x2="0" y2="5" stroke="#888" stroke-width="1" opacity="1"/><line transform="translate(300,0)" x2="0" y2="5" stroke="#888" stroke-width="1" opacity="1"/></g><g class="mark-text role-axis-label" pointer-events="none"><text text-anchor="start" transform="translate(0,15)" font-family="sans-serif" font-size="10px" fill="#000" opacity="1">0</text><text text-anchor="middle" transform="translate(25,15)" font-family="sans-serif" font-size="10px" fill="#000" opacity="0">200</text><text text-anchor="middle" transform="translate(50,15)" font-family="sans-serif" font-size="10px" fill="#000" opacity="1">400</text><text text-anchor="middle" transform="translate(75,15)" font-family="sans-serif" font-size="10px" fill="#000" opacity="0">600</text><text text-anchor="middle" transform="translate(100,15)" font-family="sans-serif" font-size="10px" fill="#000" opacity="1">800</text><text text-anchor="middle" transform="translate(125,15)" font-family="sans-serif" font-size="10px" fill="#000" opacity="0">1,000</text><text text-anchor="middle" transform="translate(150,15)" font-family="sans-serif" font-size="10px" fill="#000" opacity="1">1,200</text><text text-anchor="middle" transform="translate(175,15)" font-family="sans-serif" font-size="10px" fill="#000" opacity="0">1,400</text><text text-anchor="middle" transform="translate(200,15)" font-family="sans-serif" font-size="10px" fill="#000" opacity="1">1,600</text><text text-anchor="middle" transform="translate(225,15)" font-family="sans-serif" font-size="10px" fill="#000" opacity="0">1,800</text><text text-anchor="middle" transform="translate(250,15)" font-family="sans-serif" font-size="10px" fill="#000" opacity="1">2,000</text><text text-anchor="middle" transform="translate(275,15)" font-family="sans-serif" font-size="10px" fill="#000" opacity="0">2,200</text><text text-anchor="end" transform="translate(300,15)" font-family="sans-serif" font-size="10px" fill="#000" opacity="1">2,400</text></g><g class="mark-rule role-axis-domain" pointer-events="none"><line transform="translate(0,0)" x2="300" y2="0" stroke="#888" stroke-width="1" opacity="1"/></g><g class="mark-text role-axis-title" pointer-events="none"><text text-anchor="middle" transform="translate(150,30)" font-family="sans-serif" font-size="11px" font-weight="bold" fill="#000" opacity="1">Count</text></g></g><path class="foreground" aria-hidden="true" d="" pointer-events="none" display="none"/></g></g><g class="mark-group role-axis" role="graphics-symbol" aria-roledescription="axis" aria-label="Y-axis titled 'Group' for a discrete scale with 12 values: cid_[40.0]_positive, cid_[20.0]_positive, cid_[60.0]_positive, ead_[16.0]_positive, ead_[24.0]_positive, ending with ead_[16.0]_negative"><g transform="translate(0.5,0.5)"><path class="background" aria-hidden="true" d="M0,0h0v0h0Z" pointer-events="none"/><g><g class="mark-rule role-axis-tick" pointer-events="none"><line transform="translate(0,10)" x2="-5" y2="0" stroke="#888" stroke-width="1" opacity="1"/><line transform="translate(0,30)" x2="-5" y2="0" stroke="#888" stroke-width="1" opacity="1"/><line transform="translate(0,50)" x2="-5" y2="0" stroke="#888" stroke-width="1" opacity="1"/><line transform="translate(0,70)" x2="-5" y2="0" stroke="#888" stroke-width="1" opacity="1"/><line transform="translate(0,90)" x2="-5" y2="0" stroke="#888" stroke-width="1" opacity="1"/><line transform="translate(0,110)" x2="-5" y2="0" stroke="#888" stroke-width="1" opacity="1"/><line transform="translate(0,130)" x2="-5" y2="0" stroke="#888" stroke-width="1" opacity="1"/><line transform="translate(0,150)" x2="-5" y2="0" stroke="#888" stroke-width="1" opacity="1"/><line transform="translate(0,170)" x2="-5" y2="0" stroke="#888" stroke-width="1" opacity="1"/><line transform="translate(0,190)" x2="-5" y2="0" stroke="#888" stroke-width="1" opacity="1"/><line transform="translate(0,210)" x2="-5" y2="0" stroke="#888" stroke-width="1" opacity="1"/><line transform="translate(0,230)" x2="-5" y2="0" stroke="#888" stroke-width="1" opacity="1"/></g><g class="mark-text role-axis-label" pointer-events="none"><text text-anchor="end" transform="translate(-7,12.5)" font-family="sans-serif" font-size="10px" fill="#000" opacity="1">cid 40.0 positive</text><text text-anchor="end" transform="translate(-7,32.5)" font-family="sans-serif" font-size="10px" fill="#000" opacity="1">cid 20.0 positive</text><text text-anchor="end" transform="translate(-7,52.5)" font-family="sans-serif" font-size="10px" fill="#000" opacity="1">cid 60.0 positive</text><text text-anchor="end" transform="translate(-7,72.5)" font-family="sans-serif" font-size="10px" fill="#000" opacity="1">ead 16.0 positive</text><text text-anchor="end" transform="translate(-7,92.5)" font-family="sans-serif" font-size="10px" fill="#000" opacity="1">ead 24.0 positive</text><text text-anchor="end" transform="translate(-7,112.5)" font-family="sans-serif" font-size="10px" fill="#000" opacity="1">ead 12.0 positive</text><text text-anchor="end" transform="translate(-7,132.5)" font-family="sans-serif" font-size="10px" fill="#000" opacity="1">cid 20.0 negative</text><text text-anchor="end" transform="translate(-7,152.5)" font-family="sans-serif" font-size="10px" fill="#000" opacity="1">cid 40.0 negative</text><text text-anchor="end" transform="translate(-7,172.5)" font-family="sans-serif" font-size="10px" fill="#000" opacity="1">cid 60.0 negative</text><text text-anchor="end" transform="translate(-7,192.5)" font-family="sans-serif" font-size="10px" fill="#000" opacity="1">ead 24.0 negative</text><text text-anchor="end" transform="translate(-7,212.5)" font-family="sans-serif" font-size="10px" fill="#000" opacity="1">ead 12.0 negative</text><text text-anchor="end" transform="translate(-7,232.5)" font-family="sans-serif" font-size="10px" fill="#000" opacity="1">ead 16.0 negative</text></g><g class="mark-rule role-axis-domain" pointer-events="none"><line transform="translate(0,0)" x2="0" y2="240" stroke="#888" stroke-width="1" opacity="1"/></g><g class="mark-text role-axis-title" pointer-events="none"><text text-anchor="middle" transform="translate(-90.51171875,120) rotate(-90) translate(0,-2)" font-family="sans-serif" font-size="11px" font-weight="bold" fill="#000" opacity="1">Group</text></g></g><path class="foreground" aria-hidden="true" d="" pointer-events="none" display="none"/></g></g><g class="mark-rect role-mark layer_0_marks" role="graphics-symbol" aria-roledescription="rect mark container"><path d="M0,41h11.625v18h-11.625Z" fill="#011959"/><path d="M11.625,41h3.875v18h-3.875Z" fill="#103f60"/><path d="M15.5,41h2.75v18h-2.75Z" fill="#1b5962"/><path d="M18.25,41h3.75v18h-3.75Z" fill="#3c6d56"/><path d="M22,41h4.125v18h-4.125Z" fill="#687b3e"/><path d="M26.125,41h2.75v18h-2.75Z" fill="#9d892b"/><path d="M28.875,41h3.5v18h-3.5Z" fill="#d29343"/><path d="M32.375,41h5.125v18h-5.125Z" fill="#f8a27e"/><path d="M37.5,41h7.375000000000007v18h-7.375000000000007Z" fill="#fdb7bc"/><path d="M44.87500000000001,41h215.625v18h-215.625Z" fill="#faccfa"/><path d="M0,1h13.749999999999998v18h-13.749999999999998Z" fill="#011959"/><path d="M13.749999999999998,1h4.500000000000002v18h-4.500000000000002Z" fill="#103f60"/><path d="M18.25,1h4.125v18h-4.125Z" fill="#1b5962"/><path d="M22.375,1h3.875v18h-3.875Z" fill="#3c6d56"/><path d="M26.25,1h3.25v18h-3.25Z" fill="#687b3e"/><path d="M29.5,1h4.5v18h-4.5Z" fill="#9d892b"/><path d="M34,1h4.750000000000007v18h-4.750000000000007Z" fill="#d29343"/><path d="M38.75000000000001,1h5.249999999999993v18h-5.249999999999993Z" fill="#f8a27e"/><path d="M44,1h10.5v18h-10.5Z" fill="#fdb7bc"/><path d="M54.5,1h226.5v18h-226.5Z" fill="#faccfa"/><path d="M0,61h31.875v18h-31.875Z" fill="#011959"/><path d="M31.875,61h6.625v18h-6.625Z" fill="#103f60"/><path d="M38.5,61h6v18h-6Z" fill="#1b5962"/><path d="M44.5,61h5v18h-5Z" fill="#3c6d56"/><path d="M49.5,61h4v18h-4Z" fill="#687b3e"/><path d="M53.5,61h3.5v18h-3.5Z" fill="#9d892b"/><path d="M57,61h5.375v18h-5.375Z" fill="#d29343"/><path d="M62.375,61h7.125v18h-7.125Z" fill="#f8a27e"/><path d="M69.5,61h13.25v18h-13.25Z" fill="#fdb7bc"/><path d="M82.75,61h129.375v18h-129.375Z" fill="#faccfa"/><path d="M0,81h32.375v18h-32.375Z" fill="#011959"/><path d="M32.375,81h6.5v18h-6.5Z" fill="#103f60"/><path d="M38.875,81h6.749999999999993v18h-6.749999999999993Z" fill="#1b5962"/><path d="M45.62499999999999,81h4.125000000000007v18h-4.125000000000007Z" fill="#3c6d56"/><path d="M49.75,81h4.625v18h-4.625Z" fill="#687b3e"/><path d="M54.375,81h4.125v18h-4.125Z" fill="#9d892b"/><path d="M58.5,81h6.625v18h-6.625Z" fill="#d29343"/><path d="M65.125,81h7.125v18h-7.125Z" fill="#f8a27e"/><path d="M72.25,81h12v18h-12Z" fill="#fdb7bc"/><path d="M84.25,81h118.75v18h-118.75Z" fill="#faccfa"/><path d="M0,101h20.5v18h-20.5Z" fill="#011959"/><path d="M20.5,101h5.25v18h-5.25Z" fill="#103f60"/><path d="M25.75,101h4.9999999999999964v18h-4.9999999999999964Z" fill="#1b5962"/><path d="M30.749999999999996,101h3.6250000000000036v18h-3.6250000000000036Z" fill="#3c6d56"/><path d="M34.375,101h3.25v18h-3.25Z" fill="#687b3e"/><path d="M37.625,101h4.125v18h-4.125Z" fill="#9d892b"/><path d="M41.75,101h4.75v18h-4.75Z" fill="#d29343"/><path d="M46.5,101h6.75v18h-6.75Z" fill="#f8a27e"/><path d="M53.25,101h11v18h-11Z" fill="#fdb7bc"/><path d="M64.25,101h119.875v18h-119.875Z" fill="#faccfa"/><path d="M0,21h26.75v18h-26.75Z" fill="#011959"/><path d="M26.75,21h5.5v18h-5.5Z" fill="#103f60"/><path d="M32.25,21h4.625v18h-4.625Z" fill="#1b5962"/><path d="M36.875,21h4.5v18h-4.5Z" fill="#3c6d56"/><path d="M41.375,21h4.5v18h-4.5Z" fill="#687b3e"/><path d="M45.875,21h4.75v18h-4.75Z" fill="#9d892b"/><path d="M50.625,21h5v18h-5Z" fill="#d29343"/><path d="M55.625,21h7.125v18h-7.125Z" fill="#f8a27e"/><path d="M62.75,21h10.875v18h-10.875Z" fill="#fdb7bc"/><path d="M73.625,21h200.25v18h-200.25Z" fill="#faccfa"/><path d="M0,221h4.625v18h-4.625Z" fill="#011959"/><path d="M4.625,221h1.125v18h-1.125Z" fill="#103f60"/><path d="M5.75,221h1v18h-1Z" fill="#1b5962"/><path d="M6.75,221h1v18h-1Z" fill="#3c6d56"/><path d="M7.75,221h0.375v18h-0.375Z" fill="#687b3e"/><path d="M8.125,221h0.25v18h-0.25Z" fill="#9d892b"/><path d="M8.375,221h0.25v18h-0.25Z" fill="#d29343"/><path d="M8.625,221h0.75v18h-0.75Z" fill="#f8a27e"/><path d="M9.375,221h1.25v18h-1.25Z" fill="#fdb7bc"/><path d="M10.625,221h7.875v18h-7.875Z" fill="#faccfa"/><path d="M0,161h14.75v18h-14.75Z" fill="#011959"/><path d="M14.75,161h4.375v18h-4.375Z" fill="#103f60"/><path d="M19.125,161h2.875v18h-2.875Z" fill="#1b5962"/><path d="M22,161h2.75v18h-2.75Z" fill="#3c6d56"/><path d="M24.75,161h3.5v18h-3.5Z" fill="#687b3e"/><path d="M28.25,161h3.5v18h-3.5Z" fill="#9d892b"/><path d="M31.75,161h3.375v18h-3.375Z" fill="#d29343"/><path d="M35.125,161h3.25v18h-3.25Z" fill="#f8a27e"/><path d="M38.375,161h7.125v18h-7.125Z" fill="#fdb7bc"/><path d="M45.5,161h95.125v18h-95.125Z" fill="#faccfa"/><path d="M0,121h22.125v18h-22.125Z" fill="#011959"/><path d="M22.125,121h4v18h-4Z" fill="#103f60"/><path d="M26.125,121h3.375v18h-3.375Z" fill="#1b5962"/><path d="M29.5,121h3.75v18h-3.75Z" fill="#3c6d56"/><path d="M33.25,121h4.375v18h-4.375Z" fill="#687b3e"/><path d="M37.625,121h2.25v18h-2.25Z" fill="#9d892b"/><path d="M39.875,121h2.874999999999993v18h-2.874999999999993Z" fill="#d29343"/><path d="M42.74999999999999,121h4.250000000000007v18h-4.250000000000007Z" fill="#f8a27e"/><path d="M47,121h8.375v18h-8.375Z" fill="#fdb7bc"/><path d="M55.375,121h93.125v18h-93.125Z" fill="#faccfa"/><path d="M0,141h14.375000000000002v18h-14.375000000000002Z" fill="#011959"/><path d="M14.375000000000002,141h3.4999999999999982v18h-3.4999999999999982Z" fill="#103f60"/><path d="M17.875,141h3.25v18h-3.25Z" fill="#1b5962"/><path d="M21.125,141h2.75v18h-2.75Z" fill="#3c6d56"/><path d="M23.875,141h2.5v18h-2.5Z" fill="#687b3e"/><path d="M26.375,141h2.5v18h-2.5Z" fill="#9d892b"/><path d="M28.875,141h3.5v18h-3.5Z" fill="#d29343"/><path d="M32.375,141h3.875v18h-3.875Z" fill="#f8a27e"/><path d="M36.25,141h6.75v18h-6.75Z" fill="#fdb7bc"/><path d="M43,141h103.375v18h-103.375Z" fill="#faccfa"/><path d="M0,181h11.375v18h-11.375Z" fill="#011959"/><path d="M11.375,181h1.875v18h-1.875Z" fill="#103f60"/><path d="M13.25,181h1v18h-1Z" fill="#1b5962"/><path d="M14.25,181h1.5v18h-1.5Z" fill="#3c6d56"/><path d="M15.75,181h1.625v18h-1.625Z" fill="#687b3e"/><path d="M17.375,181h0.75v18h-0.75Z" fill="#9d892b"/><path d="M18.125,181h1.125v18h-1.125Z" fill="#d29343"/><path d="M19.25,181h1.25v18h-1.25Z" fill="#f8a27e"/><path d="M20.5,181h2.5v18h-2.5Z" fill="#fdb7bc"/><path d="M23,181h15.5v18h-15.5Z" fill="#faccfa"/><path d="M0,201h5.5v18h-5.5Z" fill="#011959"/><path d="M5.5,201h1.625v18h-1.625Z" fill="#103f60"/><path d="M7.125,201h1.25v18h-1.25Z" fill="#1b5962"/><path d="M8.375,201h0.875v18h-0.875Z" fill="#3c6d56"/><path d="M9.25,201h0.6249999999999982v18h-0.6249999999999982Z" fill="#687b3e"/><path d="M9.874999999999998,201h0.2500000000000018v18h-0.2500000000000018Z" fill="#9d892b"/><path d="M10.125,201h1.25v18h-1.25Z" fill="#d29343"/><path d="M11.375,201h0.5v18h-0.5Z" fill="#f8a27e"/><path d="M11.875,201h0.75v18h-0.75Z" fill="#fdb7bc"/><path d="M12.625,201h11.875v18h-11.875Z" fill="#faccfa"/></g><g class="mark-text role-mark layer_1_marks" role="graphics-object" aria-roledescription="text mark container"><text text-anchor="middle" transform="translate(152.6875,52)" font-family="sans-serif" font-size="8px" fill="white">83%</text><text text-anchor="middle" transform="translate(167.75,12)" font-family="sans-serif" font-size="8px" fill="white">81%</text><text text-anchor="middle" transform="translate(15.9375,72)" font-family="sans-serif" font-size="8px" fill="white">15%</text><text text-anchor="middle" transform="translate(147.4375,72)" font-family="sans-serif" font-size="8px" fill="white">61%</text><text text-anchor="middle" transform="translate(16.1875,92)" font-family="sans-serif" font-size="8px" fill="white">16%</text><text text-anchor="middle" transform="translate(143.625,92)" font-family="sans-serif" font-size="8px" fill="white">58%</text><text text-anchor="middle" transform="translate(124.1875,112)" font-family="sans-serif" font-size="8px" fill="white">65%</text><text text-anchor="middle" transform="translate(13.375,32)" font-family="sans-serif" font-size="8px" fill="white">10%</text><text text-anchor="middle" transform="translate(173.75000000000003,32)" font-family="sans-serif" font-size="8px" fill="white">73%</text><text text-anchor="middle" transform="translate(93.06249999999999,172)" font-family="sans-serif" font-size="8px" fill="white">68%</text><text text-anchor="middle" transform="translate(101.9375,132)" font-family="sans-serif" font-size="8px" fill="white">63%</text><text text-anchor="middle" transform="translate(94.6875,152)" font-family="sans-serif" font-size="8px" fill="white">71%</text></g><g class="mark-group role-legend" role="graphics-symbol" aria-roledescription="legend" aria-label="Symbol legend titled 'estimated prob' for fill color with 10 values: 0.0–0.1, 0.1–0.2, 0.2–0.3, 0.3–0.4, 0.4–0.5, ending with 0.9–1.0"><g transform="translate(318,0)"><path class="background" aria-hidden="true" d="M0,0h79v144h-79Z" pointer-events="none"/><g><g class="mark-group role-legend-entry"><g transform="translate(0,16)"><path class="background" aria-hidden="true" d="M0,0h0v0h0Z" pointer-events="none"/><g><g class="mark-group role-scope" role="graphics-object" aria-roledescription="group mark container"><g transform="translate(0,0)"><path class="background" aria-hidden="true" d="M0,0h49.3642578125v11h-49.3642578125Z" pointer-events="none" opacity="1"/><g><g class="mark-symbol role-legend-symbol" pointer-events="none"><path transform="translate(6,6)" d="M-5,-5h10v10h-10Z" fill="#011959" stroke-width="1.5" opacity="1"/></g><g class="mark-text role-legend-label" pointer-events="none"><text text-anchor="start" transform="translate(16,9)" font-family="sans-serif" font-size="10px" fill="#000" opacity="1">0.0–0.1</text></g></g><path class="foreground" aria-hidden="true" d="" pointer-events="none" display="none"/></g><g transform="translate(0,13)"><path class="background" aria-hidden="true" d="M0,0h49.3642578125v11h-49.3642578125Z" pointer-events="none" opacity="1"/><g><g class="mark-symbol role-legend-symbol" pointer-events="none"><path transform="translate(6,6)" d="M-5,-5h10v10h-10Z" fill="#103f60" stroke-width="1.5" opacity="1"/></g><g class="mark-text role-legend-label" pointer-events="none"><text text-anchor="start" transform="translate(16,9)" font-family="sans-serif" font-size="10px" fill="#000" opacity="1">0.1–0.2</text></g></g><path class="foreground" aria-hidden="true" d="" pointer-events="none" display="none"/></g><g transform="translate(0,26)"><path class="background" aria-hidden="true" d="M0,0h49.3642578125v11h-49.3642578125Z" pointer-events="none" opacity="1"/><g><g class="mark-symbol role-legend-symbol" pointer-events="none"><path transform="translate(6,6)" d="M-5,-5h10v10h-10Z" fill="#1b5962" stroke-width="1.5" opacity="1"/></g><g class="mark-text role-legend-label" pointer-events="none"><text text-anchor="start" transform="translate(16,9)" font-family="sans-serif" font-size="10px" fill="#000" opacity="1">0.2–0.3</text></g></g><path class="foreground" aria-hidden="true" d="" pointer-events="none" display="none"/></g><g transform="translate(0,39)"><path class="background" aria-hidden="true" d="M0,0h49.3642578125v11h-49.3642578125Z" pointer-events="none" opacity="1"/><g><g class="mark-symbol role-legend-symbol" pointer-events="none"><path transform="translate(6,6)" d="M-5,-5h10v10h-10Z" fill="#3c6d56" stroke-width="1.5" opacity="1"/></g><g class="mark-text role-legend-label" pointer-events="none"><text text-anchor="start" transform="translate(16,9)" font-family="sans-serif" font-size="10px" fill="#000" opacity="1">0.3–0.4</text></g></g><path class="foreground" aria-hidden="true" d="" pointer-events="none" display="none"/></g><g transform="translate(0,52)"><path class="background" aria-hidden="true" d="M0,0h49.3642578125v11h-49.3642578125Z" pointer-events="none" opacity="1"/><g><g class="mark-symbol role-legend-symbol" pointer-events="none"><path transform="translate(6,6)" d="M-5,-5h10v10h-10Z" fill="#687b3e" stroke-width="1.5" opacity="1"/></g><g class="mark-text role-legend-label" pointer-events="none"><text text-anchor="start" transform="translate(16,9)" font-family="sans-serif" font-size="10px" fill="#000" opacity="1">0.4–0.5</text></g></g><path class="foreground" aria-hidden="true" d="" pointer-events="none" display="none"/></g><g transform="translate(0,65)"><path class="background" aria-hidden="true" d="M0,0h49.3642578125v11h-49.3642578125Z" pointer-events="none" opacity="1"/><g><g class="mark-symbol role-legend-symbol" pointer-events="none"><path transform="translate(6,6)" d="M-5,-5h10v10h-10Z" fill="#9d892b" stroke-width="1.5" opacity="1"/></g><g class="mark-text role-legend-label" pointer-events="none"><text text-anchor="start" transform="translate(16,9)" font-family="sans-serif" font-size="10px" fill="#000" opacity="1">0.5–0.6</text></g></g><path class="foreground" aria-hidden="true" d="" pointer-events="none" display="none"/></g><g transform="translate(0,78)"><path class="background" aria-hidden="true" d="M0,0h49.3642578125v11h-49.3642578125Z" pointer-events="none" opacity="1"/><g><g class="mark-symbol role-legend-symbol" pointer-events="none"><path transform="translate(6,6)" d="M-5,-5h10v10h-10Z" fill="#d29343" stroke-width="1.5" opacity="1"/></g><g class="mark-text role-legend-label" pointer-events="none"><text text-anchor="start" transform="translate(16,9)" font-family="sans-serif" font-size="10px" fill="#000" opacity="1">0.6–0.7</text></g></g><path class="foreground" aria-hidden="true" d="" pointer-events="none" display="none"/></g><g transform="translate(0,91)"><path class="background" aria-hidden="true" d="M0,0h49.3642578125v11h-49.3642578125Z" pointer-events="none" opacity="1"/><g><g class="mark-symbol role-legend-symbol" pointer-events="none"><path transform="translate(6,6)" d="M-5,-5h10v10h-10Z" fill="#f8a27e" stroke-width="1.5" opacity="1"/></g><g class="mark-text role-legend-label" pointer-events="none"><text text-anchor="start" transform="translate(16,9)" font-family="sans-serif" font-size="10px" fill="#000" opacity="1">0.7–0.8</text></g></g><path class="foreground" aria-hidden="true" d="" pointer-events="none" display="none"/></g><g transform="translate(0,104)"><path class="background" aria-hidden="true" d="M0,0h49.3642578125v11h-49.3642578125Z" pointer-events="none" opacity="1"/><g><g class="mark-symbol role-legend-symbol" pointer-events="none"><path transform="translate(6,6)" d="M-5,-5h10v10h-10Z" fill="#fdb7bc" stroke-width="1.5" opacity="1"/></g><g class="mark-text role-legend-label" pointer-events="none"><text text-anchor="start" transform="translate(16,9)" font-family="sans-serif" font-size="10px" fill="#000" opacity="1">0.8–0.9</text></g></g><path class="foreground" aria-hidden="true" d="" pointer-events="none" display="none"/></g><g transform="translate(0,117)"><path class="background" aria-hidden="true" d="M0,0h49.3642578125v11h-49.3642578125Z" pointer-events="none" opacity="1"/><g><g class="mark-symbol role-legend-symbol" pointer-events="none"><path transform="translate(6,6)" d="M-5,-5h10v10h-10Z" fill="#faccfa" stroke-width="1.5" opacity="1"/></g><g class="mark-text role-legend-label" pointer-events="none"><text text-anchor="start" transform="translate(16,9)" font-family="sans-serif" font-size="10px" fill="#000" opacity="1">0.9–1.0</text></g></g><path class="foreground" aria-hidden="true" d="" pointer-events="none" display="none"/></g></g></g><path class="foreground" aria-hidden="true" d="" pointer-events="none" display="none"/></g></g><g class="mark-text role-legend-title" pointer-events="none"><text text-anchor="start" transform="translate(0,9)" font-family="sans-serif" font-size="11px" font-weight="bold" fill="#000" opacity="1">estimated prob</text></g></g><path class="foreground" aria-hidden="true" d="" pointer-events="none" display="none"/></g></g><g class="mark-group role-title"><g transform="translate(150,-17)"><path class="background" aria-hidden="true" d="M0,0h0v0h0Z" pointer-events="none"/><g><g class="mark-text role-title-text" role="graphics-symbol" aria-roledescription="title" aria-label="Title text 'MSBuddy: estimated prob'" pointer-events="none"><text text-anchor="middle" transform="translate(0,10)" font-family="sans-serif" font-size="13px" font-weight="bold" fill="#000" opacity="1">MSBuddy: estimated prob</text></g></g><path class="foreground" aria-hidden="true" d="" pointer-events="none" display="none"/></g></g></g><path class="foreground" aria-hidden="true" d="" display="none"/></g></g></g></svg>