<svg xmlns="http://www.w3.org/2000/svg" xmlns:xlink="http://www.w3.org/1999/xlink" version="1.1" class="marks" width="555" height="299" viewBox="0 0 555 299"><rect width="555" height="299" fill="white"/><g fill="none" stroke-miterlimit="10" transform="translate(107,22)"><g class="mark-group role-frame root" role="graphics-object" aria-roledescription="group mark container"><g transform="translate(0,0)"><path class="background" aria-hidden="true" d="M0.5,0.5h300v240h-300Z" stroke="#ddd"/><g><g class="mark-group role-axis" aria-hidden="true"><g transform="translate(0.5,240.5)"><path class="background" aria-hidden="true" d="M0,0h0v0h0Z" pointer-events="none"/><g><g class="mark-rule role-axis-grid" pointer-events="none"><line transform="translate(0,0)" x2="0" y2="-240" stroke="#ddd" stroke-width="1" opacity="1"/><line transform="translate(58,0)" x2="0" y2="-240" stroke="#ddd" stroke-width="1" opacity="1"/><line transform="translate(115,0)" x2="0" y2="-240" stroke="#ddd" stroke-width="1" opacity="1"/><line transform="translate(173,0)" x2="0" y2="-240" stroke="#ddd" stroke-width="1" opacity="1"/><line transform="translate(231,0)" x2="0" y2="-240" stroke="#ddd" stroke-width="1" opacity="1"/><line transform="translate(288,0)" x2="0" y2="-240" stroke="#ddd" stroke-width="1" opacity="1"/></g></g><path class="foreground" aria-hidden="true" d="" pointer-events="none" display="none"/></g></g><g class="mark-group role-axis" role="graphics-symbol" aria-roledescription="axis" aria-label="X-axis titled 'Count' for a linear scale with values from 0 to 2,600"><g transform="translate(0.5,240.5)"><path class="background" aria-hidden="true" d="M0,0h0v0h0Z" pointer-events="none"/><g><g class="mark-rule role-axis-tick" pointer-events="none"><line transform="translate(0,0)" x2="0" y2="5" stroke="#888" stroke-width="1" opacity="1"/><line transform="translate(58,0)" x2="0" y2="5" stroke="#888" stroke-width="1" opacity="1"/><line transform="translate(115,0)" x2="0" y2="5" stroke="#888" stroke-width="1" opacity="1"/><line transform="translate(173,0)" x2="0" y2="5" stroke="#888" stroke-width="1" opacity="1"/><line transform="translate(231,0)" x2="0" y2="5" stroke="#888" stroke-width="1" opacity="1"/><line transform="translate(288,0)" x2="0" y2="5" stroke="#888" stroke-width="1" opacity="1"/></g><g class="mark-text role-axis-label" pointer-events="none"><text text-anchor="start" transform="translate(0,15)" font-family="sans-serif" font-size="10px" fill="#000" opacity="1">0</text><text text-anchor="middle" transform="translate(57.69230769230769,15)" font-family="sans-serif" font-size="10px" fill="#000" opacity="1">500</text><text text-anchor="middle" transform="translate(115.38461538461539,15)" font-family="sans-serif" font-size="10px" fill="#000" opacity="1">1,000</text><text text-anchor="middle" transform="translate(173.07692307692307,15)" font-family="sans-serif" font-size="10px" fill="#000" opacity="1">1,500</text><text text-anchor="middle" transform="translate(230.76923076923077,15)" font-family="sans-serif" font-size="10px" fill="#000" opacity="1">2,000</text><text text-anchor="middle" transform="translate(288.46153846153845,15)" font-family="sans-serif" font-size="10px" fill="#000" opacity="1">2,500</text></g><g class="mark-rule role-axis-domain" pointer-events="none"><line transform="translate(0,0)" x2="300" y2="0" stroke="#888" stroke-width="1" opacity="1"/></g><g class="mark-text role-axis-title" pointer-events="none"><text text-anchor="middle" transform="translate(150,30)" font-family="sans-serif" font-size="11px" font-weight="bold" fill="#000" opacity="1">Count</text></g></g><path class="foreground" aria-hidden="true" d="" pointer-events="none" display="none"/></g></g><g class="mark-group role-axis" role="graphics-symbol" aria-roledescription="axis" aria-label="Y-axis titled 'Group' for a discrete scale with 12 values: cid_[40.0]_positive, cid_[20.0]_positive, cid_[60.0]_positive, ead_[16.0]_positive, ead_[24.0]_positive, ending with ead_[16.0]_negative"><g transform="translate(0.5,0.5)"><path class="background" aria-hidden="true" d="M0,0h0v0h0Z" pointer-events="none"/><g><g class="mark-rule role-axis-tick" pointer-events="none"><line transform="translate(0,10)" x2="-5" y2="0" stroke="#888" stroke-width="1" opacity="1"/><line transform="translate(0,30)" x2="-5" y2="0" stroke="#888" stroke-width="1" opacity="1"/><line transform="translate(0,50)" x2="-5" y2="0" stroke="#888" stroke-width="1" opacity="1"/><line transform="translate(0,70)" x2="-5" y2="0" stroke="#888" stroke-width="1" opacity="1"/><line transform="translate(0,90)" x2="-5" y2="0" stroke="#888" stroke-width="1" opacity="1"/><line transform="translate(0,110)" x2="-5" y2="0" stroke="#888" stroke-width="1" opacity="1"/><line transform="translate(0,130)" x2="-5" y2="0" stroke="#888" stroke-width="1" opacity="1"/><line transform="translate(0,150)" x2="-5" y2="0" stroke="#888" stroke-width="1" opacity="1"/><line transform="translate(0,170)" x2="-5" y2="0" stroke="#888" stroke-width="1" opacity="1"/><line transform="translate(0,190)" x2="-5" y2="0" stroke="#888" stroke-width="1" opacity="1"/><line transform="translate(0,210)" x2="-5" y2="0" stroke="#888" stroke-width="1" opacity="1"/><line transform="translate(0,230)" x2="-5" y2="0" stroke="#888" stroke-width="1" opacity="1"/></g><g class="mark-text role-axis-label" pointer-events="none"><text text-anchor="end" transform="translate(-7,12.5)" font-family="sans-serif" font-size="10px" fill="#000" opacity="1">cid 40.0 positive</text><text text-anchor="end" transform="translate(-7,32.5)" font-family="sans-serif" font-size="10px" fill="#000" opacity="1">cid 20.0 positive</text><text text-anchor="end" transform="translate(-7,52.5)" font-family="sans-serif" font-size="10px" fill="#000" opacity="1">cid 60.0 positive</text><text text-anchor="end" transform="translate(-7,72.5)" font-family="sans-serif" font-size="10px" fill="#000" opacity="1">ead 16.0 positive</text><text text-anchor="end" transform="translate(-7,92.5)" font-family="sans-serif" font-size="10px" fill="#000" opacity="1">ead 24.0 positive</text><text text-anchor="end" transform="translate(-7,112.5)" font-family="sans-serif" font-size="10px" fill="#000" opacity="1">ead 12.0 positive</text><text text-anchor="end" transform="translate(-7,132.5)" font-family="sans-serif" font-size="10px" fill="#000" opacity="1">cid 40.0 negative</text><text text-anchor="end" transform="translate(-7,152.5)" font-family="sans-serif" font-size="10px" fill="#000" opacity="1">cid 20.0 negative</text><text text-anchor="end" transform="translate(-7,172.5)" font-family="sans-serif" font-size="10px" fill="#000" opacity="1">cid 60.0 negative</text><text text-anchor="end" transform="translate(-7,192.5)" font-family="sans-serif" font-size="10px" fill="#000" opacity="1">ead 24.0 negative</text><text text-anchor="end" transform="translate(-7,212.5)" font-family="sans-serif" font-size="10px" fill="#000" opacity="1">ead 12.0 negative</text><text text-anchor="end" transform="translate(-7,232.5)" font-family="sans-serif" font-size="10px" fill="#000" opacity="1">ead 16.0 negative</text></g><g class="mark-rule role-axis-domain" pointer-events="none"><line transform="translate(0,0)" x2="0" y2="240" stroke="#888" stroke-width="1" opacity="1"/></g><g class="mark-text role-axis-title" pointer-events="none"><text text-anchor="middle" transform="translate(-90.51171875,120) rotate(-90) translate(0,-2)" font-family="sans-serif" font-size="11px" font-weight="bold" fill="#000" opacity="1">Group</text></g></g><path class="foreground" aria-hidden="true" d="" pointer-events="none" display="none"/></g></g><g class="mark-rect role-mark layer_0_marks" role="graphics-symbol" aria-roledescription="rect mark container"><path d="M0,141h137.07692307692307v18h-137.07692307692307Z" fill="#004488"/><path d="M137.07692307692307,141h13.15384615384616v18h-13.15384615384616Z" fill="#DDAA33"/><path d="M150.23076923076923,141h0v18h0Z" fill="#BB5566"/><path d="M0,21h252.80769230769232v18h-252.80769230769232Z" fill="#004488"/><path d="M252.80769230769232,21h25.03846153846149v18h-25.03846153846149Z" fill="#DDAA33"/><path d="M277.8461538461538,21h0v18h0Z" fill="#BB5566"/><path d="M0,121h135.1153846153846v18h-135.1153846153846Z" fill="#004488"/><path d="M135.1153846153846,121h16.730769230769226v18h-16.730769230769226Z" fill="#DDAA33"/><path d="M151.84615384615384,121h0v18h0Z" fill="#BB5566"/><path d="M0,1h259.38461538461536v18h-259.38461538461536Z" fill="#004488"/><path d="M259.38461538461536,1h35.192307692307736v18h-35.192307692307736Z" fill="#DDAA33"/><path d="M294.5769230769231,1h0v18h0Z" fill="#BB5566"/><path d="M0,161h129.80769230769232v18h-129.80769230769232Z" fill="#004488"/><path d="M129.80769230769232,161h16.384615384615387v18h-16.384615384615387Z" fill="#DDAA33"/><path d="M146.1923076923077,161h0v18h0Z" fill="#BB5566"/><path d="M0,41h240.46153846153845v18h-240.46153846153845Z" fill="#004488"/><path d="M240.46153846153845,41h37.03846153846155v18h-37.03846153846155Z" fill="#DDAA33"/><path d="M277.5,41h0v18h0Z" fill="#BB5566"/><path d="M0,201h22.615384615384613v18h-22.615384615384613Z" fill="#004488"/><path d="M22.615384615384613,201h1.6153846153846203v18h-1.6153846153846203Z" fill="#DDAA33"/><path d="M24.230769230769234,201h0v18h0Z" fill="#BB5566"/><path d="M0,101h169.96153846153845v18h-169.96153846153845Z" fill="#004488"/><path d="M169.96153846153845,101h21.923076923076934v18h-21.923076923076934Z" fill="#DDAA33"/><path d="M191.8846153846154,101h0v18h0Z" fill="#BB5566"/><path d="M0,221h17.076923076923077v18h-17.076923076923077Z" fill="#004488"/><path d="M17.076923076923077,221h1.6153846153846168v18h-1.6153846153846168Z" fill="#DDAA33"/><path d="M18.692307692307693,221h0v18h0Z" fill="#BB5566"/><path d="M0,61h195.8076923076923v18h-195.8076923076923Z" fill="#004488"/><path d="M195.8076923076923,61h20.423076923076934v18h-20.423076923076934Z" fill="#DDAA33"/><path d="M216.23076923076923,61h0v18h0Z" fill="#BB5566"/><path d="M0,181h35.53846153846154v18h-35.53846153846154Z" fill="#004488"/><path d="M35.53846153846154,181h2.7692307692307665v18h-2.7692307692307665Z" fill="#DDAA33"/><path d="M38.30769230769231,181h0v18h0Z" fill="#BB5566"/><path d="M0,81h187.38461538461536v18h-187.38461538461536Z" fill="#004488"/><path d="M187.38461538461536,81h15.115384615384642v18h-15.115384615384642Z" fill="#DDAA33"/><path d="M202.5,81h0v18h0Z" fill="#BB5566"/></g><g class="mark-text role-mark layer_1_marks" role="graphics-object" aria-roledescription="text mark container"><text text-anchor="middle" transform="translate(68.53846153846153,152)" font-family="sans-serif" font-size="8px" fill="white">91%</text><text text-anchor="middle" transform="translate(126.40384615384616,32)" font-family="sans-serif" font-size="8px" fill="white">91%</text><text text-anchor="middle" transform="translate(67.5576923076923,132)" font-family="sans-serif" font-size="8px" fill="white">89%</text><text text-anchor="middle" transform="translate(129.69230769230768,12)" font-family="sans-serif" font-size="8px" fill="white">88%</text><text text-anchor="middle" transform="translate(276.9807692307692,12)" font-family="sans-serif" font-size="8px" fill="white">12%</text><text text-anchor="middle" transform="translate(64.90384615384616,172)" font-family="sans-serif" font-size="8px" fill="white">89%</text><text text-anchor="middle" transform="translate(120.23076923076923,52)" font-family="sans-serif" font-size="8px" fill="white">87%</text><text text-anchor="middle" transform="translate(258.9807692307692,52)" font-family="sans-serif" font-size="8px" fill="white">13%</text><text text-anchor="middle" transform="translate(84.98076923076923,112)" font-family="sans-serif" font-size="8px" fill="white">89%</text><text text-anchor="middle" transform="translate(97.90384615384615,72)" font-family="sans-serif" font-size="8px" fill="white">91%</text><text text-anchor="middle" transform="translate(17.76923076923077,192)" font-family="sans-serif" font-size="8px" fill="white">93%</text><text text-anchor="middle" transform="translate(93.69230769230768,92)" font-family="sans-serif" font-size="8px" fill="white">93%</text></g><g class="mark-group role-legend" role="graphics-symbol" aria-roledescription="legend" aria-label="Symbol legend titled 'Status' for fill color with 3 values: Formula found, correct, Formula found, incorrect, Formula not found"><g transform="translate(318,0)"><path class="background" aria-hidden="true" d="M0,0h125v53h-125Z" pointer-events="none"/><g><g class="mark-group role-legend-entry"><g transform="translate(0,16)"><path class="background" aria-hidden="true" d="M0,0h0v0h0Z" pointer-events="none"/><g><g class="mark-group role-scope" role="graphics-object" aria-roledescription="group mark container"><g transform="translate(0,0)"><path class="background" aria-hidden="true" d="M0,0h124.37890625v11h-124.37890625Z" pointer-events="none" opacity="1"/><g><g class="mark-symbol role-legend-symbol" pointer-events="none"><path transform="translate(6,6)" d="M-5,-5h10v10h-10Z" fill="#004488" stroke-width="1.5" opacity="1"/></g><g class="mark-text role-legend-label" pointer-events="none"><text text-anchor="start" transform="translate(16,9)" font-family="sans-serif" font-size="10px" fill="#000" opacity="1">Formula found, correct</text></g></g><path class="foreground" aria-hidden="true" d="" pointer-events="none" display="none"/></g><g transform="translate(0,13)"><path class="background" aria-hidden="true" d="M0,0h124.37890625v11h-124.37890625Z" pointer-events="none" opacity="1"/><g><g class="mark-symbol role-legend-symbol" pointer-events="none"><path transform="translate(6,6)" d="M-5,-5h10v10h-10Z" fill="#DDAA33" stroke-width="1.5" opacity="1"/></g><g class="mark-text role-legend-label" pointer-events="none"><text text-anchor="start" transform="translate(16,9)" font-family="sans-serif" font-size="10px" fill="#000" opacity="1">Formula found, incorrect</text></g></g><path class="foreground" aria-hidden="true" d="" pointer-events="none" display="none"/></g><g transform="translate(0,26)"><path class="background" aria-hidden="true" d="M0,0h124.37890625v11h-124.37890625Z" pointer-events="none" opacity="1"/><g><g class="mark-symbol role-legend-symbol" pointer-events="none"><path transform="translate(6,6)" d="M-5,-5h10v10h-10Z" fill="#BB5566" stroke-width="1.5" opacity="1"/></g><g class="mark-text role-legend-label" pointer-events="none"><text text-anchor="start" transform="translate(16,9)" font-family="sans-serif" font-size="10px" fill="#000" opacity="1">Formula not found</text></g></g><path class="foreground" aria-hidden="true" d="" pointer-events="none" display="none"/></g></g></g><path class="foreground" aria-hidden="true" d="" pointer-events="none" display="none"/></g></g><g class="mark-text role-legend-title" pointer-events="none"><text text-anchor="start" transform="translate(0,9)" font-family="sans-serif" font-size="11px" font-weight="bold" fill="#000" opacity="1">Status</text></g></g><path class="foreground" aria-hidden="true" d="" pointer-events="none" display="none"/></g></g><g class="mark-group role-title"><g transform="translate(150,-17)"><path class="background" aria-hidden="true" d="M0,0h0v0h0Z" pointer-events="none"/><g><g class="mark-text role-title-text" role="graphics-symbol" aria-roledescription="title" aria-label="Title text 'MSBuddy: Formula identification'" pointer-events="none"><text text-anchor="middle" transform="translate(0,10)" font-family="sans-serif" font-size="13px" font-weight="bold" fill="#000" opacity="1">MSBuddy: Formula identification</text></g></g><path class="foreground" aria-hidden="true" d="" pointer-events="none" display="none"/></g></g></g><path class="foreground" aria-hidden="true" d="" display="none"/></g></g></g></svg>